<ttFont>
<head>
    <!-- Most of this table will be recalculated by the compiler -->
    <tableVersion value="1.0"/>
    <fontRevision value="1.0"/>
    <checkSumAdjustment value="0x34a475ae"/>
    <magicNumber value="0x5f0f3cf5"/>
    <flags value="00000000 00011011"/>
    <unitsPerEm value="1000"/>
    <created value="Sat Dec  6 13:43:36 2025"/>
    <modified value="Sat Dec  6 13:50:42 2025"/>
    <xMin value="-24"/>
    <yMin value="-2960"/>
    <xMax value="1454"/>
    <yMax value="772"/>
    <macStyle value="00000000 00000000"/>
    <lowestRecPPEM value="6"/>
    <fontDirectionHint value="2"/>
    <indexToLocFormat value="0"/>
    <glyphDataFormat value="0"/>
  </head>
    <TTGlyph name="Gamma" xMin="33" yMin="0" xMax="582" yMax="680">
      <contour>
        <pt x="582" y="455" on="1"/>
        <pt x="557" y="455" on="1"/>
        <pt x="551" y="506" on="0"/>
        <pt x="533" y="579" on="0"/>
        <pt x="496" y="626" on="0"/>
        <pt x="431" y="649" on="0"/>
        <pt x="377" y="649" on="1"/>
        <pt x="274" y="649" on="1"/>
        <pt x="256" y="649" on="0"/>
        <pt x="237" y="646" on="0"/>
        <pt x="227" y="637" on="0"/>
        <pt x="225" y="621" on="0"/>
        <pt x="225" y="609" on="1"/>
        <pt x="225" y="79" on="1"/>
        <pt x="225" y="66" on="0"/>
        <pt x="228" y="48" on="0"/>
        <pt x="246" y="36" on="0"/>
        <pt x="284" y="31" on="0"/>
        <pt x="320" y="31" on="1"/>
        <pt x="353" y="31" on="1"/>
        <pt x="353" y="0" on="1"/>
        <pt x="340" y="1" on="0"/>
        <pt x="295" y="2" on="0"/>
        <pt x="247" y="3" on="0"/>
        <pt x="200" y="3" on="0"/>
        <pt x="185" y="3" on="1"/>
        <pt x="170" y="3" on="0"/>
        <pt x="129" y="3" on="0"/>
        <pt x="86" y="2" on="0"/>
        <pt x="46" y="1" on="0"/>
        <pt x="33" y="0" on="1"/>
        <pt x="33" y="31" on="1"/>
        <pt x="57" y="31" on="1"/>
        <pt x="86" y="31" on="0"/>
        <pt x="118" y="36" on="0"/>
        <pt x="133" y="46" on="0"/>
        <pt x="136" y="65" on="0"/>
        <pt x="136" y="78" on="1"/>
        <pt x="136" y="602" on="1"/>
        <pt x="136" y="616" on="0"/>
        <pt x="133" y="634" on="0"/>
        <pt x="118" y="644" on="0"/>
        <pt x="86" y="649" on="0"/>
        <pt x="57" y="649" on="1"/>
        <pt x="33" y="649" on="1"/>
        <pt x="33" y="680" on="1"/>
        <pt x="554" y="680" on="1"/>
      </contour>
    </TTGlyph>
    <TTGlyph name="Lambda" xMin="32" yMin="0" xMax="661" yMax="716">
      <contour>
        <pt x="166" y="105" on="1"/>
        <pt x="162" y="94" on="0"/>
        <pt x="161" y="87" on="0"/>
        <pt x="161" y="83" on="1"/>
        <pt x="161" y="65" on="0"/>
        <pt x="197" y="32" on="0"/>
        <pt x="238" y="31" on="1"/>
        <pt x="238" y="0" on="1"/>
        <pt x="226" y="0" on="0"/>
        <pt x="196" y="1" on="0"/>
        <pt x="165" y="2" on="0"/>
        <pt x="136" y="3" on="0"/>
        <pt x="125" y="3" on="1"/>
        <pt x="122" y="3" on="0"/>
        <pt x="101" y="3" on="0"/>
        <pt x="74" y="2" on="0"/>
        <pt x="44" y="1" on="0"/>
        <pt x="32" y="0" on="1"/>
        <pt x="32" y="31" on="1"/>
        <pt x="58" y="31" on="0"/>
        <pt x="93" y="44" on="0"/>
        <pt x="116" y="64" on="0"/>
        <pt x="128" y="89" on="0"/>
        <pt x="132" y="100" on="1"/>
        <pt x="324" y="695" on="1"/>
        <pt x="328" y="708" on="0"/>
        <pt x="335" y="716" on="0"/>
        <pt x="347" y="716" on="1"/>
        <pt x="355" y="716" on="0"/>
        <pt x="365" y="709" on="0"/>
        <pt x="370" y="695" on="1"/>
        <pt x="570" y="74" on="1"/>
        <pt x="575" y="60" on="0"/>
        <pt x="583" y="43" on="0"/>
        <pt x="600" y="34" on="0"/>
        <pt x="633" y="31" on="0"/>
        <pt x="661" y="31" on="1"/>
        <pt x="661" y="0" on="1"/>
        <pt x="632" y="1" on="0"/>
        <pt x="567" y="3" on="0"/>
        <pt x="538" y="3" on="1"/>
        <pt x="524" y="3" on="0"/>
        <pt x="485" y="3" on="0"/>
        <pt x="445" y="2" on="0"/>
        <pt x="407" y="1" on="0"/>
        <pt x="394" y="0" on="1"/>
        <pt x="394" y="31" on="1"/>
        <pt x="404" y="31" on="0"/>
        <pt x="433" y="32" on="0"/>
        <pt x="460" y="38" on="0"/>
        <pt x="479" y="50" on="0"/>
        <pt x="479" y="61" on="1"/>
        <pt x="479" y="63" on="0"/>
        <pt x="478" y="68" on="0"/>
        <pt x="474" y="79" on="1"/>
        <pt x="316" y="571" on="1"/>
      </contour>
    </TTGlyph>
    <TTGlyph name="Phi" xMin="56" yMin="0" xMax="665" yMax="683">
      <contour>
        <pt x="399" y="548" on="1"/>
        <pt x="456" y="544" on="0"/>
        <pt x="553" y="507" on="0"/>
        <pt x="625" y="451" on="0"/>
        <pt x="665" y="380" on="0"/>
        <pt x="665" y="341" on="1"/>
        <pt x="665" y="303" on="0"/>
        <pt x="625" y="233" on="0"/>
        <pt x="555" y="177" on="0"/>
        <pt x="457" y="140" on="0"/>
        <pt x="399" y="135" on="1"/>
        <pt x="399" y="79" on="1"/>
        <pt x="399" y="66" on="0"/>
        <pt x="402" y="48" on="0"/>
        <pt x="420" y="36" on="0"/>
        <pt x="458" y="31" on="0"/>
        <pt x="494" y="31" on="1"/>
        <pt x="527" y="31" on="1"/>
        <pt x="527" y="0" on="1"/>
        <pt x="514" y="1" on="0"/>
        <pt x="469" y="2" on="0"/>
        <pt x="419" y="3" on="0"/>
        <pt x="372" y="3" on="0"/>
        <pt x="357" y="3" on="1"/>
        <pt x="342" y="3" on="0"/>
        <pt x="295" y="3" on="0"/>
        <pt x="246" y="2" on="0"/>
        <pt x="202" y="1" on="0"/>
        <pt x="188" y="0" on="1"/>
        <pt x="188" y="31" on="1"/>
        <pt x="221" y="31" on="1"/>
        <pt x="257" y="31" on="0"/>
        <pt x="295" y="36" on="0"/>
        <pt x="313" y="48" on="0"/>
        <pt x="316" y="66" on="0"/>
        <pt x="316" y="79" on="1"/>
        <pt x="316" y="135" on="1"/>
        <pt x="260" y="141" on="0"/>
        <pt x="165" y="178" on="0"/>
        <pt x="95" y="233" on="0"/>
        <pt x="56" y="303" on="0"/>
        <pt x="56" y="342" on="1"/>
        <pt x="56" y="379" on="0"/>
        <pt x="94" y="449" on="0"/>
        <pt x="163" y="504" on="0"/>
        <pt x="259" y="542" on="0"/>
        <pt x="316" y="548" on="1"/>
        <pt x="316" y="604" on="1"/>
        <pt x="316" y="617" on="0"/>
        <pt x="313" y="635" on="0"/>
        <pt x="295" y="647" on="0"/>
        <pt x="257" y="652" on="0"/>
        <pt x="221" y="652" on="1"/>
        <pt x="188" y="652" on="1"/>
        <pt x="188" y="683" on="1"/>
        <pt x="202" y="682" on="0"/>
        <pt x="246" y="681" on="0"/>
        <pt x="296" y="680" on="0"/>
        <pt x="343" y="680" on="0"/>
        <pt x="358" y="680" on="1"/>
        <pt x="373" y="680" on="0"/>
        <pt x="420" y="680" on="0"/>
        <pt x="469" y="681" on="0"/>
        <pt x="514" y="682" on="0"/>
        <pt x="527" y="683" on="1"/>
        <pt x="527" y="652" on="1"/>
        <pt x="494" y="652" on="1"/>
        <pt x="458" y="652" on="0"/>
        <pt x="420" y="647" on="0"/>
        <pt x="402" y="635" on="0"/>
        <pt x="399" y="617" on="0"/>
        <pt x="399" y="604" on="1"/>
      </contour>
      <contour>
        <pt x="316" y="525" on="1"/>
        <pt x="260" y="518" on="0"/>
        <pt x="196" y="473" on="0"/>
        <pt x="164" y="417" on="0"/>
        <pt x="156" y="361" on="0"/>
        <pt x="156" y="341" on="1"/>
        <pt x="156" y="318" on="0"/>
        <pt x="166" y="260" on="0"/>
        <pt x="199" y="207" on="0"/>
        <pt x="263" y="165" on="0"/>
        <pt x="316" y="158" on="1"/>
      </contour>
      <contour>
        <pt x="399" y="157" on="1"/>
        <pt x="456" y="164" on="0"/>
        <pt x="522" y="206" on="0"/>
        <pt x="556" y="261" on="0"/>
        <pt x="565" y="320" on="0"/>
        <pt x="565" y="342" on="1"/>
        <pt x="565" y="371" on="0"/>
        <pt x="552" y="431" on="0"/>
        <pt x="516" y="482" on="0"/>
        <pt x="451" y="520" on="0"/>
        <pt x="399" y="526" on="1"/>
      </contour>
    </TTGlyph>
    <TTGlyph name="Pi" xMin="33" yMin="0" xMax="716" yMax="680">
      <contour>
        <pt x="225" y="78" on="1"/>
        <pt x="225" y="65" on="0"/>
        <pt x="228" y="46" on="0"/>
        <pt x="243" y="36" on="0"/>
        <pt x="275" y="31" on="0"/>
        <pt x="304" y="31" on="1"/>
        <pt x="328" y="31" on="1"/>
        <pt x="328" y="0" on="1"/>
        <pt x="315" y="1" on="0"/>
        <pt x="276" y="2" on="0"/>
        <pt x="234" y="3" on="0"/>
        <pt x="194" y="3" on="0"/>
        <pt x="180" y="3" on="1"/>
        <pt x="166" y="3" on="0"/>
        <pt x="126" y="3" on="0"/>
        <pt x="85" y="2" on="0"/>
        <pt x="46" y="1" on="0"/>
        <pt x="33" y="0" on="1"/>
        <pt x="33" y="31" on="1"/>
        <pt x="57" y="31" on="1"/>
        <pt x="86" y="31" on="0"/>
        <pt x="118" y="36" on="0"/>
        <pt x="133" y="46" on="0"/>
        <pt x="136" y="65" on="0"/>
        <pt x="136" y="78" on="1"/>
        <pt x="136" y="602" on="1"/>
        <pt x="136" y="616" on="0"/>
        <pt x="133" y="634" on="0"/>
        <pt x="118" y="644" on="0"/>
        <pt x="86" y="649" on="0"/>
        <pt x="57" y="649" on="1"/>
        <pt x="33" y="649" on="1"/>
        <pt x="33" y="680" on="1"/>
        <pt x="716" y="680" on="1"/>
        <pt x="716" y="649" on="1"/>
        <pt x="692" y="649" on="1"/>
        <pt x="663" y="649" on="0"/>
        <pt x="631" y="644" on="0"/>
        <pt x="616" y="634" on="0"/>
        <pt x="613" y="616" on="0"/>
        <pt x="613" y="602" on="1"/>
        <pt x="613" y="78" on="1"/>
        <pt x="613" y="65" on="0"/>
        <pt x="616" y="46" on="0"/>
        <pt x="631" y="36" on="0"/>
        <pt x="663" y="31" on="0"/>
        <pt x="692" y="31" on="1"/>
        <pt x="716" y="31" on="1"/>
        <pt x="716" y="0" on="1"/>
        <pt x="703" y="1" on="0"/>
        <pt x="664" y="2" on="0"/>
        <pt x="622" y="3" on="0"/>
        <pt x="582" y="3" on="0"/>
        <pt x="568" y="3" on="1"/>
        <pt x="554" y="3" on="0"/>
        <pt x="514" y="3" on="0"/>
        <pt x="473" y="2" on="0"/>
        <pt x="434" y="1" on="0"/>
        <pt x="421" y="0" on="1"/>
        <pt x="421" y="31" on="1"/>
        <pt x="445" y="31" on="1"/>
        <pt x="474" y="31" on="0"/>
        <pt x="506" y="36" on="0"/>
        <pt x="521" y="46" on="0"/>
        <pt x="524" y="65" on="0"/>
        <pt x="524" y="78" on="1"/>
        <pt x="524" y="649" on="1"/>
        <pt x="225" y="649" on="1"/>
      </contour>
    </TTGlyph>
    <TTGlyph name="Psi" xMin="57" yMin="0" xMax="720" yMax="683">
      <contour>
        <pt x="344" y="604" on="1"/>
        <pt x="344" y="617" on="0"/>
        <pt x="341" y="635" on="0"/>
        <pt x="323" y="647" on="0"/>
        <pt x="285" y="652" on="0"/>
        <pt x="249" y="652" on="1"/>
        <pt x="216" y="652" on="1"/>
        <pt x="216" y="683" on="1"/>
        <pt x="230" y="682" on="0"/>
        <pt x="274" y="681" on="0"/>
        <pt x="324" y="680" on="0"/>
        <pt x="371" y="680" on="0"/>
        <pt x="386" y="680" on="1"/>
        <pt x="401" y="680" on="0"/>
        <pt x="448" y="680" on="0"/>
        <pt x="497" y="681" on="0"/>
        <pt x="542" y="682" on="0"/>
        <pt x="555" y="683" on="1"/>
        <pt x="555" y="652" on="1"/>
        <pt x="522" y="652" on="1"/>
        <pt x="486" y="652" on="0"/>
        <pt x="448" y="647" on="0"/>
        <pt x="430" y="635" on="0"/>
        <pt x="427" y="617" on="0"/>
        <pt x="427" y="604" on="1"/>
        <pt x="427" y="160" on="1"/>
        <pt x="468" y="170" on="0"/>
        <pt x="522" y="217" on="0"/>
        <pt x="555" y="282" on="0"/>
        <pt x="569" y="361" on="0"/>
        <pt x="569" y="402" on="1"/>
        <pt x="569" y="456" on="0"/>
        <pt x="586" y="517" on="0"/>
        <pt x="612" y="547" on="0"/>
        <pt x="643" y="554" on="0"/>
        <pt x="658" y="554" on="1"/>
        <pt x="696" y="554" on="1"/>
        <pt x="708" y="554" on="0"/>
        <pt x="720" y="551" on="0"/>
        <pt x="720" y="543" on="1"/>
        <pt x="720" y="536" on="0"/>
        <pt x="712" y="533" on="0"/>
        <pt x="707" y="532" on="1"/>
        <pt x="687" y="529" on="0"/>
        <pt x="665" y="498" on="0"/>
        <pt x="654" y="461" on="0"/>
        <pt x="652" y="426" on="0"/>
        <pt x="652" y="420" on="1"/>
        <pt x="652" y="363" on="0"/>
        <pt x="627" y="265" on="0"/>
        <pt x="573" y="190" on="0"/>
        <pt x="487" y="143" on="0"/>
        <pt x="427" y="135" on="1"/>
        <pt x="427" y="79" on="1"/>
        <pt x="427" y="66" on="0"/>
        <pt x="430" y="48" on="0"/>
        <pt x="448" y="36" on="0"/>
        <pt x="486" y="31" on="0"/>
        <pt x="522" y="31" on="1"/>
        <pt x="555" y="31" on="1"/>
        <pt x="555" y="0" on="1"/>
        <pt x="542" y="1" on="0"/>
        <pt x="497" y="2" on="0"/>
        <pt x="447" y="3" on="0"/>
        <pt x="400" y="3" on="0"/>
        <pt x="385" y="3" on="1"/>
        <pt x="370" y="3" on="0"/>
        <pt x="323" y="3" on="0"/>
        <pt x="274" y="2" on="0"/>
        <pt x="230" y="1" on="0"/>
        <pt x="216" y="0" on="1"/>
        <pt x="216" y="31" on="1"/>
        <pt x="249" y="31" on="1"/>
        <pt x="285" y="31" on="0"/>
        <pt x="323" y="36" on="0"/>
        <pt x="341" y="48" on="0"/>
        <pt x="344" y="66" on="0"/>
        <pt x="344" y="79" on="1"/>
        <pt x="344" y="135" on="1"/>
        <pt x="291" y="142" on="0"/>
        <pt x="209" y="186" on="0"/>
        <pt x="154" y="254" on="0"/>
        <pt x="125" y="344" on="0"/>
        <pt x="125" y="396" on="1"/>
        <pt x="125" y="440" on="0"/>
        <pt x="115" y="493" on="0"/>
        <pt x="100" y="521" on="0"/>
        <pt x="78" y="531" on="0"/>
        <pt x="66" y="532" on="1"/>
        <pt x="57" y="534" on="0"/>
        <pt x="57" y="543" on="1"/>
        <pt x="57" y="551" on="0"/>
        <pt x="71" y="554" on="0"/>
        <pt x="82" y="554" on="1"/>
        <pt x="119" y="554" on="1"/>
        <pt x="136" y="554" on="0"/>
        <pt x="167" y="544" on="0"/>
        <pt x="192" y="514" on="0"/>
        <pt x="208" y="459" on="0"/>
        <pt x="208" y="414" on="1"/>
        <pt x="208" y="390" on="0"/>
        <pt x="214" y="314" on="0"/>
        <pt x="240" y="238" on="0"/>
        <pt x="295" y="173" on="0"/>
        <pt x="344" y="160" on="1"/>
      </contour>
    </TTGlyph>
    <TTGlyph name="Sigma" xMin="56" yMin="0" xMax="665" yMax="683">
      <contour>
        <pt x="374" y="356" on="1"/>
        <pt x="376" y="353" on="0"/>
        <pt x="381" y="346" on="0"/>
        <pt x="381" y="342" on="1"/>
        <pt x="381" y="340" on="0"/>
        <pt x="379" y="334" on="0"/>
        <pt x="372" y="326" on="1"/>
        <pt x="121" y="42" on="1"/>
        <pt x="397" y="42" on="1"/>
        <pt x="456" y="42" on="0"/>
        <pt x="541" y="56" on="0"/>
        <pt x="600" y="97" on="0"/>
        <pt x="633" y="173" on="0"/>
        <pt x="640" y="236" on="1"/>
        <pt x="665" y="236" on="1"/>
        <pt x="637" y="0" on="1"/>
        <pt x="82" y="0" on="1"/>
        <pt x="71" y="0" on="0"/>
        <pt x="57" y="3" on="0"/>
        <pt x="57" y="11" on="1"/>
        <pt x="57" y="13" on="0"/>
        <pt x="59" y="19" on="0"/>
        <pt x="67" y="27" on="1"/>
        <pt x="305" y="298" on="1"/>
        <pt x="56" y="660" on="1"/>
        <pt x="56" y="677" on="0"/>
        <pt x="64" y="683" on="0"/>
        <pt x="82" y="683" on="1"/>
        <pt x="637" y="683" on="1"/>
        <pt x="665" y="458" on="1"/>
        <pt x="640" y="458" on="1"/>
        <pt x="632" y="517" on="0"/>
        <pt x="603" y="593" on="0"/>
        <pt x="548" y="636" on="0"/>
        <pt x="463" y="652" on="0"/>
        <pt x="400" y="652" on="1"/>
        <pt x="169" y="652" on="1"/>
      </contour>
    </TTGlyph>
    <TTGlyph name="Theta" xMin="56" yMin="-22" xMax="721" yMax="705">
      <contour>
        <pt x="721" y="339" on="1"/>
        <pt x="721" y="263" on="0"/>
        <pt x="668" y="132" on="0"/>
        <pt x="577" y="34" on="0"/>
        <pt x="456" y="-22" on="0"/>
        <pt x="388" y="-22" on="1"/>
        <pt x="321" y="-22" on="0"/>
        <pt x="201" y="33" on="0"/>
        <pt x="110" y="130" on="0"/>
        <pt x="56" y="262" on="0"/>
        <pt x="56" y="339" on="1"/>
        <pt x="56" y="416" on="0"/>
        <pt x="109" y="550" on="0"/>
        <pt x="200" y="649" on="0"/>
        <pt x="321" y="705" on="0"/>
        <pt x="388" y="705" on="1"/>
        <pt x="456" y="705" on="0"/>
        <pt x="577" y="648" on="0"/>
        <pt x="668" y="549" on="0"/>
        <pt x="721" y="416" on="0"/>
      </contour>
      <contour>
        <pt x="389" y="1" on="1"/>
        <pt x="424" y="1" on="0"/>
        <pt x="507" y="35" on="0"/>
        <pt x="577" y="114" on="0"/>
        <pt x="624" y="243" on="0"/>
        <pt x="624" y="339" on="1"/>
        <pt x="624" y="434" on="0"/>
        <pt x="579" y="565" on="0"/>
        <pt x="509" y="647" on="0"/>
        <pt x="426" y="683" on="0"/>
        <pt x="388" y="683" on="1"/>
        <pt x="352" y="683" on="0"/>
        <pt x="270" y="648" on="0"/>
        <pt x="199" y="567" on="0"/>
        <pt x="153" y="435" on="0"/>
        <pt x="153" y="339" on="1"/>
        <pt x="153" y="245" on="0"/>
        <pt x="199" y="115" on="0"/>
        <pt x="269" y="36" on="0"/>
        <pt x="352" y="1" on="0"/>
      </contour>
      <contour>
        <pt x="542" y="380" on="1"/>
        <pt x="542" y="414" on="1"/>
        <pt x="567" y="414" on="1"/>
        <pt x="567" y="270" on="1"/>
        <pt x="542" y="270" on="1"/>
        <pt x="542" y="304" on="1"/>
        <pt x="235" y="304" on="1"/>
        <pt x="235" y="270" on="1"/>
        <pt x="210" y="270" on="1"/>
        <pt x="210" y="414" on="1"/>
        <pt x="235" y="414" on="1"/>
        <pt x="235" y="380" on="1"/>
      </contour>
    </TTGlyph>
    <TTGlyph name="Upsilon" xMin="56" yMin="0" xMax="721" yMax="705">
      <contour>
        <pt x="433" y="79" on="1"/>
        <pt x="433" y="66" on="0"/>
        <pt x="436" y="48" on="0"/>
        <pt x="454" y="36" on="0"/>
        <pt x="492" y="31" on="0"/>
        <pt x="528" y="31" on="1"/>
        <pt x="561" y="31" on="1"/>
        <pt x="561" y="0" on="1"/>
        <pt x="548" y="1" on="0"/>
        <pt x="502" y="2" on="0"/>
        <pt x="451" y="3" on="0"/>
        <pt x="403" y="3" on="0"/>
        <pt x="388" y="3" on="1"/>
        <pt x="373" y="3" on="0"/>
        <pt x="325" y="3" on="0"/>
        <pt x="275" y="2" on="0"/>
        <pt x="230" y="1" on="0"/>
        <pt x="216" y="0" on="1"/>
        <pt x="216" y="31" on="1"/>
        <pt x="249" y="31" on="1"/>
        <pt x="285" y="31" on="0"/>
        <pt x="323" y="36" on="0"/>
        <pt x="341" y="48" on="0"/>
        <pt x="344" y="66" on="0"/>
        <pt x="344" y="79" on="1"/>
        <pt x="344" y="351" on="1"/>
        <pt x="344" y="381" on="0"/>
        <pt x="333" y="475" on="0"/>
        <pt x="300" y="564" on="0"/>
        <pt x="238" y="628" on="0"/>
        <pt x="186" y="628" on="1"/>
        <pt x="184" y="628" on="0"/>
        <pt x="155" y="626" on="0"/>
        <pt x="120" y="611" on="0"/>
        <pt x="90" y="578" on="0"/>
        <pt x="87" y="548" on="1"/>
        <pt x="86" y="544" on="0"/>
        <pt x="83" y="535" on="0"/>
        <pt x="72" y="535" on="1"/>
        <pt x="60" y="535" on="0"/>
        <pt x="56" y="546" on="0"/>
        <pt x="56" y="552" on="1"/>
        <pt x="56" y="575" on="0"/>
        <pt x="71" y="628" on="0"/>
        <pt x="103" y="674" on="0"/>
        <pt x="153" y="705" on="0"/>
        <pt x="187" y="705" on="1"/>
        <pt x="227" y="705" on="0"/>
        <pt x="286" y="675" on="0"/>
        <pt x="330" y="628" on="0"/>
        <pt x="359" y="571" on="0"/>
        <pt x="377" y="517" on="0"/>
        <pt x="386" y="473" on="0"/>
        <pt x="388" y="462" on="1"/>
        <pt x="389" y="462" on="1"/>
        <pt x="407" y="577" on="0"/>
        <pt x="512" y="705" on="0"/>
        <pt x="590" y="705" on="1"/>
        <pt x="624" y="705" on="0"/>
        <pt x="674" y="674" on="0"/>
        <pt x="706" y="628" on="0"/>
        <pt x="721" y="575" on="0"/>
        <pt x="721" y="552" on="1"/>
        <pt x="721" y="546" on="0"/>
        <pt x="717" y="535" on="0"/>
        <pt x="705" y="535" on="1"/>
        <pt x="695" y="535" on="0"/>
        <pt x="691" y="544" on="0"/>
        <pt x="690" y="551" on="1"/>
        <pt x="687" y="574" on="0"/>
        <pt x="665" y="604" on="0"/>
        <pt x="635" y="621" on="0"/>
        <pt x="603" y="628" on="0"/>
        <pt x="591" y="628" on="1"/>
        <pt x="542" y="628" on="0"/>
        <pt x="480" y="568" on="0"/>
        <pt x="445" y="482" on="0"/>
        <pt x="433" y="387" on="0"/>
        <pt x="433" y="351" on="1"/>
      </contour>
    </TTGlyph>
    <TTGlyph name="Xi" xMin="42" yMin="0" xMax="624" yMax="677">
      <contour>
        <pt x="619" y="521" on="1"/>
        <pt x="594" y="521" on="1"/>
        <pt x="592" y="552" on="0"/>
        <pt x="587" y="591" on="0"/>
        <pt x="582" y="599" on="1"/>
        <pt x="580" y="602" on="0"/>
        <pt x="559" y="605" on="0"/>
        <pt x="533" y="607" on="0"/>
        <pt x="510" y="607" on="0"/>
        <pt x="506" y="607" on="1"/>
        <pt x="160" y="607" on="1"/>
        <pt x="157" y="607" on="0"/>
        <pt x="134" y="607" on="0"/>
        <pt x="108" y="605" on="0"/>
        <pt x="86" y="602" on="0"/>
        <pt x="84" y="599" on="1"/>
        <pt x="79" y="591" on="0"/>
        <pt x="74" y="552" on="0"/>
        <pt x="72" y="521" on="1"/>
        <pt x="47" y="521" on="1"/>
        <pt x="55" y="677" on="1"/>
        <pt x="611" y="677" on="1"/>
      </contour>
      <contour>
        <pt x="42" y="167" on="1"/>
        <pt x="67" y="167" on="1"/>
        <pt x="69" y="134" on="0"/>
        <pt x="73" y="90" on="0"/>
        <pt x="79" y="80" on="1"/>
        <pt x="82" y="76" on="0"/>
        <pt x="102" y="72" on="0"/>
        <pt x="128" y="70" on="0"/>
        <pt x="152" y="70" on="0"/>
        <pt x="159" y="70" on="1"/>
        <pt x="507" y="70" on="1"/>
        <pt x="515" y="70" on="0"/>
        <pt x="541" y="70" on="0"/>
        <pt x="565" y="72" on="0"/>
        <pt x="585" y="77" on="0"/>
        <pt x="587" y="81" on="1"/>
        <pt x="593" y="92" on="0"/>
        <pt x="597" y="132" on="0"/>
        <pt x="599" y="167" on="1"/>
        <pt x="624" y="167" on="1"/>
        <pt x="616" y="0" on="1"/>
        <pt x="50" y="0" on="1"/>
      </contour>
      <contour>
        <pt x="502" y="387" on="1"/>
        <pt x="502" y="438" on="1"/>
        <pt x="527" y="438" on="1"/>
        <pt x="527" y="266" on="1"/>
        <pt x="502" y="266" on="1"/>
        <pt x="502" y="317" on="1"/>
        <pt x="164" y="317" on="1"/>
        <pt x="164" y="266" on="1"/>
        <pt x="139" y="266" on="1"/>
        <pt x="139" y="438" on="1"/>
        <pt x="164" y="438" on="1"/>
        <pt x="164" y="387" on="1"/>
      </contour>
    </TTGlyph>
    <TTGlyph name="angbracketleftBig" xMin="112" yMin="-1759" xMax="522" yMax="40">
      <contour>
        <pt x="118" y="-879" on="1"/>
        <pt x="114" y="-870" on="0"/>
        <pt x="112" y="-864" on="0"/>
        <pt x="112" y="-860" on="1"/>
        <pt x="112" y="-855" on="0"/>
        <pt x="114" y="-850" on="0"/>
        <pt x="118" y="-840" on="1"/>
        <pt x="473" y="16" on="1"/>
        <pt x="478" y="27" on="0"/>
        <pt x="487" y="40" on="0"/>
        <pt x="499" y="40" on="1"/>
        <pt x="507" y="40" on="0"/>
        <pt x="522" y="28" on="0"/>
        <pt x="522" y="16" on="1"/>
        <pt x="522" y="12" on="0"/>
        <pt x="520" y="6" on="0"/>
        <pt x="516" y="-3" on="1"/>
        <pt x="161" y="-860" on="1"/>
        <pt x="516" y="-1716" on="1"/>
        <pt x="520" y="-1725" on="0"/>
        <pt x="522" y="-1731" on="0"/>
        <pt x="522" y="-1735" on="1"/>
        <pt x="522" y="-1747" on="0"/>
        <pt x="507" y="-1759" on="0"/>
        <pt x="499" y="-1759" on="1"/>
        <pt x="487" y="-1759" on="0"/>
        <pt x="478" y="-1746" on="0"/>
        <pt x="473" y="-1735" on="1"/>
      </contour>
    </TTGlyph>
    <TTGlyph name="angbracketleftBigg" xMin="139" yMin="-2960" xMax="697" yMax="40">
      <contour>
        <pt x="144" y="-1480" on="1"/>
        <pt x="140" y="-1469" on="0"/>
        <pt x="139" y="-1462" on="0"/>
        <pt x="139" y="-1460" on="1"/>
        <pt x="139" y="-1458" on="0"/>
        <pt x="140" y="-1451" on="0"/>
        <pt x="144" y="-1440" on="1"/>
        <pt x="634" y="10" on="1"/>
        <pt x="637" y="20" on="0"/>
        <pt x="649" y="40" on="0"/>
        <pt x="666" y="40" on="1"/>
        <pt x="679" y="40" on="0"/>
        <pt x="697" y="22" on="0"/>
        <pt x="697" y="9" on="1"/>
        <pt x="697" y="7" on="0"/>
        <pt x="696" y="0" on="0"/>
        <pt x="692" y="-11" on="1"/>
        <pt x="203" y="-1460" on="1"/>
        <pt x="692" y="-2909" on="1"/>
        <pt x="696" y="-2920" on="0"/>
        <pt x="697" y="-2927" on="0"/>
        <pt x="697" y="-2929" on="1"/>
        <pt x="697" y="-2942" on="0"/>
        <pt x="679" y="-2960" on="0"/>
        <pt x="666" y="-2960" on="1"/>
        <pt x="649" y="-2960" on="0"/>
        <pt x="638" y="-2940" on="0"/>
        <pt x="634" y="-2929" on="1"/>
      </contour>
    </TTGlyph>
    <TTGlyph name="angbracketleftbig" xMin="98" yMin="-1160" xMax="393" yMax="40">
      <contour>
        <pt x="104" y="-579" on="1"/>
        <pt x="99" y="-569" on="0"/>
        <pt x="98" y="-561" on="0"/>
        <pt x="98" y="-560" on="1"/>
        <pt x="98" y="-559" on="0"/>
        <pt x="99" y="-551" on="0"/>
        <pt x="104" y="-541" on="1"/>
        <pt x="351" y="19" on="1"/>
        <pt x="356" y="29" on="0"/>
        <pt x="363" y="40" on="0"/>
        <pt x="373" y="40" on="1"/>
        <pt x="381" y="40" on="0"/>
        <pt x="393" y="28" on="0"/>
        <pt x="393" y="20" on="1"/>
        <pt x="393" y="19" on="0"/>
        <pt x="392" y="11" on="0"/>
        <pt x="387" y="1" on="1"/>
        <pt x="140" y="-560" on="1"/>
        <pt x="387" y="-1121" on="1"/>
        <pt x="392" y="-1131" on="0"/>
        <pt x="393" y="-1139" on="0"/>
        <pt x="393" y="-1140" on="1"/>
        <pt x="393" y="-1148" on="0"/>
        <pt x="381" y="-1160" on="0"/>
        <pt x="373" y="-1160" on="1"/>
        <pt x="364" y="-1160" on="0"/>
        <pt x="356" y="-1150" on="0"/>
        <pt x="351" y="-1138" on="1"/>
      </contour>
    </TTGlyph>
    <TTGlyph name="angbracketleftbigg" xMin="125" yMin="-2359" xMax="652" yMax="40">
      <contour>
        <pt x="132" y="-1180" on="1"/>
        <pt x="127" y="-1168" on="0"/>
        <pt x="125" y="-1161" on="0"/>
        <pt x="125" y="-1159" on="1"/>
        <pt x="125" y="-1158" on="0"/>
        <pt x="126" y="-1150" on="0"/>
        <pt x="131" y="-1139" on="1"/>
        <pt x="595" y="13" on="1"/>
        <pt x="598" y="21" on="0"/>
        <pt x="610" y="40" on="0"/>
        <pt x="624" y="40" on="1"/>
        <pt x="635" y="40" on="0"/>
        <pt x="652" y="24" on="0"/>
        <pt x="652" y="12" on="1"/>
        <pt x="652" y="11" on="0"/>
        <pt x="651" y="3" on="0"/>
        <pt x="646" y="-8" on="1"/>
        <pt x="182" y="-1160" on="1"/>
        <pt x="645" y="-2311" on="1"/>
        <pt x="650" y="-2323" on="0"/>
        <pt x="652" y="-2329" on="0"/>
        <pt x="652" y="-2331" on="1"/>
        <pt x="652" y="-2343" on="0"/>
        <pt x="635" y="-2359" on="0"/>
        <pt x="624" y="-2359" on="1"/>
        <pt x="610" y="-2359" on="0"/>
        <pt x="598" y="-2340" on="0"/>
        <pt x="595" y="-2332" on="1"/>
      </contour>
    </TTGlyph>
    <TTGlyph name="angbracketrightBig" xMin="88" yMin="-1759" xMax="498" yMax="40">
      <contour>
        <pt x="449" y="-859" on="1"/>
        <pt x="94" y="-3" on="1"/>
        <pt x="90" y="6" on="0"/>
        <pt x="88" y="12" on="0"/>
        <pt x="88" y="16" on="1"/>
        <pt x="88" y="28" on="0"/>
        <pt x="103" y="40" on="0"/>
        <pt x="111" y="40" on="1"/>
        <pt x="123" y="40" on="0"/>
        <pt x="132" y="27" on="0"/>
        <pt x="137" y="16" on="1"/>
        <pt x="492" y="-840" on="1"/>
        <pt x="496" y="-850" on="0"/>
        <pt x="498" y="-855" on="0"/>
        <pt x="498" y="-860" on="1"/>
        <pt x="498" y="-864" on="0"/>
        <pt x="496" y="-870" on="0"/>
        <pt x="492" y="-879" on="1"/>
        <pt x="137" y="-1735" on="1"/>
        <pt x="132" y="-1746" on="0"/>
        <pt x="123" y="-1759" on="0"/>
        <pt x="111" y="-1759" on="1"/>
        <pt x="103" y="-1759" on="0"/>
        <pt x="88" y="-1747" on="0"/>
        <pt x="88" y="-1735" on="1"/>
        <pt x="88" y="-1731" on="0"/>
        <pt x="90" y="-1725" on="0"/>
        <pt x="94" y="-1716" on="1"/>
      </contour>
    </TTGlyph>
    <TTGlyph name="angbracketrightBigg" xMin="108" yMin="-2960" xMax="666" yMax="40">
      <contour>
        <pt x="113" y="-11" on="1"/>
        <pt x="109" y="0" on="0"/>
        <pt x="108" y="7" on="0"/>
        <pt x="108" y="9" on="1"/>
        <pt x="108" y="22" on="0"/>
        <pt x="126" y="40" on="0"/>
        <pt x="139" y="40" on="1"/>
        <pt x="156" y="40" on="0"/>
        <pt x="167" y="20" on="0"/>
        <pt x="171" y="9" on="1"/>
        <pt x="661" y="-1440" on="1"/>
        <pt x="665" y="-1451" on="0"/>
        <pt x="666" y="-1458" on="0"/>
        <pt x="666" y="-1460" on="1"/>
        <pt x="666" y="-1462" on="0"/>
        <pt x="665" y="-1469" on="0"/>
        <pt x="661" y="-1480" on="1"/>
        <pt x="171" y="-2930" on="1"/>
        <pt x="168" y="-2940" on="0"/>
        <pt x="156" y="-2960" on="0"/>
        <pt x="139" y="-2960" on="1"/>
        <pt x="126" y="-2960" on="0"/>
        <pt x="108" y="-2942" on="0"/>
        <pt x="108" y="-2929" on="1"/>
        <pt x="108" y="-2927" on="0"/>
        <pt x="109" y="-2920" on="0"/>
        <pt x="113" y="-2909" on="1"/>
        <pt x="602" y="-1460" on="1"/>
      </contour>
    </TTGlyph>
    <TTGlyph name="angbracketrightbig" xMin="78" yMin="-1160" xMax="373" yMax="40">
      <contour>
        <pt x="84" y="1" on="1"/>
        <pt x="79" y="11" on="0"/>
        <pt x="78" y="19" on="0"/>
        <pt x="78" y="20" on="1"/>
        <pt x="78" y="28" on="0"/>
        <pt x="90" y="40" on="0"/>
        <pt x="98" y="40" on="1"/>
        <pt x="107" y="40" on="0"/>
        <pt x="115" y="30" on="0"/>
        <pt x="120" y="18" on="1"/>
        <pt x="367" y="-541" on="1"/>
        <pt x="372" y="-551" on="0"/>
        <pt x="373" y="-559" on="0"/>
        <pt x="373" y="-560" on="1"/>
        <pt x="373" y="-561" on="0"/>
        <pt x="372" y="-569" on="0"/>
        <pt x="367" y="-579" on="1"/>
        <pt x="120" y="-1139" on="1"/>
        <pt x="115" y="-1149" on="0"/>
        <pt x="108" y="-1160" on="0"/>
        <pt x="98" y="-1160" on="1"/>
        <pt x="90" y="-1160" on="0"/>
        <pt x="78" y="-1148" on="0"/>
        <pt x="78" y="-1140" on="1"/>
        <pt x="78" y="-1139" on="0"/>
        <pt x="79" y="-1131" on="0"/>
        <pt x="84" y="-1121" on="1"/>
        <pt x="331" y="-560" on="1"/>
      </contour>
    </TTGlyph>
    <TTGlyph name="angbracketrightbigg" xMin="97" yMin="-2359" xMax="624" yMax="40">
      <contour>
        <pt x="104" y="-8" on="1"/>
        <pt x="99" y="4" on="0"/>
        <pt x="97" y="10" on="0"/>
        <pt x="97" y="12" on="1"/>
        <pt x="97" y="24" on="0"/>
        <pt x="114" y="40" on="0"/>
        <pt x="125" y="40" on="1"/>
        <pt x="139" y="40" on="0"/>
        <pt x="151" y="21" on="0"/>
        <pt x="154" y="13" on="1"/>
        <pt x="617" y="-1139" on="1"/>
        <pt x="622" y="-1151" on="0"/>
        <pt x="624" y="-1158" on="0"/>
        <pt x="624" y="-1160" on="1"/>
        <pt x="624" y="-1161" on="0"/>
        <pt x="623" y="-1169" on="0"/>
        <pt x="618" y="-1180" on="1"/>
        <pt x="154" y="-2332" on="1"/>
        <pt x="151" y="-2340" on="0"/>
        <pt x="139" y="-2359" on="0"/>
        <pt x="125" y="-2359" on="1"/>
        <pt x="114" y="-2359" on="0"/>
        <pt x="97" y="-2343" on="0"/>
        <pt x="97" y="-2331" on="1"/>
        <pt x="97" y="-2330" on="0"/>
        <pt x="98" y="-2322" on="0"/>
        <pt x="103" y="-2311" on="1"/>
        <pt x="567" y="-1159" on="1"/>
      </contour>
    </TTGlyph>
    <TTGlyph name="arrowbt" xMin="111" yMin="-600" xMax="556" yMax="0">
      <contour>
        <pt x="312" y="0" on="1"/>
        <pt x="355" y="0" on="1"/>
        <pt x="355" y="-510" on="1"/>
        <pt x="369" y="-497" on="0"/>
        <pt x="406" y="-462" on="0"/>
        <pt x="456" y="-426" on="0"/>
        <pt x="518" y="-393" on="0"/>
        <pt x="556" y="-380" on="1"/>
        <pt x="556" y="-418" on="1"/>
        <pt x="484" y="-441" on="0"/>
        <pt x="368" y="-539" on="0"/>
        <pt x="334" y="-600" on="1"/>
        <pt x="333" y="-600" on="1"/>
        <pt x="300" y="-541" on="0"/>
        <pt x="184" y="-442" on="0"/>
        <pt x="111" y="-418" on="1"/>
        <pt x="111" y="-380" on="1"/>
        <pt x="149" y="-393" on="0"/>
        <pt x="211" y="-426" on="0"/>
        <pt x="261" y="-462" on="0"/>
        <pt x="298" y="-497" on="0"/>
        <pt x="312" y="-510" on="1"/>
      </contour>
    </TTGlyph>
    <TTGlyph name="arrowdblbt" xMin="56" yMin="-599" xMax="722" yMax="0">
      <contour>
        <pt x="257" y="0" on="1"/>
        <pt x="300" y="0" on="1"/>
        <pt x="300" y="-385" on="1"/>
        <pt x="300" y="-399" on="0"/>
        <pt x="302" y="-408" on="0"/>
        <pt x="309" y="-415" on="1"/>
        <pt x="332" y="-438" on="0"/>
        <pt x="372" y="-489" on="0"/>
        <pt x="389" y="-516" on="1"/>
        <pt x="406" y="-489" on="0"/>
        <pt x="446" y="-438" on="0"/>
        <pt x="469" y="-415" on="1"/>
        <pt x="476" y="-408" on="0"/>
        <pt x="478" y="-399" on="0"/>
        <pt x="478" y="-385" on="1"/>
        <pt x="478" y="0" on="1"/>
        <pt x="521" y="0" on="1"/>
        <pt x="521" y="-364" on="1"/>
        <pt x="575" y="-319" on="0"/>
        <pt x="675" y="-263" on="0"/>
        <pt x="722" y="-245" on="1"/>
        <pt x="722" y="-288" on="1"/>
        <pt x="632" y="-324" on="0"/>
        <pt x="509" y="-423" on="0"/>
        <pt x="431" y="-518" on="0"/>
        <pt x="393" y="-590" on="0"/>
        <pt x="389" y="-599" on="1"/>
        <pt x="385" y="-590" on="0"/>
        <pt x="347" y="-518" on="0"/>
        <pt x="269" y="-423" on="0"/>
        <pt x="146" y="-324" on="0"/>
        <pt x="56" y="-288" on="1"/>
        <pt x="56" y="-245" on="1"/>
        <pt x="88" y="-258" on="0"/>
        <pt x="194" y="-311" on="0"/>
        <pt x="257" y="-364" on="1"/>
      </contour>
    </TTGlyph>
    <TTGlyph name="arrowdbltp" xMin="56" yMin="-600" xMax="722" yMax="-1">
      <contour>
        <pt x="257" y="-236" on="1"/>
        <pt x="203" y="-281" on="0"/>
        <pt x="103" y="-337" on="0"/>
        <pt x="56" y="-355" on="1"/>
        <pt x="56" y="-312" on="1"/>
        <pt x="146" y="-276" on="0"/>
        <pt x="269" y="-177" on="0"/>
        <pt x="347" y="-82" on="0"/>
        <pt x="385" y="-10" on="0"/>
        <pt x="389" y="-1" on="1"/>
        <pt x="393" y="-10" on="0"/>
        <pt x="431" y="-82" on="0"/>
        <pt x="509" y="-177" on="0"/>
        <pt x="632" y="-276" on="0"/>
        <pt x="722" y="-312" on="1"/>
        <pt x="722" y="-355" on="1"/>
        <pt x="690" y="-342" on="0"/>
        <pt x="584" y="-289" on="0"/>
        <pt x="521" y="-236" on="1"/>
        <pt x="521" y="-600" on="1"/>
        <pt x="478" y="-600" on="1"/>
        <pt x="478" y="-215" on="1"/>
        <pt x="478" y="-201" on="0"/>
        <pt x="476" y="-192" on="0"/>
        <pt x="469" y="-185" on="1"/>
        <pt x="446" y="-162" on="0"/>
        <pt x="406" y="-111" on="0"/>
        <pt x="389" y="-84" on="1"/>
        <pt x="372" y="-111" on="0"/>
        <pt x="334" y="-161" on="0"/>
        <pt x="311" y="-184" on="1"/>
        <pt x="303" y="-192" on="0"/>
        <pt x="300" y="-201" on="0"/>
        <pt x="300" y="-215" on="1"/>
        <pt x="300" y="-600" on="1"/>
        <pt x="257" y="-600" on="1"/>
      </contour>
    </TTGlyph>
    <TTGlyph name="arrowtp" xMin="111" yMin="-600" xMax="556" yMax="0">
      <contour>
        <pt x="312" y="-90" on="1"/>
        <pt x="298" y="-104" on="0"/>
        <pt x="261" y="-138" on="0"/>
        <pt x="211" y="-174" on="0"/>
        <pt x="149" y="-207" on="0"/>
        <pt x="111" y="-220" on="1"/>
        <pt x="111" y="-182" on="1"/>
        <pt x="177" y="-160" on="0"/>
        <pt x="295" y="-66" on="0"/>
        <pt x="334" y="0" on="1"/>
        <pt x="367" y="-59" on="0"/>
        <pt x="483" y="-158" on="0"/>
        <pt x="556" y="-182" on="1"/>
        <pt x="556" y="-220" on="1"/>
        <pt x="518" y="-207" on="0"/>
        <pt x="456" y="-174" on="0"/>
        <pt x="406" y="-138" on="0"/>
        <pt x="369" y="-104" on="0"/>
        <pt x="355" y="-90" on="1"/>
        <pt x="355" y="-600" on="1"/>
        <pt x="312" y="-600" on="1"/>
      </contour>
    </TTGlyph>
    <TTGlyph name="arrowvertex" xMin="312" yMin="-601" xMax="355" yMax="1">
      <contour>
        <pt x="312" y="1" on="1"/>
        <pt x="355" y="1" on="1"/>
        <pt x="355" y="-601" on="1"/>
        <pt x="312" y="-601" on="1"/>
      </contour>
    </TTGlyph>
    <TTGlyph name="arrowvertexdbl" xMin="257" yMin="-601" xMax="521" yMax="1">
      <contour>
        <pt x="257" y="1" on="1"/>
        <pt x="300" y="1" on="1"/>
        <pt x="300" y="-601" on="1"/>
        <pt x="257" y="-601" on="1"/>
      </contour>
      <contour>
        <pt x="478" y="1" on="1"/>
        <pt x="521" y="1" on="1"/>
        <pt x="521" y="-601" on="1"/>
        <pt x="478" y="-601" on="1"/>
      </contour>
    </TTGlyph>
    <TTGlyph name="backslashBig" xMin="56" yMin="-1759" xMax="754" yMax="40">
      <contour>
        <pt x="61" y="-4" on="1"/>
        <pt x="59" y="1" on="0"/>
        <pt x="56" y="11" on="0"/>
        <pt x="56" y="16" on="1"/>
        <pt x="56" y="27" on="0"/>
        <pt x="69" y="40" on="0"/>
        <pt x="80" y="40" on="1"/>
        <pt x="93" y="40" on="0"/>
        <pt x="103" y="24" on="0"/>
        <pt x="106" y="16" on="1"/>
        <pt x="749" y="-1715" on="1"/>
        <pt x="751" y="-1720" on="0"/>
        <pt x="754" y="-1730" on="0"/>
        <pt x="754" y="-1735" on="1"/>
        <pt x="754" y="-1746" on="0"/>
        <pt x="741" y="-1759" on="0"/>
        <pt x="730" y="-1759" on="1"/>
        <pt x="717" y="-1759" on="0"/>
        <pt x="707" y="-1743" on="0"/>
        <pt x="704" y="-1735" on="1"/>
      </contour>
    </TTGlyph>
    <TTGlyph name="backslashBigg" xMin="56" yMin="-2959" xMax="1221" yMax="40">
      <contour>
        <pt x="61" y="-10" on="1"/>
        <pt x="59" y="-5" on="0"/>
        <pt x="56" y="5" on="0"/>
        <pt x="56" y="10" on="1"/>
        <pt x="56" y="21" on="0"/>
        <pt x="73" y="40" on="0"/>
        <pt x="87" y="40" on="1"/>
        <pt x="102" y="40" on="0"/>
        <pt x="116" y="20" on="0"/>
        <pt x="119" y="11" on="1"/>
        <pt x="1216" y="-2909" on="1"/>
        <pt x="1218" y="-2914" on="0"/>
        <pt x="1221" y="-2924" on="0"/>
        <pt x="1221" y="-2929" on="1"/>
        <pt x="1221" y="-2940" on="0"/>
        <pt x="1204" y="-2959" on="0"/>
        <pt x="1190" y="-2959" on="1"/>
        <pt x="1175" y="-2959" on="0"/>
        <pt x="1161" y="-2939" on="0"/>
        <pt x="1158" y="-2930" on="1"/>
      </contour>
    </TTGlyph>
    <TTGlyph name="backslashbig" xMin="56" yMin="-1159" xMax="521" yMax="40">
      <contour>
        <pt x="62" y="-2" on="1"/>
        <pt x="57" y="10" on="0"/>
        <pt x="56" y="17" on="0"/>
        <pt x="56" y="19" on="1"/>
        <pt x="56" y="24" on="0"/>
        <pt x="66" y="40" on="0"/>
        <pt x="78" y="40" on="1"/>
        <pt x="89" y="40" on="0"/>
        <pt x="96" y="27" on="0"/>
        <pt x="101" y="15" on="1"/>
        <pt x="515" y="-1117" on="1"/>
        <pt x="520" y="-1129" on="0"/>
        <pt x="521" y="-1136" on="0"/>
        <pt x="521" y="-1138" on="1"/>
        <pt x="521" y="-1143" on="0"/>
        <pt x="511" y="-1159" on="0"/>
        <pt x="499" y="-1159" on="1"/>
        <pt x="488" y="-1159" on="0"/>
        <pt x="481" y="-1146" on="0"/>
        <pt x="476" y="-1134" on="1"/>
      </contour>
    </TTGlyph>
    <TTGlyph name="backslashbigg" xMin="56" yMin="-2359" xMax="987" yMax="40">
      <contour>
        <pt x="62" y="-6" on="1"/>
        <pt x="57" y="5" on="0"/>
        <pt x="56" y="11" on="0"/>
        <pt x="56" y="13" on="1"/>
        <pt x="56" y="24" on="0"/>
        <pt x="72" y="40" on="0"/>
        <pt x="83" y="40" on="1"/>
        <pt x="96" y="40" on="0"/>
        <pt x="108" y="24" on="0"/>
        <pt x="112" y="14" on="1"/>
        <pt x="981" y="-2313" on="1"/>
        <pt x="986" y="-2324" on="0"/>
        <pt x="987" y="-2330" on="0"/>
        <pt x="987" y="-2332" on="1"/>
        <pt x="987" y="-2343" on="0"/>
        <pt x="971" y="-2359" on="0"/>
        <pt x="960" y="-2359" on="1"/>
        <pt x="947" y="-2359" on="0"/>
        <pt x="935" y="-2343" on="0"/>
        <pt x="931" y="-2333" on="1"/>
      </contour>
    </TTGlyph>
    <TTGlyph name="braceex" xMin="384" yMin="-310" xMax="504" yMax="10">
      <contour>
        <pt x="504" y="-283" on="1"/>
        <pt x="504" y="-303" on="0"/>
        <pt x="496" y="-310" on="0"/>
        <pt x="476" y="-310" on="1"/>
        <pt x="412" y="-310" on="1"/>
        <pt x="392" y="-310" on="0"/>
        <pt x="384" y="-303" on="0"/>
        <pt x="384" y="-283" on="1"/>
        <pt x="384" y="-17" on="1"/>
        <pt x="384" y="3" on="0"/>
        <pt x="392" y="10" on="0"/>
        <pt x="412" y="10" on="1"/>
        <pt x="476" y="10" on="1"/>
        <pt x="496" y="10" on="0"/>
        <pt x="504" y="3" on="0"/>
        <pt x="504" y="-17" on="1"/>
      </contour>
    </TTGlyph>
    <TTGlyph name="bracehtipdownleft" xMin="-24" yMin="-214" xMax="460" yMax="120">
      <contour>
        <pt x="460" y="28" on="1"/>
        <pt x="460" y="12" on="0"/>
        <pt x="457" y="0" on="0"/>
        <pt x="448" y="0" on="1"/>
        <pt x="295" y="-3" on="0"/>
        <pt x="87" y="-107" on="0"/>
        <pt x="25" y="-206" on="1"/>
        <pt x="21" y="-211" on="0"/>
        <pt x="14" y="-214" on="0"/>
        <pt x="0" y="-214" on="1"/>
        <pt x="-17" y="-214" on="0"/>
        <pt x="-24" y="-207" on="0"/>
        <pt x="-24" y="-188" on="1"/>
        <pt x="-24" y="-172" on="1"/>
        <pt x="27" y="-81" on="0"/>
        <pt x="156" y="34" on="0"/>
        <pt x="285" y="97" on="0"/>
        <pt x="401" y="120" on="0"/>
        <pt x="439" y="120" on="1"/>
        <pt x="455" y="120" on="0"/>
        <pt x="460" y="112" on="0"/>
        <pt x="460" y="92" on="1"/>
      </contour>
    </TTGlyph>
    <TTGlyph name="bracehtipdownright" xMin="-10" yMin="-214" xMax="474" yMax="120">
      <contour>
        <pt x="474" y="-188" on="1"/>
        <pt x="474" y="-207" on="0"/>
        <pt x="467" y="-214" on="0"/>
        <pt x="450" y="-214" on="1"/>
        <pt x="440" y="-214" on="0"/>
        <pt x="430" y="-213" on="0"/>
        <pt x="428" y="-209" on="1"/>
        <pt x="392" y="-152" on="0"/>
        <pt x="299" y="-73" on="0"/>
        <pt x="191" y="-24" on="0"/>
        <pt x="69" y="-1" on="0"/>
        <pt x="4" y="0" on="1"/>
        <pt x="-7" y="0" on="0"/>
        <pt x="-10" y="11" on="0"/>
        <pt x="-10" y="28" on="1"/>
        <pt x="-10" y="92" on="1"/>
        <pt x="-10" y="112" on="0"/>
        <pt x="-5" y="120" on="0"/>
        <pt x="11" y="120" on="1"/>
        <pt x="49" y="120" on="0"/>
        <pt x="165" y="98" on="0"/>
        <pt x="294" y="34" on="0"/>
        <pt x="423" y="-80" on="0"/>
        <pt x="474" y="-172" on="1"/>
      </contour>
    </TTGlyph>
    <TTGlyph name="bracehtipupleft" xMin="-24" yMin="0" xMax="460" yMax="334">
      <contour>
        <pt x="460" y="28" on="1"/>
        <pt x="460" y="8" on="0"/>
        <pt x="455" y="0" on="0"/>
        <pt x="439" y="0" on="1"/>
        <pt x="401" y="0" on="0"/>
        <pt x="285" y="22" on="0"/>
        <pt x="156" y="86" on="0"/>
        <pt x="27" y="200" on="0"/>
        <pt x="-24" y="292" on="1"/>
        <pt x="-24" y="308" on="1"/>
        <pt x="-24" y="327" on="0"/>
        <pt x="-17" y="334" on="0"/>
        <pt x="0" y="334" on="1"/>
        <pt x="10" y="334" on="0"/>
        <pt x="20" y="333" on="0"/>
        <pt x="22" y="329" on="1"/>
        <pt x="58" y="272" on="0"/>
        <pt x="151" y="193" on="0"/>
        <pt x="259" y="144" on="0"/>
        <pt x="381" y="121" on="0"/>
        <pt x="446" y="120" on="1"/>
        <pt x="457" y="120" on="0"/>
        <pt x="460" y="109" on="0"/>
        <pt x="460" y="92" on="1"/>
      </contour>
    </TTGlyph>
    <TTGlyph name="bracehtipupright" xMin="-10" yMin="0" xMax="474" yMax="334">
      <contour>
        <pt x="474" y="292" on="1"/>
        <pt x="423" y="201" on="0"/>
        <pt x="294" y="86" on="0"/>
        <pt x="165" y="23" on="0"/>
        <pt x="49" y="0" on="0"/>
        <pt x="11" y="0" on="1"/>
        <pt x="-5" y="0" on="0"/>
        <pt x="-10" y="8" on="0"/>
        <pt x="-10" y="28" on="1"/>
        <pt x="-10" y="92" on="1"/>
        <pt x="-10" y="108" on="0"/>
        <pt x="-7" y="120" on="0"/>
        <pt x="2" y="120" on="1"/>
        <pt x="155" y="123" on="0"/>
        <pt x="363" y="227" on="0"/>
        <pt x="425" y="326" on="1"/>
        <pt x="429" y="331" on="0"/>
        <pt x="436" y="334" on="0"/>
        <pt x="450" y="334" on="1"/>
        <pt x="467" y="334" on="0"/>
        <pt x="474" y="327" on="0"/>
        <pt x="474" y="308" on="1"/>
      </contour>
    </TTGlyph>
    <TTGlyph name="braceleftBig" xMin="119" yMin="-1759" xMax="547" yMax="40">
      <contour>
        <pt x="371" y="-1486" on="1"/>
        <pt x="371" y="-1503" on="0"/>
        <pt x="371" y="-1546" on="0"/>
        <pt x="373" y="-1554" on="1"/>
        <pt x="379" y="-1589" on="0"/>
        <pt x="416" y="-1642" on="0"/>
        <pt x="464" y="-1682" on="0"/>
        <pt x="516" y="-1710" on="0"/>
        <pt x="538" y="-1719" on="1"/>
        <pt x="545" y="-1721" on="0"/>
        <pt x="547" y="-1728" on="0"/>
        <pt x="547" y="-1739" on="1"/>
        <pt x="547" y="-1753" on="0"/>
        <pt x="541" y="-1759" on="0"/>
        <pt x="527" y="-1759" on="1"/>
        <pt x="517" y="-1759" on="0"/>
        <pt x="490" y="-1750" on="0"/>
        <pt x="463" y="-1739" on="0"/>
        <pt x="442" y="-1728" on="0"/>
        <pt x="437" y="-1725" on="1"/>
        <pt x="401" y="-1706" on="0"/>
        <pt x="363" y="-1674" on="0"/>
        <pt x="346" y="-1657" on="1"/>
        <pt x="327" y="-1638" on="0"/>
        <pt x="306" y="-1596" on="0"/>
        <pt x="297" y="-1555" on="0"/>
        <pt x="295" y="-1516" on="0"/>
        <pt x="295" y="-1498" on="1"/>
        <pt x="295" y="-1082" on="1"/>
        <pt x="295" y="-1058" on="0"/>
        <pt x="276" y="-1005" on="0"/>
        <pt x="238" y="-952" on="0"/>
        <pt x="180" y="-903" on="0"/>
        <pt x="140" y="-885" on="1"/>
        <pt x="125" y="-878" on="0"/>
        <pt x="119" y="-871" on="0"/>
        <pt x="119" y="-859" on="1"/>
        <pt x="119" y="-848" on="0"/>
        <pt x="123" y="-842" on="0"/>
        <pt x="133" y="-837" on="1"/>
        <pt x="185" y="-812" on="0"/>
        <pt x="234" y="-770" on="0"/>
        <pt x="243" y="-759" on="1"/>
        <pt x="263" y="-736" on="0"/>
        <pt x="284" y="-698" on="0"/>
        <pt x="293" y="-657" on="0"/>
        <pt x="295" y="-609" on="0"/>
        <pt x="295" y="-576" on="1"/>
        <pt x="295" y="-420" on="1"/>
        <pt x="295" y="-360" on="0"/>
        <pt x="294" y="-239" on="0"/>
        <pt x="295" y="-179" on="1"/>
        <pt x="295" y="-154" on="0"/>
        <pt x="313" y="-108" on="0"/>
        <pt x="340" y="-69" on="0"/>
        <pt x="370" y="-38" on="0"/>
        <pt x="383" y="-28" on="1"/>
        <pt x="398" y="-16" on="0"/>
        <pt x="439" y="8" on="0"/>
        <pt x="480" y="27" on="0"/>
        <pt x="516" y="40" on="0"/>
        <pt x="527" y="40" on="1"/>
        <pt x="541" y="40" on="0"/>
        <pt x="547" y="34" on="0"/>
        <pt x="547" y="20" on="1"/>
        <pt x="547" y="9" on="0"/>
        <pt x="542" y="2" on="0"/>
        <pt x="531" y="-3" on="1"/>
        <pt x="460" y="-33" on="0"/>
        <pt x="371" y="-126" on="0"/>
        <pt x="371" y="-189" on="1"/>
        <pt x="371" y="-639" on="1"/>
        <pt x="371" y="-643" on="0"/>
        <pt x="368" y="-665" on="0"/>
        <pt x="366" y="-674" on="1"/>
        <pt x="352" y="-727" on="0"/>
        <pt x="263" y="-823" on="0"/>
        <pt x="176" y="-860" on="1"/>
        <pt x="201" y="-870" on="0"/>
        <pt x="256" y="-900" on="0"/>
        <pt x="307" y="-942" on="0"/>
        <pt x="349" y="-996" on="0"/>
        <pt x="361" y="-1030" on="1"/>
        <pt x="365" y="-1041" on="0"/>
        <pt x="369" y="-1058" on="0"/>
        <pt x="371" y="-1081" on="0"/>
        <pt x="371" y="-1112" on="0"/>
        <pt x="371" y="-1136" on="1"/>
      </contour>
    </TTGlyph>
    <TTGlyph name="braceleftBigg" xMin="144" yMin="-2959" xMax="661" yMax="40">
      <contour>
        <pt x="451" y="-2594" on="1"/>
        <pt x="451" y="-2604" on="0"/>
        <pt x="452" y="-2615" on="0"/>
        <pt x="455" y="-2635" on="1"/>
        <pt x="465" y="-2700" on="0"/>
        <pt x="518" y="-2796" on="0"/>
        <pt x="581" y="-2864" on="0"/>
        <pt x="640" y="-2905" on="0"/>
        <pt x="656" y="-2915" on="1"/>
        <pt x="659" y="-2917" on="0"/>
        <pt x="661" y="-2922" on="0"/>
        <pt x="661" y="-2936" on="1"/>
        <pt x="661" y="-2953" on="0"/>
        <pt x="655" y="-2959" on="0"/>
        <pt x="638" y="-2959" on="1"/>
        <pt x="626" y="-2959" on="0"/>
        <pt x="614" y="-2956" on="0"/>
        <pt x="597" y="-2946" on="1"/>
        <pt x="525" y="-2908" on="0"/>
        <pt x="431" y="-2811" on="0"/>
        <pt x="376" y="-2714" on="0"/>
        <pt x="354" y="-2625" on="0"/>
        <pt x="354" y="-2595" on="1"/>
        <pt x="354" y="-1827" on="1"/>
        <pt x="354" y="-1818" on="0"/>
        <pt x="353" y="-1808" on="0"/>
        <pt x="351" y="-1791" on="1"/>
        <pt x="343" y="-1730" on="0"/>
        <pt x="303" y="-1634" on="0"/>
        <pt x="249" y="-1560" on="0"/>
        <pt x="185" y="-1504" on="0"/>
        <pt x="153" y="-1483" on="1"/>
        <pt x="147" y="-1479" on="0"/>
        <pt x="144" y="-1473" on="0"/>
        <pt x="144" y="-1459" on="1"/>
        <pt x="144" y="-1446" on="0"/>
        <pt x="148" y="-1439" on="0"/>
        <pt x="159" y="-1432" on="1"/>
        <pt x="191" y="-1410" on="0"/>
        <pt x="267" y="-1342" on="0"/>
        <pt x="302" y="-1280" on="1"/>
        <pt x="322" y="-1246" on="0"/>
        <pt x="343" y="-1181" on="0"/>
        <pt x="352" y="-1119" on="0"/>
        <pt x="354" y="-1062" on="0"/>
        <pt x="354" y="-1035" on="1"/>
        <pt x="354" y="-324" on="1"/>
        <pt x="354" y="-311" on="0"/>
        <pt x="365" y="-235" on="0"/>
        <pt x="412" y="-134" on="0"/>
        <pt x="507" y="-24" on="0"/>
        <pt x="591" y="24" on="1"/>
        <pt x="611" y="36" on="0"/>
        <pt x="625" y="40" on="0"/>
        <pt x="638" y="40" on="1"/>
        <pt x="655" y="40" on="0"/>
        <pt x="661" y="34" on="0"/>
        <pt x="661" y="17" on="1"/>
        <pt x="661" y="3" on="0"/>
        <pt x="658" y="-3" on="0"/>
        <pt x="652" y="-7" on="1"/>
        <pt x="604" y="-35" on="0"/>
        <pt x="537" y="-99" on="0"/>
        <pt x="492" y="-165" on="0"/>
        <pt x="466" y="-231" on="0"/>
        <pt x="459" y="-261" on="1"/>
        <pt x="456" y="-275" on="0"/>
        <pt x="453" y="-299" on="0"/>
        <pt x="451" y="-328" on="0"/>
        <pt x="451" y="-368" on="0"/>
        <pt x="451" y="-399" on="1"/>
        <pt x="451" y="-1092" on="1"/>
        <pt x="450" y="-1098" on="1"/>
        <pt x="446" y="-1168" on="0"/>
        <pt x="397" y="-1282" on="0"/>
        <pt x="326" y="-1372" on="0"/>
        <pt x="242" y="-1438" on="0"/>
        <pt x="201" y="-1460" on="1"/>
        <pt x="266" y="-1493" on="0"/>
        <pt x="361" y="-1585" on="0"/>
        <pt x="422" y="-1686" on="0"/>
        <pt x="451" y="-1786" on="0"/>
        <pt x="451" y="-1827" on="1"/>
      </contour>
    </TTGlyph>
    <TTGlyph name="braceleftbig" xMin="113" yMin="-1159" xMax="469" yMax="40">
      <contour>
        <pt x="257" y="-140" on="1"/>
        <pt x="257" y="-124" on="0"/>
        <pt x="258" y="-103" on="0"/>
        <pt x="261" y="-86" on="0"/>
        <pt x="267" y="-69" on="0"/>
        <pt x="273" y="-58" on="1"/>
        <pt x="286" y="-33" on="0"/>
        <pt x="345" y="4" on="0"/>
        <pt x="405" y="28" on="0"/>
        <pt x="453" y="40" on="0"/>
        <pt x="456" y="40" on="1"/>
        <pt x="469" y="40" on="0"/>
        <pt x="469" y="27" on="1"/>
        <pt x="469" y="25" on="0"/>
        <pt x="467" y="18" on="0"/>
        <pt x="462" y="16" on="1"/>
        <pt x="411" y="-3" on="0"/>
        <pt x="356" y="-41" on="0"/>
        <pt x="330" y="-80" on="0"/>
        <pt x="326" y="-120" on="0"/>
        <pt x="326" y="-141" on="1"/>
        <pt x="326" y="-386" on="1"/>
        <pt x="326" y="-407" on="0"/>
        <pt x="321" y="-453" on="0"/>
        <pt x="290" y="-498" on="0"/>
        <pt x="224" y="-541" on="0"/>
        <pt x="163" y="-560" on="1"/>
        <pt x="224" y="-578" on="0"/>
        <pt x="290" y="-621" on="0"/>
        <pt x="321" y="-667" on="0"/>
        <pt x="326" y="-713" on="0"/>
        <pt x="326" y="-732" on="1"/>
        <pt x="326" y="-977" on="1"/>
        <pt x="326" y="-991" on="0"/>
        <pt x="326" y="-1007" on="0"/>
        <pt x="327" y="-1017" on="0"/>
        <pt x="328" y="-1024" on="0"/>
        <pt x="329" y="-1028" on="1"/>
        <pt x="335" y="-1051" on="0"/>
        <pt x="367" y="-1086" on="0"/>
        <pt x="404" y="-1111" on="0"/>
        <pt x="441" y="-1127" on="0"/>
        <pt x="452" y="-1131" on="1"/>
        <pt x="463" y="-1135" on="0"/>
        <pt x="469" y="-1139" on="0"/>
        <pt x="469" y="-1146" on="1"/>
        <pt x="469" y="-1159" on="0"/>
        <pt x="456" y="-1159" on="1"/>
        <pt x="453" y="-1159" on="0"/>
        <pt x="422" y="-1151" on="0"/>
        <pt x="381" y="-1137" on="0"/>
        <pt x="335" y="-1117" on="0"/>
        <pt x="317" y="-1105" on="1"/>
        <pt x="284" y="-1082" on="0"/>
        <pt x="258" y="-1031" on="0"/>
        <pt x="257" y="-1011" on="1"/>
        <pt x="257" y="-735" on="1"/>
        <pt x="257" y="-714" on="0"/>
        <pt x="253" y="-673" on="0"/>
        <pt x="228" y="-632" on="0"/>
        <pt x="173" y="-593" on="0"/>
        <pt x="123" y="-573" on="1"/>
        <pt x="113" y="-569" on="0"/>
        <pt x="113" y="-559" on="1"/>
        <pt x="113" y="-550" on="0"/>
        <pt x="121" y="-547" on="1"/>
        <pt x="159" y="-532" on="0"/>
        <pt x="211" y="-502" on="0"/>
        <pt x="243" y="-467" on="0"/>
        <pt x="257" y="-425" on="0"/>
        <pt x="257" y="-399" on="1"/>
      </contour>
    </TTGlyph>
    <TTGlyph name="braceleftbigg" xMin="131" yMin="-2359" xMax="618" yMax="40">
      <contour>
        <pt x="416" y="-2001" on="1"/>
        <pt x="416" y="-2024" on="0"/>
        <pt x="416" y="-2052" on="0"/>
        <pt x="416" y="-2070" on="0"/>
        <pt x="417" y="-2081" on="0"/>
        <pt x="418" y="-2086" on="1"/>
        <pt x="426" y="-2140" on="0"/>
        <pt x="476" y="-2219" on="0"/>
        <pt x="536" y="-2275" on="0"/>
        <pt x="594" y="-2308" on="0"/>
        <pt x="609" y="-2315" on="1"/>
        <pt x="615" y="-2319" on="0"/>
        <pt x="618" y="-2325" on="0"/>
        <pt x="618" y="-2337" on="1"/>
        <pt x="618" y="-2354" on="0"/>
        <pt x="612" y="-2359" on="0"/>
        <pt x="596" y="-2359" on="1"/>
        <pt x="590" y="-2359" on="0"/>
        <pt x="583" y="-2359" on="0"/>
        <pt x="575" y="-2357" on="0"/>
        <pt x="565" y="-2352" on="0"/>
        <pt x="557" y="-2348" on="1"/>
        <pt x="511" y="-2326" on="0"/>
        <pt x="429" y="-2268" on="0"/>
        <pt x="368" y="-2194" on="0"/>
        <pt x="333" y="-2103" on="0"/>
        <pt x="333" y="-2049" on="1"/>
        <pt x="333" y="-1455" on="1"/>
        <pt x="333" y="-1447" on="0"/>
        <pt x="332" y="-1436" on="0"/>
        <pt x="329" y="-1419" on="1"/>
        <pt x="322" y="-1372" on="0"/>
        <pt x="281" y="-1298" on="0"/>
        <pt x="229" y="-1240" on="0"/>
        <pt x="171" y="-1199" on="0"/>
        <pt x="146" y="-1185" on="1"/>
        <pt x="135" y="-1179" on="0"/>
        <pt x="131" y="-1172" on="0"/>
        <pt x="131" y="-1159" on="1"/>
        <pt x="131" y="-1147" on="0"/>
        <pt x="136" y="-1140" on="0"/>
        <pt x="148" y="-1133" on="1"/>
        <pt x="234" y="-1085" on="0"/>
        <pt x="325" y="-953" on="0"/>
        <pt x="332" y="-874" on="1"/>
        <pt x="332" y="-870" on="0"/>
        <pt x="333" y="-848" on="0"/>
        <pt x="333" y="-821" on="0"/>
        <pt x="333" y="-792" on="0"/>
        <pt x="333" y="-780" on="1"/>
        <pt x="333" y="-318" on="1"/>
        <pt x="333" y="-293" on="0"/>
        <pt x="333" y="-262" on="0"/>
        <pt x="334" y="-243" on="0"/>
        <pt x="335" y="-230" on="0"/>
        <pt x="336" y="-222" on="1"/>
        <pt x="344" y="-176" on="0"/>
        <pt x="386" y="-100" on="0"/>
        <pt x="445" y="-39" on="0"/>
        <pt x="517" y="10" on="0"/>
        <pt x="554" y="28" on="1"/>
        <pt x="564" y="33" on="0"/>
        <pt x="575" y="37" on="0"/>
        <pt x="584" y="40" on="0"/>
        <pt x="591" y="40" on="0"/>
        <pt x="596" y="40" on="1"/>
        <pt x="613" y="40" on="0"/>
        <pt x="618" y="34" on="0"/>
        <pt x="618" y="18" on="1"/>
        <pt x="618" y="7" on="0"/>
        <pt x="616" y="0" on="0"/>
        <pt x="610" y="-3" on="1"/>
        <pt x="537" y="-39" on="0"/>
        <pt x="458" y="-120" on="0"/>
        <pt x="422" y="-198" on="0"/>
        <pt x="416" y="-266" on="0"/>
        <pt x="416" y="-289" on="1"/>
        <pt x="416" y="-865" on="1"/>
        <pt x="416" y="-886" on="0"/>
        <pt x="400" y="-957" on="0"/>
        <pt x="351" y="-1040" on="0"/>
        <pt x="261" y="-1125" on="0"/>
        <pt x="188" y="-1160" on="1"/>
        <pt x="240" y="-1183" on="0"/>
        <pt x="324" y="-1249" on="0"/>
        <pt x="353" y="-1287" on="1"/>
        <pt x="377" y="-1317" on="0"/>
        <pt x="402" y="-1375" on="0"/>
        <pt x="414" y="-1427" on="0"/>
        <pt x="416" y="-1471" on="0"/>
        <pt x="416" y="-1489" on="1"/>
      </contour>
    </TTGlyph>
    <TTGlyph name="braceleftbt" xMin="384" yMin="-899" xMax="718" yMax="10">
      <contour>
        <pt x="676" y="-899" on="1"/>
        <pt x="595" y="-856" on="0"/>
        <pt x="484" y="-745" on="0"/>
        <pt x="415" y="-625" on="0"/>
        <pt x="384" y="-503" on="0"/>
        <pt x="384" y="-447" on="1"/>
        <pt x="384" y="-17" on="1"/>
        <pt x="384" y="3" on="0"/>
        <pt x="392" y="10" on="0"/>
        <pt x="412" y="10" on="1"/>
        <pt x="476" y="10" on="1"/>
        <pt x="496" y="10" on="0"/>
        <pt x="504" y="3" on="0"/>
        <pt x="504" y="-17" on="1"/>
        <pt x="504" y="-447" on="1"/>
        <pt x="504" y="-513" on="0"/>
        <pt x="534" y="-630" on="0"/>
        <pt x="563" y="-687" on="1"/>
        <pt x="581" y="-722" on="0"/>
        <pt x="623" y="-776" on="0"/>
        <pt x="665" y="-816" on="0"/>
        <pt x="701" y="-844" on="0"/>
        <pt x="713" y="-853" on="1"/>
        <pt x="716" y="-855" on="0"/>
        <pt x="718" y="-861" on="0"/>
        <pt x="718" y="-875" on="1"/>
        <pt x="718" y="-892" on="0"/>
        <pt x="711" y="-899" on="0"/>
        <pt x="692" y="-899" on="1"/>
      </contour>
    </TTGlyph>
    <TTGlyph name="braceleftmid" xMin="170" yMin="-1810" xMax="504" yMax="10">
      <contour>
        <pt x="384" y="-1360" on="1"/>
        <pt x="384" y="-1297" on="0"/>
        <pt x="359" y="-1176" on="0"/>
        <pt x="308" y="-1065" on="0"/>
        <pt x="233" y="-967" on="0"/>
        <pt x="182" y="-928" on="1"/>
        <pt x="174" y="-921" on="0"/>
        <pt x="170" y="-914" on="0"/>
        <pt x="170" y="-900" on="1"/>
        <pt x="170" y="-886" on="0"/>
        <pt x="174" y="-879" on="0"/>
        <pt x="182" y="-872" on="1"/>
        <pt x="251" y="-820" on="0"/>
        <pt x="331" y="-695" on="0"/>
        <pt x="373" y="-575" on="0"/>
        <pt x="384" y="-472" on="0"/>
        <pt x="384" y="-440" on="1"/>
        <pt x="384" y="-17" on="1"/>
        <pt x="384" y="3" on="0"/>
        <pt x="392" y="10" on="0"/>
        <pt x="412" y="10" on="1"/>
        <pt x="476" y="10" on="1"/>
        <pt x="496" y="10" on="0"/>
        <pt x="504" y="3" on="0"/>
        <pt x="504" y="-17" on="1"/>
        <pt x="504" y="-439" on="1"/>
        <pt x="504" y="-483" on="0"/>
        <pt x="482" y="-600" on="0"/>
        <pt x="421" y="-725" on="0"/>
        <pt x="314" y="-849" on="0"/>
        <pt x="229" y="-900" on="1"/>
        <pt x="313" y="-951" on="0"/>
        <pt x="420" y="-1074" on="0"/>
        <pt x="481" y="-1198" on="0"/>
        <pt x="504" y="-1316" on="0"/>
        <pt x="504" y="-1361" on="1"/>
        <pt x="504" y="-1783" on="1"/>
        <pt x="504" y="-1803" on="0"/>
        <pt x="496" y="-1810" on="0"/>
        <pt x="476" y="-1810" on="1"/>
        <pt x="412" y="-1810" on="1"/>
        <pt x="392" y="-1810" on="0"/>
        <pt x="384" y="-1803" on="0"/>
        <pt x="384" y="-1783" on="1"/>
      </contour>
    </TTGlyph>
    <TTGlyph name="bracelefttp" xMin="384" yMin="-910" xMax="718" yMax="-1">
      <contour>
        <pt x="504" y="-883" on="1"/>
        <pt x="504" y="-903" on="0"/>
        <pt x="496" y="-910" on="0"/>
        <pt x="476" y="-910" on="1"/>
        <pt x="412" y="-910" on="1"/>
        <pt x="392" y="-910" on="0"/>
        <pt x="384" y="-903" on="0"/>
        <pt x="384" y="-883" on="1"/>
        <pt x="384" y="-453" on="1"/>
        <pt x="384" y="-398" on="0"/>
        <pt x="415" y="-275" on="0"/>
        <pt x="484" y="-155" on="0"/>
        <pt x="595" y="-45" on="0"/>
        <pt x="676" y="-1" on="1"/>
        <pt x="692" y="-1" on="1"/>
        <pt x="711" y="-1" on="0"/>
        <pt x="718" y="-8" on="0"/>
        <pt x="718" y="-25" on="1"/>
        <pt x="718" y="-39" on="0"/>
        <pt x="714" y="-46" on="0"/>
        <pt x="704" y="-54" on="1"/>
        <pt x="637" y="-101" on="0"/>
        <pt x="558" y="-215" on="0"/>
        <pt x="516" y="-325" on="0"/>
        <pt x="504" y="-422" on="0"/>
        <pt x="504" y="-453" on="1"/>
      </contour>
    </TTGlyph>
    <TTGlyph name="bracerightBig" xMin="119" yMin="-1759" xMax="547" yMax="40">
      <contour>
        <pt x="371" y="-1299" on="1"/>
        <pt x="371" y="-1359" on="0"/>
        <pt x="372" y="-1480" on="0"/>
        <pt x="371" y="-1540" on="1"/>
        <pt x="371" y="-1566" on="0"/>
        <pt x="353" y="-1611" on="0"/>
        <pt x="326" y="-1650" on="0"/>
        <pt x="296" y="-1681" on="0"/>
        <pt x="283" y="-1691" on="1"/>
        <pt x="267" y="-1703" on="0"/>
        <pt x="226" y="-1727" on="0"/>
        <pt x="186" y="-1747" on="0"/>
        <pt x="150" y="-1759" on="0"/>
        <pt x="140" y="-1759" on="1"/>
        <pt x="126" y="-1759" on="0"/>
        <pt x="119" y="-1753" on="0"/>
        <pt x="119" y="-1739" on="1"/>
        <pt x="119" y="-1728" on="0"/>
        <pt x="124" y="-1721" on="0"/>
        <pt x="135" y="-1716" on="1"/>
        <pt x="208" y="-1684" on="0"/>
        <pt x="295" y="-1591" on="0"/>
        <pt x="295" y="-1530" on="1"/>
        <pt x="295" y="-1080" on="1"/>
        <pt x="295" y="-1076" on="0"/>
        <pt x="298" y="-1054" on="0"/>
        <pt x="300" y="-1045" on="1"/>
        <pt x="314" y="-992" on="0"/>
        <pt x="403" y="-896" on="0"/>
        <pt x="490" y="-859" on="1"/>
        <pt x="465" y="-849" on="0"/>
        <pt x="410" y="-819" on="0"/>
        <pt x="359" y="-777" on="0"/>
        <pt x="317" y="-723" on="0"/>
        <pt x="305" y="-689" on="1"/>
        <pt x="301" y="-679" on="0"/>
        <pt x="297" y="-661" on="0"/>
        <pt x="295" y="-638" on="0"/>
        <pt x="295" y="-607" on="0"/>
        <pt x="295" y="-583" on="1"/>
        <pt x="295" y="-233" on="1"/>
        <pt x="295" y="-216" on="0"/>
        <pt x="295" y="-173" on="0"/>
        <pt x="293" y="-165" on="1"/>
        <pt x="286" y="-126" on="0"/>
        <pt x="244" y="-70" on="0"/>
        <pt x="193" y="-31" on="0"/>
        <pt x="143" y="-7" on="0"/>
        <pt x="128" y="-1" on="1"/>
        <pt x="121" y="2" on="0"/>
        <pt x="119" y="10" on="0"/>
        <pt x="119" y="20" on="1"/>
        <pt x="119" y="34" on="0"/>
        <pt x="126" y="40" on="0"/>
        <pt x="140" y="40" on="1"/>
        <pt x="150" y="40" on="0"/>
        <pt x="177" y="31" on="0"/>
        <pt x="204" y="19" on="0"/>
        <pt x="225" y="8" on="0"/>
        <pt x="229" y="6" on="1"/>
        <pt x="265" y="-13" on="0"/>
        <pt x="303" y="-45" on="0"/>
        <pt x="320" y="-62" on="1"/>
        <pt x="339" y="-82" on="0"/>
        <pt x="360" y="-123" on="0"/>
        <pt x="369" y="-164" on="0"/>
        <pt x="371" y="-203" on="0"/>
        <pt x="371" y="-221" on="1"/>
        <pt x="371" y="-637" on="1"/>
        <pt x="371" y="-661" on="0"/>
        <pt x="390" y="-715" on="0"/>
        <pt x="428" y="-767" on="0"/>
        <pt x="487" y="-816" on="0"/>
        <pt x="526" y="-834" on="1"/>
        <pt x="539" y="-840" on="0"/>
        <pt x="544" y="-842" on="0"/>
        <pt x="545" y="-843" on="1"/>
        <pt x="547" y="-846" on="0"/>
        <pt x="547" y="-852" on="0"/>
        <pt x="547" y="-860" on="1"/>
        <pt x="547" y="-871" on="0"/>
        <pt x="543" y="-877" on="0"/>
        <pt x="533" y="-882" on="1"/>
        <pt x="482" y="-906" on="0"/>
        <pt x="431" y="-951" on="0"/>
        <pt x="423" y="-960" on="1"/>
        <pt x="404" y="-983" on="0"/>
        <pt x="382" y="-1022" on="0"/>
        <pt x="373" y="-1062" on="0"/>
        <pt x="371" y="-1110" on="0"/>
        <pt x="371" y="-1143" on="1"/>
      </contour>
    </TTGlyph>
    <TTGlyph name="bracerightBigg" xMin="144" yMin="-2959" xMax="661" yMax="40">
      <contour>
        <pt x="354" y="-1827" on="1"/>
        <pt x="355" y="-1821" on="1"/>
        <pt x="360" y="-1751" on="0"/>
        <pt x="408" y="-1637" on="0"/>
        <pt x="479" y="-1547" on="0"/>
        <pt x="564" y="-1481" on="0"/>
        <pt x="604" y="-1459" on="1"/>
        <pt x="539" y="-1426" on="0"/>
        <pt x="444" y="-1334" on="0"/>
        <pt x="383" y="-1234" on="0"/>
        <pt x="354" y="-1133" on="0"/>
        <pt x="354" y="-1092" on="1"/>
        <pt x="354" y="-325" on="1"/>
        <pt x="354" y="-310" on="0"/>
        <pt x="344" y="-239" on="0"/>
        <pt x="304" y="-148" on="0"/>
        <pt x="222" y="-48" on="0"/>
        <pt x="151" y="-6" on="1"/>
        <pt x="146" y="-3" on="0"/>
        <pt x="144" y="5" on="0"/>
        <pt x="144" y="17" on="1"/>
        <pt x="144" y="34" on="0"/>
        <pt x="151" y="40" on="0"/>
        <pt x="168" y="40" on="1"/>
        <pt x="179" y="40" on="0"/>
        <pt x="191" y="37" on="0"/>
        <pt x="208" y="27" on="1"/>
        <pt x="280" y="-11" on="0"/>
        <pt x="374" y="-108" on="0"/>
        <pt x="429" y="-205" on="0"/>
        <pt x="451" y="-294" on="0"/>
        <pt x="451" y="-324" on="1"/>
        <pt x="451" y="-1092" on="1"/>
        <pt x="451" y="-1101" on="0"/>
        <pt x="452" y="-1111" on="0"/>
        <pt x="454" y="-1128" on="1"/>
        <pt x="464" y="-1202" on="0"/>
        <pt x="516" y="-1309" on="0"/>
        <pt x="579" y="-1382" on="0"/>
        <pt x="639" y="-1427" on="0"/>
        <pt x="657" y="-1438" on="1"/>
        <pt x="661" y="-1441" on="0"/>
        <pt x="661" y="-1459" on="1"/>
        <pt x="661" y="-1473" on="0"/>
        <pt x="657" y="-1480" on="0"/>
        <pt x="646" y="-1487" on="1"/>
        <pt x="610" y="-1511" on="0"/>
        <pt x="536" y="-1580" on="0"/>
        <pt x="503" y="-1639" on="1"/>
        <pt x="484" y="-1674" on="0"/>
        <pt x="462" y="-1738" on="0"/>
        <pt x="453" y="-1800" on="0"/>
        <pt x="451" y="-1857" on="0"/>
        <pt x="451" y="-1884" on="1"/>
        <pt x="451" y="-2595" on="1"/>
        <pt x="451" y="-2608" on="0"/>
        <pt x="440" y="-2684" on="0"/>
        <pt x="393" y="-2785" on="0"/>
        <pt x="298" y="-2895" on="0"/>
        <pt x="214" y="-2943" on="1"/>
        <pt x="204" y="-2949" on="0"/>
        <pt x="192" y="-2956" on="0"/>
        <pt x="183" y="-2959" on="0"/>
        <pt x="174" y="-2959" on="0"/>
        <pt x="168" y="-2959" on="1"/>
        <pt x="151" y="-2959" on="0"/>
        <pt x="144" y="-2953" on="0"/>
        <pt x="144" y="-2936" on="1"/>
        <pt x="144" y="-2922" on="0"/>
        <pt x="147" y="-2916" on="0"/>
        <pt x="153" y="-2912" on="1"/>
        <pt x="201" y="-2884" on="0"/>
        <pt x="268" y="-2820" on="0"/>
        <pt x="313" y="-2754" on="0"/>
        <pt x="339" y="-2688" on="0"/>
        <pt x="346" y="-2658" on="1"/>
        <pt x="349" y="-2644" on="0"/>
        <pt x="352" y="-2620" on="0"/>
        <pt x="354" y="-2591" on="0"/>
        <pt x="354" y="-2551" on="0"/>
        <pt x="354" y="-2520" on="1"/>
      </contour>
    </TTGlyph>
    <TTGlyph name="bracerightbig" xMin="113" yMin="-1159" xMax="469" yMax="40">
      <contour>
        <pt x="326" y="-979" on="1"/>
        <pt x="326" y="-1008" on="0"/>
        <pt x="321" y="-1046" on="0"/>
        <pt x="306" y="-1068" on="1"/>
        <pt x="288" y="-1093" on="0"/>
        <pt x="228" y="-1127" on="0"/>
        <pt x="170" y="-1149" on="0"/>
        <pt x="126" y="-1159" on="0"/>
        <pt x="126" y="-1159" on="1"/>
        <pt x="113" y="-1159" on="0"/>
        <pt x="113" y="-1146" on="1"/>
        <pt x="113" y="-1139" on="0"/>
        <pt x="120" y="-1135" on="0"/>
        <pt x="129" y="-1131" on="1"/>
        <pt x="177" y="-1113" on="0"/>
        <pt x="229" y="-1075" on="0"/>
        <pt x="253" y="-1037" on="0"/>
        <pt x="257" y="-998" on="0"/>
        <pt x="257" y="-978" on="1"/>
        <pt x="257" y="-733" on="1"/>
        <pt x="257" y="-710" on="0"/>
        <pt x="262" y="-665" on="0"/>
        <pt x="292" y="-621" on="0"/>
        <pt x="358" y="-579" on="0"/>
        <pt x="419" y="-559" on="1"/>
        <pt x="358" y="-541" on="0"/>
        <pt x="292" y="-498" on="0"/>
        <pt x="262" y="-453" on="0"/>
        <pt x="257" y="-408" on="0"/>
        <pt x="257" y="-387" on="1"/>
        <pt x="257" y="-142" on="1"/>
        <pt x="257" y="-121" on="0"/>
        <pt x="253" y="-81" on="0"/>
        <pt x="228" y="-42" on="0"/>
        <pt x="175" y="-5" on="0"/>
        <pt x="125" y="14" on="1"/>
        <pt x="120" y="16" on="0"/>
        <pt x="113" y="20" on="0"/>
        <pt x="113" y="27" on="1"/>
        <pt x="113" y="40" on="0"/>
        <pt x="126" y="40" on="1"/>
        <pt x="130" y="40" on="0"/>
        <pt x="162" y="32" on="0"/>
        <pt x="204" y="18" on="0"/>
        <pt x="248" y="-1" on="0"/>
        <pt x="264" y="-12" on="1"/>
        <pt x="270" y="-16" on="0"/>
        <pt x="290" y="-32" on="0"/>
        <pt x="310" y="-56" on="0"/>
        <pt x="325" y="-88" on="0"/>
        <pt x="326" y="-108" on="1"/>
        <pt x="326" y="-384" on="1"/>
        <pt x="326" y="-405" on="0"/>
        <pt x="330" y="-447" on="0"/>
        <pt x="356" y="-488" on="0"/>
        <pt x="411" y="-528" on="0"/>
        <pt x="462" y="-548" on="1"/>
        <pt x="467" y="-550" on="0"/>
        <pt x="469" y="-557" on="0"/>
        <pt x="469" y="-559" on="1"/>
        <pt x="469" y="-567" on="0"/>
        <pt x="464" y="-570" on="0"/>
        <pt x="454" y="-574" on="1"/>
        <pt x="406" y="-593" on="0"/>
        <pt x="354" y="-634" on="0"/>
        <pt x="330" y="-673" on="0"/>
        <pt x="326" y="-708" on="0"/>
        <pt x="326" y="-720" on="1"/>
      </contour>
    </TTGlyph>
    <TTGlyph name="bracerightbigg" xMin="131" yMin="-2359" xMax="618" yMax="40">
      <contour>
        <pt x="416" y="-2001" on="1"/>
        <pt x="416" y="-2026" on="0"/>
        <pt x="416" y="-2057" on="0"/>
        <pt x="415" y="-2076" on="0"/>
        <pt x="414" y="-2090" on="0"/>
        <pt x="413" y="-2097" on="1"/>
        <pt x="405" y="-2143" on="0"/>
        <pt x="363" y="-2219" on="0"/>
        <pt x="304" y="-2280" on="0"/>
        <pt x="232" y="-2329" on="0"/>
        <pt x="195" y="-2347" on="1"/>
        <pt x="185" y="-2352" on="0"/>
        <pt x="174" y="-2356" on="0"/>
        <pt x="165" y="-2359" on="0"/>
        <pt x="158" y="-2359" on="0"/>
        <pt x="153" y="-2359" on="1"/>
        <pt x="137" y="-2359" on="0"/>
        <pt x="131" y="-2353" on="0"/>
        <pt x="131" y="-2337" on="1"/>
        <pt x="131" y="-2327" on="0"/>
        <pt x="133" y="-2319" on="0"/>
        <pt x="138" y="-2316" on="1"/>
        <pt x="170" y="-2300" on="0"/>
        <pt x="241" y="-2255" on="0"/>
        <pt x="275" y="-2213" on="1"/>
        <pt x="297" y="-2186" on="0"/>
        <pt x="320" y="-2136" on="0"/>
        <pt x="331" y="-2091" on="0"/>
        <pt x="333" y="-2050" on="0"/>
        <pt x="333" y="-2030" on="1"/>
        <pt x="333" y="-1454" on="1"/>
        <pt x="333" y="-1433" on="0"/>
        <pt x="349" y="-1362" on="0"/>
        <pt x="398" y="-1279" on="0"/>
        <pt x="488" y="-1194" on="0"/>
        <pt x="561" y="-1159" on="1"/>
        <pt x="509" y="-1136" on="0"/>
        <pt x="425" y="-1070" on="0"/>
        <pt x="396" y="-1032" on="1"/>
        <pt x="372" y="-1002" on="0"/>
        <pt x="347" y="-944" on="0"/>
        <pt x="335" y="-892" on="0"/>
        <pt x="333" y="-848" on="0"/>
        <pt x="333" y="-830" on="1"/>
        <pt x="333" y="-318" on="1"/>
        <pt x="333" y="-296" on="0"/>
        <pt x="333" y="-267" on="0"/>
        <pt x="333" y="-249" on="0"/>
        <pt x="332" y="-238" on="0"/>
        <pt x="331" y="-233" on="1"/>
        <pt x="324" y="-179" on="0"/>
        <pt x="274" y="-100" on="0"/>
        <pt x="214" y="-45" on="0"/>
        <pt x="156" y="-12" on="0"/>
        <pt x="140" y="-4" on="1"/>
        <pt x="133" y="0" on="0"/>
        <pt x="131" y="7" on="0"/>
        <pt x="131" y="18" on="1"/>
        <pt x="131" y="34" on="0"/>
        <pt x="137" y="40" on="0"/>
        <pt x="153" y="40" on="1"/>
        <pt x="164" y="40" on="0"/>
        <pt x="176" y="37" on="0"/>
        <pt x="192" y="29" on="1"/>
        <pt x="239" y="7" on="0"/>
        <pt x="320" y="-51" on="0"/>
        <pt x="381" y="-125" on="0"/>
        <pt x="416" y="-216" on="0"/>
        <pt x="416" y="-270" on="1"/>
        <pt x="416" y="-864" on="1"/>
        <pt x="416" y="-875" on="0"/>
        <pt x="425" y="-936" on="0"/>
        <pt x="462" y="-1014" on="0"/>
        <pt x="539" y="-1100" on="0"/>
        <pt x="606" y="-1136" on="1"/>
        <pt x="614" y="-1141" on="0"/>
        <pt x="618" y="-1147" on="0"/>
        <pt x="618" y="-1160" on="1"/>
        <pt x="618" y="-1172" on="0"/>
        <pt x="615" y="-1178" on="0"/>
        <pt x="610" y="-1181" on="1"/>
        <pt x="509" y="-1235" on="0"/>
        <pt x="416" y="-1384" on="0"/>
        <pt x="416" y="-1473" on="1"/>
      </contour>
    </TTGlyph>
    <TTGlyph name="bracerightbt" xMin="170" yMin="-899" xMax="504" yMax="10">
      <contour>
        <pt x="384" y="-17" on="1"/>
        <pt x="384" y="3" on="0"/>
        <pt x="392" y="10" on="0"/>
        <pt x="412" y="10" on="1"/>
        <pt x="476" y="10" on="1"/>
        <pt x="496" y="10" on="0"/>
        <pt x="504" y="3" on="0"/>
        <pt x="504" y="-17" on="1"/>
        <pt x="504" y="-447" on="1"/>
        <pt x="504" y="-502" on="0"/>
        <pt x="474" y="-625" on="0"/>
        <pt x="405" y="-745" on="0"/>
        <pt x="293" y="-856" on="0"/>
        <pt x="212" y="-899" on="1"/>
        <pt x="197" y="-899" on="1"/>
        <pt x="177" y="-899" on="0"/>
        <pt x="170" y="-892" on="0"/>
        <pt x="170" y="-875" on="1"/>
        <pt x="170" y="-861" on="0"/>
        <pt x="174" y="-854" on="0"/>
        <pt x="184" y="-846" on="1"/>
        <pt x="250" y="-800" on="0"/>
        <pt x="329" y="-688" on="0"/>
        <pt x="371" y="-578" on="0"/>
        <pt x="384" y="-480" on="0"/>
        <pt x="384" y="-447" on="1"/>
      </contour>
    </TTGlyph>
    <TTGlyph name="bracerightmid" xMin="384" yMin="-1810" xMax="718" yMax="10">
      <contour>
        <pt x="504" y="-1783" on="1"/>
        <pt x="504" y="-1803" on="0"/>
        <pt x="496" y="-1810" on="0"/>
        <pt x="476" y="-1810" on="1"/>
        <pt x="412" y="-1810" on="1"/>
        <pt x="392" y="-1810" on="0"/>
        <pt x="384" y="-1803" on="0"/>
        <pt x="384" y="-1783" on="1"/>
        <pt x="384" y="-1361" on="1"/>
        <pt x="384" y="-1317" on="0"/>
        <pt x="406" y="-1200" on="0"/>
        <pt x="467" y="-1075" on="0"/>
        <pt x="574" y="-951" on="0"/>
        <pt x="659" y="-900" on="1"/>
        <pt x="575" y="-849" on="0"/>
        <pt x="468" y="-726" on="0"/>
        <pt x="407" y="-602" on="0"/>
        <pt x="384" y="-484" on="0"/>
        <pt x="384" y="-439" on="1"/>
        <pt x="384" y="-17" on="1"/>
        <pt x="384" y="3" on="0"/>
        <pt x="392" y="10" on="0"/>
        <pt x="412" y="10" on="1"/>
        <pt x="476" y="10" on="1"/>
        <pt x="496" y="10" on="0"/>
        <pt x="504" y="3" on="0"/>
        <pt x="504" y="-17" on="1"/>
        <pt x="504" y="-440" on="1"/>
        <pt x="504" y="-503" on="0"/>
        <pt x="529" y="-625" on="0"/>
        <pt x="580" y="-736" on="0"/>
        <pt x="655" y="-833" on="0"/>
        <pt x="706" y="-872" on="1"/>
        <pt x="714" y="-879" on="0"/>
        <pt x="718" y="-886" on="0"/>
        <pt x="718" y="-900" on="1"/>
        <pt x="718" y="-914" on="0"/>
        <pt x="714" y="-921" on="0"/>
        <pt x="706" y="-928" on="1"/>
        <pt x="637" y="-981" on="0"/>
        <pt x="557" y="-1105" on="0"/>
        <pt x="515" y="-1225" on="0"/>
        <pt x="504" y="-1329" on="0"/>
        <pt x="504" y="-1360" on="1"/>
      </contour>
    </TTGlyph>
    <TTGlyph name="bracerighttp" xMin="170" yMin="-910" xMax="504" yMax="-1">
      <contour>
        <pt x="384" y="-453" on="1"/>
        <pt x="384" y="-413" on="0"/>
        <pt x="373" y="-343" on="0"/>
        <pt x="356" y="-283" on="0"/>
        <pt x="335" y="-233" on="0"/>
        <pt x="325" y="-213" on="1"/>
        <pt x="307" y="-179" on="0"/>
        <pt x="265" y="-124" on="0"/>
        <pt x="223" y="-84" on="0"/>
        <pt x="187" y="-56" on="0"/>
        <pt x="175" y="-47" on="1"/>
        <pt x="172" y="-45" on="0"/>
        <pt x="170" y="-39" on="0"/>
        <pt x="170" y="-25" on="1"/>
        <pt x="170" y="-8" on="0"/>
        <pt x="177" y="-1" on="0"/>
        <pt x="197" y="-1" on="1"/>
        <pt x="212" y="-1" on="1"/>
        <pt x="293" y="-45" on="0"/>
        <pt x="404" y="-155" on="0"/>
        <pt x="473" y="-275" on="0"/>
        <pt x="504" y="-398" on="0"/>
        <pt x="504" y="-453" on="1"/>
        <pt x="504" y="-883" on="1"/>
        <pt x="504" y="-903" on="0"/>
        <pt x="496" y="-910" on="0"/>
        <pt x="476" y="-910" on="1"/>
        <pt x="412" y="-910" on="1"/>
        <pt x="392" y="-910" on="0"/>
        <pt x="384" y="-903" on="0"/>
        <pt x="384" y="-883" on="1"/>
      </contour>
    </TTGlyph>
    <TTGlyph name="bracketleftBig" xMin="226" yMin="-1759" xMax="453" yMax="40">
      <contour>
        <pt x="226" y="40" on="1"/>
        <pt x="453" y="40" on="1"/>
        <pt x="453" y="-7" on="1"/>
        <pt x="273" y="-7" on="1"/>
        <pt x="273" y="-1712" on="1"/>
        <pt x="453" y="-1712" on="1"/>
        <pt x="453" y="-1759" on="1"/>
        <pt x="226" y="-1759" on="1"/>
      </contour>
    </TTGlyph>
    <TTGlyph name="bracketleftBigg" xMin="275" yMin="-2959" xMax="571" yMax="40">
      <contour>
        <pt x="275" y="40" on="1"/>
        <pt x="571" y="40" on="1"/>
        <pt x="571" y="-22" on="1"/>
        <pt x="337" y="-22" on="1"/>
        <pt x="337" y="-2897" on="1"/>
        <pt x="571" y="-2897" on="1"/>
        <pt x="571" y="-2959" on="1"/>
        <pt x="275" y="-2959" on="1"/>
      </contour>
    </TTGlyph>
    <TTGlyph name="bracketleftbig" xMin="202" yMin="-1159" xMax="394" yMax="40">
      <contour>
        <pt x="202" y="40" on="1"/>
        <pt x="394" y="40" on="1"/>
        <pt x="394" y="0" on="1"/>
        <pt x="242" y="0" on="1"/>
        <pt x="242" y="-1119" on="1"/>
        <pt x="394" y="-1119" on="1"/>
        <pt x="394" y="-1159" on="1"/>
        <pt x="202" y="-1159" on="1"/>
      </contour>
    </TTGlyph>
    <TTGlyph name="bracketleftbigg" xMin="250" yMin="-2359" xMax="513" yMax="40">
      <contour>
        <pt x="250" y="40" on="1"/>
        <pt x="513" y="40" on="1"/>
        <pt x="513" y="-15" on="1"/>
        <pt x="305" y="-15" on="1"/>
        <pt x="305" y="-2304" on="1"/>
        <pt x="513" y="-2304" on="1"/>
        <pt x="513" y="-2359" on="1"/>
        <pt x="250" y="-2359" on="1"/>
      </contour>
    </TTGlyph>
    <TTGlyph name="bracketleftbt" xMin="326" yMin="-1759" xMax="659" yMax="40">
      <contour>
        <pt x="326" y="40" on="1"/>
        <pt x="395" y="40" on="1"/>
        <pt x="395" y="-1690" on="1"/>
        <pt x="659" y="-1690" on="1"/>
        <pt x="659" y="-1759" on="1"/>
        <pt x="326" y="-1759" on="1"/>
      </contour>
    </TTGlyph>
    <TTGlyph name="bracketleftex" xMin="326" yMin="-601" xMax="395" yMax="1">
      <contour>
        <pt x="326" y="1" on="1"/>
        <pt x="395" y="1" on="1"/>
        <pt x="395" y="-601" on="1"/>
        <pt x="326" y="-601" on="1"/>
      </contour>
    </TTGlyph>
    <TTGlyph name="bracketlefttp" xMin="326" yMin="-1760" xMax="659" yMax="39">
      <contour>
        <pt x="326" y="39" on="1"/>
        <pt x="659" y="39" on="1"/>
        <pt x="659" y="-30" on="1"/>
        <pt x="395" y="-30" on="1"/>
        <pt x="395" y="-1760" on="1"/>
        <pt x="326" y="-1760" on="1"/>
      </contour>
    </TTGlyph>
    <TTGlyph name="bracketrightBig" xMin="18" yMin="-1759" xMax="245" yMax="40">
      <contour>
        <pt x="198" y="-7" on="1"/>
        <pt x="18" y="-7" on="1"/>
        <pt x="18" y="40" on="1"/>
        <pt x="245" y="40" on="1"/>
        <pt x="245" y="-1759" on="1"/>
        <pt x="18" y="-1759" on="1"/>
        <pt x="18" y="-1712" on="1"/>
        <pt x="198" y="-1712" on="1"/>
      </contour>
    </TTGlyph>
    <TTGlyph name="bracketrightBigg" xMin="11" yMin="-2959" xMax="307" yMax="40">
      <contour>
        <pt x="245" y="-22" on="1"/>
        <pt x="11" y="-22" on="1"/>
        <pt x="11" y="40" on="1"/>
        <pt x="307" y="40" on="1"/>
        <pt x="307" y="-2959" on="1"/>
        <pt x="11" y="-2959" on="1"/>
        <pt x="11" y="-2897" on="1"/>
        <pt x="245" y="-2897" on="1"/>
      </contour>
    </TTGlyph>
    <TTGlyph name="bracketrightbig" xMin="22" yMin="-1159" xMax="214" yMax="40">
      <contour>
        <pt x="22" y="-1159" on="1"/>
        <pt x="22" y="-1119" on="1"/>
        <pt x="174" y="-1119" on="1"/>
        <pt x="174" y="0" on="1"/>
        <pt x="22" y="0" on="1"/>
        <pt x="22" y="40" on="1"/>
        <pt x="214" y="40" on="1"/>
        <pt x="214" y="-1159" on="1"/>
      </contour>
    </TTGlyph>
    <TTGlyph name="bracketrightbigg" xMin="14" yMin="-2359" xMax="277" yMax="40">
      <contour>
        <pt x="222" y="-15" on="1"/>
        <pt x="14" y="-15" on="1"/>
        <pt x="14" y="40" on="1"/>
        <pt x="277" y="40" on="1"/>
        <pt x="277" y="-2359" on="1"/>
        <pt x="14" y="-2359" on="1"/>
        <pt x="14" y="-2304" on="1"/>
        <pt x="222" y="-2304" on="1"/>
      </contour>
    </TTGlyph>
    <TTGlyph name="bracketrightbt" xMin="7" yMin="-1759" xMax="340" yMax="40">
      <contour>
        <pt x="271" y="40" on="1"/>
        <pt x="340" y="40" on="1"/>
        <pt x="340" y="-1759" on="1"/>
        <pt x="7" y="-1759" on="1"/>
        <pt x="7" y="-1690" on="1"/>
        <pt x="271" y="-1690" on="1"/>
      </contour>
    </TTGlyph>
    <TTGlyph name="bracketrightex" xMin="271" yMin="-601" xMax="340" yMax="1">
      <contour>
        <pt x="271" y="1" on="1"/>
        <pt x="340" y="1" on="1"/>
        <pt x="340" y="-601" on="1"/>
        <pt x="271" y="-601" on="1"/>
      </contour>
    </TTGlyph>
    <TTGlyph name="bracketrighttp" xMin="7" yMin="-1760" xMax="340" yMax="39">
      <contour>
        <pt x="271" y="-30" on="1"/>
        <pt x="7" y="-30" on="1"/>
        <pt x="7" y="39" on="1"/>
        <pt x="340" y="39" on="1"/>
        <pt x="340" y="-1760" on="1"/>
        <pt x="271" y="-1760" on="1"/>
      </contour>
    </TTGlyph>
    <TTGlyph name="ceilingleftBig" xMin="226" yMin="-1759" xMax="509" yMax="40">
      <contour>
        <pt x="226" y="40" on="1"/>
        <pt x="509" y="40" on="1"/>
        <pt x="509" y="-7" on="1"/>
        <pt x="273" y="-7" on="1"/>
        <pt x="273" y="-1759" on="1"/>
        <pt x="226" y="-1759" on="1"/>
      </contour>
    </TTGlyph>
    <TTGlyph name="ceilingleftBigg" xMin="275" yMin="-2959" xMax="627" yMax="40">
      <contour>
        <pt x="275" y="40" on="1"/>
        <pt x="627" y="40" on="1"/>
        <pt x="627" y="-22" on="1"/>
        <pt x="337" y="-22" on="1"/>
        <pt x="337" y="-2959" on="1"/>
        <pt x="275" y="-2959" on="1"/>
      </contour>
    </TTGlyph>
    <TTGlyph name="ceilingleftbig" xMin="202" yMin="-1159" xMax="449" yMax="40">
      <contour>
        <pt x="202" y="40" on="1"/>
        <pt x="449" y="40" on="1"/>
        <pt x="449" y="0" on="1"/>
        <pt x="242" y="0" on="1"/>
        <pt x="242" y="-1159" on="1"/>
        <pt x="202" y="-1159" on="1"/>
      </contour>
    </TTGlyph>
    <TTGlyph name="ceilingleftbigg" xMin="250" yMin="-2359" xMax="568" yMax="40">
      <contour>
        <pt x="250" y="40" on="1"/>
        <pt x="568" y="40" on="1"/>
        <pt x="568" y="-15" on="1"/>
        <pt x="305" y="-15" on="1"/>
        <pt x="305" y="-2359" on="1"/>
        <pt x="250" y="-2359" on="1"/>
      </contour>
    </TTGlyph>
    <TTGlyph name="ceilingrightBig" xMin="18" yMin="-1759" xMax="301" yMax="40">
      <contour>
        <pt x="254" y="-7" on="1"/>
        <pt x="18" y="-7" on="1"/>
        <pt x="18" y="40" on="1"/>
        <pt x="301" y="40" on="1"/>
        <pt x="301" y="-1759" on="1"/>
        <pt x="254" y="-1759" on="1"/>
      </contour>
    </TTGlyph>
    <TTGlyph name="ceilingrightBigg" xMin="11" yMin="-2959" xMax="363" yMax="40">
      <contour>
        <pt x="301" y="-22" on="1"/>
        <pt x="11" y="-22" on="1"/>
        <pt x="11" y="40" on="1"/>
        <pt x="363" y="40" on="1"/>
        <pt x="363" y="-2959" on="1"/>
        <pt x="301" y="-2959" on="1"/>
      </contour>
    </TTGlyph>
    <TTGlyph name="ceilingrightbig" xMin="22" yMin="-1159" xMax="269" yMax="40">
      <contour>
        <pt x="229" y="0" on="1"/>
        <pt x="22" y="0" on="1"/>
        <pt x="22" y="40" on="1"/>
        <pt x="269" y="40" on="1"/>
        <pt x="269" y="-1159" on="1"/>
        <pt x="229" y="-1159" on="1"/>
      </contour>
    </TTGlyph>
    <TTGlyph name="ceilingrightbigg" xMin="14" yMin="-2359" xMax="332" yMax="40">
      <contour>
        <pt x="277" y="-15" on="1"/>
        <pt x="14" y="-15" on="1"/>
        <pt x="14" y="40" on="1"/>
        <pt x="332" y="40" on="1"/>
        <pt x="332" y="-2359" on="1"/>
        <pt x="277" y="-2359" on="1"/>
      </contour>
    </TTGlyph>
    <TTGlyph name="circledotdisplay" xMin="56" yMin="-1400" xMax="1454" yMax="0">
      <contour>
        <pt x="1454" y="-700" on="1"/>
        <pt x="1454" y="-797" on="0"/>
        <pt x="1404" y="-976" on="0"/>
        <pt x="1313" y="-1131" on="0"/>
        <pt x="1185" y="-1259" on="0"/>
        <pt x="1030" y="-1350" on="0"/>
        <pt x="851" y="-1400" on="0"/>
        <pt x="755" y="-1400" on="1"/>
        <pt x="610" y="-1400" on="0"/>
        <pt x="356" y="-1290" on="0"/>
        <pt x="166" y="-1100" on="0"/>
        <pt x="56" y="-845" on="0"/>
        <pt x="56" y="-700" on="1"/>
        <pt x="56" y="-603" on="0"/>
        <pt x="106" y="-424" on="0"/>
        <pt x="197" y="-269" on="0"/>
        <pt x="325" y="-141" on="0"/>
        <pt x="480" y="-50" on="0"/>
        <pt x="659" y="0" on="0"/>
        <pt x="755" y="0" on="1"/>
        <pt x="900" y="0" on="0"/>
        <pt x="1154" y="-110" on="0"/>
        <pt x="1344" y="-300" on="0"/>
        <pt x="1454" y="-555" on="0"/>
      </contour>
      <contour>
        <pt x="755" y="-1317" on="1"/>
        <pt x="840" y="-1317" on="0"/>
        <pt x="997" y="-1273" on="0"/>
        <pt x="1134" y="-1193" on="0"/>
        <pt x="1247" y="-1080" on="0"/>
        <pt x="1327" y="-943" on="0"/>
        <pt x="1371" y="-785" on="0"/>
        <pt x="1371" y="-700" on="1"/>
        <pt x="1371" y="-572" on="0"/>
        <pt x="1274" y="-347" on="0"/>
        <pt x="1106" y="-180" on="0"/>
        <pt x="882" y="-83" on="0"/>
        <pt x="755" y="-83" on="1"/>
        <pt x="670" y="-83" on="0"/>
        <pt x="513" y="-127" on="0"/>
        <pt x="376" y="-207" on="0"/>
        <pt x="263" y="-320" on="0"/>
        <pt x="183" y="-457" on="0"/>
        <pt x="139" y="-615" on="0"/>
        <pt x="139" y="-700" on="1"/>
        <pt x="139" y="-828" on="0"/>
        <pt x="236" y="-1053" on="0"/>
        <pt x="404" y="-1220" on="0"/>
        <pt x="628" y="-1317" on="0"/>
      </contour>
      <contour>
        <pt x="838" y="-700" on="1"/>
        <pt x="838" y="-735" on="0"/>
        <pt x="790" y="-783" on="0"/>
        <pt x="755" y="-783" on="1"/>
        <pt x="720" y="-783" on="0"/>
        <pt x="672" y="-735" on="0"/>
        <pt x="672" y="-700" on="1"/>
        <pt x="672" y="-665" on="0"/>
        <pt x="720" y="-617" on="0"/>
        <pt x="755" y="-617" on="1"/>
        <pt x="790" y="-617" on="0"/>
        <pt x="838" y="-665" on="0"/>
      </contour>
    </TTGlyph>
    <TTGlyph name="circledottext" xMin="56" yMin="-1000" xMax="1054" yMax="0">
      <contour>
        <pt x="1054" y="-500" on="1"/>
        <pt x="1054" y="-604" on="0"/>
        <pt x="975" y="-786" on="0"/>
        <pt x="840" y="-922" on="0"/>
        <pt x="658" y="-1000" on="0"/>
        <pt x="555" y="-1000" on="1"/>
        <pt x="452" y="-1000" on="0"/>
        <pt x="270" y="-922" on="0"/>
        <pt x="135" y="-786" on="0"/>
        <pt x="56" y="-604" on="0"/>
        <pt x="56" y="-500" on="1"/>
        <pt x="56" y="-396" on="0"/>
        <pt x="135" y="-214" on="0"/>
        <pt x="270" y="-78" on="0"/>
        <pt x="452" y="0" on="0"/>
        <pt x="555" y="0" on="1"/>
        <pt x="658" y="0" on="0"/>
        <pt x="840" y="-78" on="0"/>
        <pt x="975" y="-214" on="0"/>
        <pt x="1054" y="-396" on="0"/>
      </contour>
      <contour>
        <pt x="555" y="-931" on="1"/>
        <pt x="644" y="-931" on="0"/>
        <pt x="800" y="-863" on="0"/>
        <pt x="917" y="-746" on="0"/>
        <pt x="985" y="-589" on="0"/>
        <pt x="985" y="-500" on="1"/>
        <pt x="985" y="-411" on="0"/>
        <pt x="917" y="-254" on="0"/>
        <pt x="800" y="-137" on="0"/>
        <pt x="644" y="-69" on="0"/>
        <pt x="555" y="-69" on="1"/>
        <pt x="466" y="-69" on="0"/>
        <pt x="310" y="-137" on="0"/>
        <pt x="193" y="-254" on="0"/>
        <pt x="125" y="-411" on="0"/>
        <pt x="125" y="-500" on="1"/>
        <pt x="125" y="-589" on="0"/>
        <pt x="193" y="-746" on="0"/>
        <pt x="310" y="-863" on="0"/>
        <pt x="466" y="-931" on="0"/>
      </contour>
      <contour>
        <pt x="624" y="-500" on="1"/>
        <pt x="624" y="-529" on="0"/>
        <pt x="584" y="-569" on="0"/>
        <pt x="555" y="-569" on="1"/>
        <pt x="526" y="-569" on="0"/>
        <pt x="486" y="-529" on="0"/>
        <pt x="486" y="-500" on="1"/>
        <pt x="486" y="-471" on="0"/>
        <pt x="526" y="-431" on="0"/>
        <pt x="555" y="-431" on="1"/>
        <pt x="584" y="-431" on="0"/>
        <pt x="624" y="-471" on="0"/>
      </contour>
    </TTGlyph>
    <TTGlyph name="circlemultiplydisplay" xMin="56" yMin="-1400" xMax="1454" yMax="0">
      <contour>
        <pt x="1454" y="-700" on="1"/>
        <pt x="1454" y="-797" on="0"/>
        <pt x="1404" y="-976" on="0"/>
        <pt x="1313" y="-1131" on="0"/>
        <pt x="1185" y="-1259" on="0"/>
        <pt x="1030" y="-1350" on="0"/>
        <pt x="851" y="-1400" on="0"/>
        <pt x="755" y="-1400" on="1"/>
        <pt x="610" y="-1400" on="0"/>
        <pt x="356" y="-1290" on="0"/>
        <pt x="166" y="-1100" on="0"/>
        <pt x="56" y="-845" on="0"/>
        <pt x="56" y="-700" on="1"/>
        <pt x="56" y="-603" on="0"/>
        <pt x="106" y="-424" on="0"/>
        <pt x="197" y="-269" on="0"/>
        <pt x="325" y="-141" on="0"/>
        <pt x="480" y="-50" on="0"/>
        <pt x="659" y="0" on="0"/>
        <pt x="755" y="0" on="1"/>
        <pt x="900" y="0" on="0"/>
        <pt x="1154" y="-110" on="0"/>
        <pt x="1344" y="-300" on="0"/>
        <pt x="1454" y="-555" on="0"/>
      </contour>
      <contour>
        <pt x="755" y="-642" on="1"/>
        <pt x="1160" y="-235" on="1"/>
        <pt x="1083" y="-168" on="0"/>
        <pt x="876" y="-83" on="0"/>
        <pt x="755" y="-83" on="1"/>
        <pt x="694" y="-83" on="0"/>
        <pt x="580" y="-106" on="0"/>
        <pt x="478" y="-146" on="0"/>
        <pt x="388" y="-202" on="0"/>
        <pt x="350" y="-235" on="1"/>
      </contour>
      <contour>
        <pt x="696" y="-700" on="1"/>
        <pt x="291" y="-294" on="1"/>
        <pt x="248" y="-344" on="0"/>
        <pt x="190" y="-448" on="0"/>
        <pt x="154" y="-552" on="0"/>
        <pt x="139" y="-653" on="0"/>
        <pt x="139" y="-700" on="1"/>
        <pt x="139" y="-737" on="0"/>
        <pt x="151" y="-831" on="0"/>
        <pt x="184" y="-937" on="0"/>
        <pt x="243" y="-1050" on="0"/>
        <pt x="291" y="-1106" on="1"/>
      </contour>
      <contour>
        <pt x="814" y="-700" on="1"/>
        <pt x="1219" y="-1106" on="1"/>
        <pt x="1262" y="-1056" on="0"/>
        <pt x="1320" y="-952" on="0"/>
        <pt x="1356" y="-848" on="0"/>
        <pt x="1371" y="-747" on="0"/>
        <pt x="1371" y="-700" on="1"/>
        <pt x="1371" y="-663" on="0"/>
        <pt x="1360" y="-569" on="0"/>
        <pt x="1327" y="-463" on="0"/>
        <pt x="1267" y="-350" on="0"/>
        <pt x="1219" y="-294" on="1"/>
      </contour>
      <contour>
        <pt x="755" y="-758" on="1"/>
        <pt x="350" y="-1165" on="1"/>
        <pt x="427" y="-1232" on="0"/>
        <pt x="634" y="-1317" on="0"/>
        <pt x="755" y="-1317" on="1"/>
        <pt x="816" y="-1317" on="0"/>
        <pt x="930" y="-1294" on="0"/>
        <pt x="1032" y="-1254" on="0"/>
        <pt x="1123" y="-1198" on="0"/>
        <pt x="1160" y="-1165" on="1"/>
      </contour>
    </TTGlyph>
    <TTGlyph name="circlemultiplytext" xMin="56" yMin="-1000" xMax="1054" yMax="0">
      <contour>
        <pt x="1054" y="-500" on="1"/>
        <pt x="1054" y="-604" on="0"/>
        <pt x="975" y="-786" on="0"/>
        <pt x="840" y="-922" on="0"/>
        <pt x="658" y="-1000" on="0"/>
        <pt x="555" y="-1000" on="1"/>
        <pt x="452" y="-1000" on="0"/>
        <pt x="270" y="-922" on="0"/>
        <pt x="135" y="-786" on="0"/>
        <pt x="56" y="-604" on="0"/>
        <pt x="56" y="-500" on="1"/>
        <pt x="56" y="-396" on="0"/>
        <pt x="135" y="-214" on="0"/>
        <pt x="270" y="-78" on="0"/>
        <pt x="452" y="0" on="0"/>
        <pt x="555" y="0" on="1"/>
        <pt x="658" y="0" on="0"/>
        <pt x="840" y="-78" on="0"/>
        <pt x="975" y="-214" on="0"/>
        <pt x="1054" y="-396" on="0"/>
      </contour>
      <contour>
        <pt x="555" y="-450" on="1"/>
        <pt x="833" y="-172" on="1"/>
        <pt x="776" y="-122" on="0"/>
        <pt x="631" y="-69" on="0"/>
        <pt x="555" y="-69" on="1"/>
        <pt x="480" y="-69" on="0"/>
        <pt x="334" y="-121" on="0"/>
        <pt x="277" y="-172" on="1"/>
      </contour>
      <contour>
        <pt x="506" y="-500" on="1"/>
        <pt x="227" y="-221" on="1"/>
        <pt x="197" y="-257" on="0"/>
        <pt x="158" y="-331" on="0"/>
        <pt x="134" y="-403" on="0"/>
        <pt x="125" y="-470" on="0"/>
        <pt x="125" y="-500" on="1"/>
        <pt x="125" y="-527" on="0"/>
        <pt x="133" y="-592" on="0"/>
        <pt x="155" y="-664" on="0"/>
        <pt x="195" y="-740" on="0"/>
        <pt x="227" y="-779" on="1"/>
      </contour>
      <contour>
        <pt x="604" y="-500" on="1"/>
        <pt x="883" y="-779" on="1"/>
        <pt x="913" y="-743" on="0"/>
        <pt x="952" y="-669" on="0"/>
        <pt x="976" y="-597" on="0"/>
        <pt x="985" y="-530" on="0"/>
        <pt x="985" y="-500" on="1"/>
        <pt x="985" y="-423" on="0"/>
        <pt x="933" y="-280" on="0"/>
        <pt x="882" y="-221" on="1"/>
      </contour>
      <contour>
        <pt x="555" y="-550" on="1"/>
        <pt x="277" y="-828" on="1"/>
        <pt x="334" y="-878" on="0"/>
        <pt x="479" y="-931" on="0"/>
        <pt x="555" y="-931" on="1"/>
        <pt x="630" y="-931" on="0"/>
        <pt x="776" y="-879" on="0"/>
        <pt x="833" y="-828" on="1"/>
      </contour>
    </TTGlyph>
    <TTGlyph name="circleplusdisplay" xMin="56" yMin="-1400" xMax="1454" yMax="0">
      <contour>
        <pt x="1454" y="-700" on="1"/>
        <pt x="1454" y="-797" on="0"/>
        <pt x="1404" y="-976" on="0"/>
        <pt x="1313" y="-1131" on="0"/>
        <pt x="1185" y="-1259" on="0"/>
        <pt x="1030" y="-1350" on="0"/>
        <pt x="851" y="-1400" on="0"/>
        <pt x="755" y="-1400" on="1"/>
        <pt x="610" y="-1400" on="0"/>
        <pt x="356" y="-1290" on="0"/>
        <pt x="166" y="-1100" on="0"/>
        <pt x="56" y="-845" on="0"/>
        <pt x="56" y="-700" on="1"/>
        <pt x="56" y="-603" on="0"/>
        <pt x="106" y="-424" on="0"/>
        <pt x="197" y="-269" on="0"/>
        <pt x="325" y="-141" on="0"/>
        <pt x="480" y="-50" on="0"/>
        <pt x="659" y="0" on="0"/>
        <pt x="755" y="0" on="1"/>
        <pt x="900" y="0" on="0"/>
        <pt x="1154" y="-110" on="0"/>
        <pt x="1344" y="-300" on="0"/>
        <pt x="1454" y="-555" on="0"/>
      </contour>
      <contour>
        <pt x="714" y="-658" on="1"/>
        <pt x="714" y="-84" on="1"/>
        <pt x="594" y="-93" on="0"/>
        <pt x="390" y="-191" on="0"/>
        <pt x="238" y="-347" on="0"/>
        <pt x="147" y="-547" on="0"/>
        <pt x="141" y="-658" on="1"/>
      </contour>
      <contour>
        <pt x="797" y="-658" on="1"/>
        <pt x="1369" y="-658" on="1"/>
        <pt x="1362" y="-543" on="0"/>
        <pt x="1267" y="-340" on="0"/>
        <pt x="1113" y="-186" on="0"/>
        <pt x="911" y="-92" on="0"/>
        <pt x="797" y="-85" on="1"/>
      </contour>
      <contour>
        <pt x="797" y="-741" on="1"/>
        <pt x="797" y="-1315" on="1"/>
        <pt x="870" y="-1311" on="0"/>
        <pt x="1008" y="-1267" on="0"/>
        <pt x="1132" y="-1193" on="0"/>
        <pt x="1237" y="-1092" on="0"/>
        <pt x="1315" y="-967" on="0"/>
        <pt x="1364" y="-822" on="0"/>
        <pt x="1370" y="-741" on="1"/>
      </contour>
      <contour>
        <pt x="714" y="-741" on="1"/>
        <pt x="140" y="-741" on="1"/>
        <pt x="148" y="-858" on="0"/>
        <pt x="243" y="-1060" on="0"/>
        <pt x="397" y="-1213" on="0"/>
        <pt x="599" y="-1308" on="0"/>
        <pt x="714" y="-1316" on="1"/>
      </contour>
    </TTGlyph>
    <TTGlyph name="circleplustext" xMin="56" yMin="-1000" xMax="1054" yMax="0">
      <contour>
        <pt x="1054" y="-500" on="1"/>
        <pt x="1054" y="-604" on="0"/>
        <pt x="975" y="-786" on="0"/>
        <pt x="840" y="-922" on="0"/>
        <pt x="658" y="-1000" on="0"/>
        <pt x="555" y="-1000" on="1"/>
        <pt x="452" y="-1000" on="0"/>
        <pt x="270" y="-922" on="0"/>
        <pt x="135" y="-786" on="0"/>
        <pt x="56" y="-604" on="0"/>
        <pt x="56" y="-500" on="1"/>
        <pt x="56" y="-396" on="0"/>
        <pt x="135" y="-214" on="0"/>
        <pt x="270" y="-78" on="0"/>
        <pt x="452" y="0" on="0"/>
        <pt x="555" y="0" on="1"/>
        <pt x="658" y="0" on="0"/>
        <pt x="840" y="-78" on="0"/>
        <pt x="975" y="-214" on="0"/>
        <pt x="1054" y="-396" on="0"/>
      </contour>
      <contour>
        <pt x="521" y="-70" on="1"/>
        <pt x="445" y="-76" on="0"/>
        <pt x="306" y="-141" on="0"/>
        <pt x="200" y="-246" on="0"/>
        <pt x="133" y="-385" on="0"/>
        <pt x="127" y="-465" on="1"/>
        <pt x="521" y="-465" on="1"/>
      </contour>
      <contour>
        <pt x="983" y="-465" on="1"/>
        <pt x="977" y="-386" on="0"/>
        <pt x="910" y="-246" on="0"/>
        <pt x="803" y="-141" on="0"/>
        <pt x="666" y="-76" on="0"/>
        <pt x="590" y="-71" on="1"/>
        <pt x="590" y="-465" on="1"/>
      </contour>
      <contour>
        <pt x="590" y="-929" on="1"/>
        <pt x="665" y="-924" on="0"/>
        <pt x="802" y="-861" on="0"/>
        <pt x="909" y="-756" on="0"/>
        <pt x="978" y="-615" on="0"/>
        <pt x="984" y="-534" on="1"/>
        <pt x="590" y="-534" on="1"/>
      </contour>
      <contour>
        <pt x="126" y="-534" on="1"/>
        <pt x="132" y="-615" on="0"/>
        <pt x="201" y="-755" on="0"/>
        <pt x="308" y="-860" on="0"/>
        <pt x="445" y="-924" on="0"/>
        <pt x="521" y="-930" on="1"/>
        <pt x="521" y="-534" on="1"/>
      </contour>
    </TTGlyph>
    <TTGlyph name="contintegraldisplay" xMin="56" yMin="-2222" xMax="943" yMax="0">
      <contour>
        <pt x="104" y="-2177" on="1"/>
        <pt x="104" y="-2177" on="0"/>
        <pt x="113" y="-2184" on="0"/>
        <pt x="129" y="-2193" on="0"/>
        <pt x="152" y="-2200" on="0"/>
        <pt x="165" y="-2200" on="1"/>
        <pt x="186" y="-2200" on="0"/>
        <pt x="221" y="-2171" on="0"/>
        <pt x="250" y="-2124" on="0"/>
        <pt x="274" y="-2065" on="0"/>
        <pt x="293" y="-2005" on="0"/>
        <pt x="307" y="-1951" on="0"/>
        <pt x="311" y="-1933" on="1"/>
        <pt x="334" y="-1840" on="0"/>
        <pt x="386" y="-1552" on="0"/>
        <pt x="418" y="-1361" on="1"/>
        <pt x="369" y="-1340" on="0"/>
        <pt x="304" y="-1278" on="0"/>
        <pt x="266" y="-1209" on="0"/>
        <pt x="251" y="-1140" on="0"/>
        <pt x="251" y="-1111" on="1"/>
        <pt x="251" y="-1056" on="0"/>
        <pt x="293" y="-957" on="0"/>
        <pt x="366" y="-884" on="0"/>
        <pt x="464" y="-841" on="0"/>
        <pt x="521" y="-841" on="1"/>
        <pt x="526" y="-818" on="0"/>
        <pt x="543" y="-743" on="0"/>
        <pt x="562" y="-662" on="0"/>
        <pt x="579" y="-587" on="0"/>
        <pt x="585" y="-564" on="1"/>
        <pt x="587" y="-555" on="0"/>
        <pt x="601" y="-497" on="0"/>
        <pt x="619" y="-423" on="0"/>
        <pt x="639" y="-344" on="0"/>
        <pt x="647" y="-314" on="1"/>
        <pt x="687" y="-166" on="0"/>
        <pt x="775" y="0" on="0"/>
        <pt x="834" y="0" on="1"/>
        <pt x="855" y="0" on="0"/>
        <pt x="894" y="-14" on="0"/>
        <pt x="924" y="-39" on="0"/>
        <pt x="943" y="-73" on="0"/>
        <pt x="943" y="-93" on="1"/>
        <pt x="943" y="-119" on="0"/>
        <pt x="912" y="-143" on="0"/>
        <pt x="894" y="-143" on="1"/>
        <pt x="877" y="-143" on="0"/>
        <pt x="846" y="-119" on="0"/>
        <pt x="846" y="-94" on="1"/>
        <pt x="846" y="-75" on="0"/>
        <pt x="871" y="-47" on="0"/>
        <pt x="896" y="-45" on="1"/>
        <pt x="893" y="-42" on="0"/>
        <pt x="859" y="-22" on="0"/>
        <pt x="836" y="-22" on="1"/>
        <pt x="824" y="-22" on="0"/>
        <pt x="800" y="-53" on="0"/>
        <pt x="778" y="-104" on="0"/>
        <pt x="758" y="-168" on="0"/>
        <pt x="741" y="-236" on="0"/>
        <pt x="727" y="-300" on="0"/>
        <pt x="721" y="-325" on="1"/>
        <pt x="693" y="-456" on="0"/>
        <pt x="646" y="-726" on="0"/>
        <pt x="623" y="-861" on="1"/>
        <pt x="673" y="-882" on="0"/>
        <pt x="737" y="-944" on="0"/>
        <pt x="775" y="-1013" on="0"/>
        <pt x="790" y="-1083" on="0"/>
        <pt x="790" y="-1111" on="1"/>
        <pt x="790" y="-1167" on="0"/>
        <pt x="748" y="-1265" on="0"/>
        <pt x="675" y="-1338" on="0"/>
        <pt x="577" y="-1381" on="0"/>
        <pt x="520" y="-1381" on="1"/>
        <pt x="515" y="-1404" on="0"/>
        <pt x="498" y="-1479" on="0"/>
        <pt x="479" y="-1560" on="0"/>
        <pt x="462" y="-1635" on="0"/>
        <pt x="456" y="-1658" on="1"/>
        <pt x="428" y="-1779" on="0"/>
        <pt x="374" y="-1985" on="0"/>
        <pt x="309" y="-2136" on="0"/>
        <pt x="225" y="-2222" on="0"/>
        <pt x="167" y="-2222" on="1"/>
        <pt x="144" y="-2222" on="0"/>
        <pt x="104" y="-2207" on="0"/>
        <pt x="74" y="-2182" on="0"/>
        <pt x="56" y="-2148" on="0"/>
        <pt x="56" y="-2129" on="1"/>
        <pt x="56" y="-2103" on="0"/>
        <pt x="87" y="-2079" on="0"/>
        <pt x="105" y="-2079" on="1"/>
        <pt x="122" y="-2079" on="0"/>
        <pt x="153" y="-2103" on="0"/>
        <pt x="153" y="-2128" on="1"/>
        <pt x="153" y="-2147" on="0"/>
        <pt x="128" y="-2175" on="0"/>
      </contour>
      <contour>
        <pt x="512" y="-881" on="1"/>
        <pt x="461" y="-884" on="0"/>
        <pt x="379" y="-925" on="0"/>
        <pt x="322" y="-988" on="0"/>
        <pt x="291" y="-1069" on="0"/>
        <pt x="291" y="-1111" on="1"/>
        <pt x="291" y="-1180" on="0"/>
        <pt x="365" y="-1292" on="0"/>
        <pt x="424" y="-1320" on="1"/>
      </contour>
      <contour>
        <pt x="529" y="-1341" on="1"/>
        <pt x="580" y="-1338" on="0"/>
        <pt x="662" y="-1297" on="0"/>
        <pt x="719" y="-1234" on="0"/>
        <pt x="750" y="-1153" on="0"/>
        <pt x="750" y="-1111" on="1"/>
        <pt x="750" y="-1076" on="0"/>
        <pt x="730" y="-1011" on="0"/>
        <pt x="694" y="-957" on="0"/>
        <pt x="645" y="-915" on="0"/>
        <pt x="616" y="-902" on="1"/>
      </contour>
    </TTGlyph>
    <TTGlyph name="contintegraltext" xMin="56" yMin="-1111" xMax="609" yMax="0">
      <contour>
        <pt x="359" y="-742" on="1"/>
        <pt x="353" y="-793" on="0"/>
        <pt x="344" y="-868" on="0"/>
        <pt x="334" y="-925" on="0"/>
        <pt x="322" y="-969" on="0"/>
        <pt x="314" y="-990" on="1"/>
        <pt x="305" y="-1013" on="0"/>
        <pt x="278" y="-1057" on="0"/>
        <pt x="242" y="-1091" on="0"/>
        <pt x="195" y="-1111" on="0"/>
        <pt x="166" y="-1111" on="1"/>
        <pt x="144" y="-1111" on="0"/>
        <pt x="104" y="-1099" on="0"/>
        <pt x="74" y="-1076" on="0"/>
        <pt x="56" y="-1046" on="0"/>
        <pt x="56" y="-1028" on="1"/>
        <pt x="56" y="-1005" on="0"/>
        <pt x="83" y="-985" on="0"/>
        <pt x="98" y="-985" on="1"/>
        <pt x="112" y="-985" on="0"/>
        <pt x="139" y="-1005" on="0"/>
        <pt x="139" y="-1027" on="1"/>
        <pt x="139" y="-1038" on="0"/>
        <pt x="124" y="-1065" on="0"/>
        <pt x="102" y="-1068" on="1"/>
        <pt x="118" y="-1082" on="0"/>
        <pt x="156" y="-1089" on="0"/>
        <pt x="166" y="-1089" on="1"/>
        <pt x="195" y="-1089" on="0"/>
        <pt x="232" y="-1057" on="0"/>
        <pt x="255" y="-1002" on="0"/>
        <pt x="267" y="-929" on="0"/>
        <pt x="271" y="-888" on="1"/>
        <pt x="272" y="-881" on="0"/>
        <pt x="274" y="-859" on="0"/>
        <pt x="277" y="-824" on="0"/>
        <pt x="280" y="-772" on="0"/>
        <pt x="283" y="-733" on="1"/>
        <pt x="251" y="-723" on="0"/>
        <pt x="203" y="-685" on="0"/>
        <pt x="170" y="-637" on="0"/>
        <pt x="153" y="-583" on="0"/>
        <pt x="153" y="-555" on="1"/>
        <pt x="153" y="-524" on="0"/>
        <pt x="175" y="-463" on="0"/>
        <pt x="217" y="-412" on="0"/>
        <pt x="279" y="-375" on="0"/>
        <pt x="320" y="-369" on="1"/>
        <pt x="328" y="-304" on="0"/>
        <pt x="339" y="-223" on="0"/>
        <pt x="348" y="-172" on="0"/>
        <pt x="356" y="-141" on="0"/>
        <pt x="361" y="-126" on="1"/>
        <pt x="369" y="-104" on="0"/>
        <pt x="391" y="-59" on="0"/>
        <pt x="424" y="-23" on="0"/>
        <pt x="469" y="0" on="0"/>
        <pt x="499" y="0" on="1"/>
        <pt x="522" y="0" on="0"/>
        <pt x="562" y="-12" on="0"/>
        <pt x="592" y="-35" on="0"/>
        <pt x="609" y="-65" on="0"/>
        <pt x="609" y="-83" on="1"/>
        <pt x="609" y="-106" on="0"/>
        <pt x="582" y="-126" on="0"/>
        <pt x="567" y="-126" on="1"/>
        <pt x="553" y="-126" on="0"/>
        <pt x="526" y="-106" on="0"/>
        <pt x="526" y="-84" on="1"/>
        <pt x="526" y="-73" on="0"/>
        <pt x="541" y="-46" on="0"/>
        <pt x="563" y="-43" on="1"/>
        <pt x="546" y="-29" on="0"/>
        <pt x="508" y="-22" on="0"/>
        <pt x="500" y="-22" on="1"/>
        <pt x="475" y="-22" on="0"/>
        <pt x="443" y="-52" on="0"/>
        <pt x="423" y="-105" on="0"/>
        <pt x="412" y="-176" on="0"/>
        <pt x="408" y="-217" on="1"/>
        <pt x="408" y="-224" on="0"/>
        <pt x="406" y="-247" on="0"/>
        <pt x="403" y="-284" on="0"/>
        <pt x="399" y="-339" on="0"/>
        <pt x="396" y="-378" on="1"/>
        <pt x="428" y="-389" on="0"/>
        <pt x="476" y="-426" on="0"/>
        <pt x="509" y="-474" on="0"/>
        <pt x="526" y="-528" on="0"/>
        <pt x="526" y="-556" on="1"/>
        <pt x="526" y="-587" on="0"/>
        <pt x="504" y="-648" on="0"/>
        <pt x="462" y="-699" on="0"/>
        <pt x="400" y="-736" on="0"/>
      </contour>
      <contour>
        <pt x="314" y="-411" on="1"/>
        <pt x="287" y="-416" on="0"/>
        <pt x="243" y="-443" on="0"/>
        <pt x="211" y="-482" on="0"/>
        <pt x="193" y="-530" on="0"/>
        <pt x="193" y="-555" on="1"/>
        <pt x="193" y="-581" on="0"/>
        <pt x="209" y="-625" on="0"/>
        <pt x="235" y="-659" on="0"/>
        <pt x="268" y="-685" on="0"/>
        <pt x="285" y="-692" on="1"/>
      </contour>
      <contour>
        <pt x="365" y="-700" on="1"/>
        <pt x="391" y="-695" on="0"/>
        <pt x="435" y="-669" on="0"/>
        <pt x="468" y="-630" on="0"/>
        <pt x="486" y="-582" on="0"/>
        <pt x="486" y="-555" on="1"/>
        <pt x="486" y="-507" on="0"/>
        <pt x="432" y="-435" on="0"/>
        <pt x="393" y="-419" on="1"/>
      </contour>
    </TTGlyph>
    <TTGlyph name="coproductdisplay" xMin="56" yMin="-1400" xMax="1221" yMax="0">
      <contour>
        <pt x="56" y="-1400" on="1"/>
        <pt x="56" y="-1346" on="1"/>
        <pt x="106" y="-1346" on="0"/>
        <pt x="169" y="-1330" on="0"/>
        <pt x="206" y="-1301" on="0"/>
        <pt x="220" y="-1260" on="0"/>
        <pt x="220" y="-1236" on="1"/>
        <pt x="220" y="-164" on="1"/>
        <pt x="220" y="-140" on="0"/>
        <pt x="206" y="-100" on="0"/>
        <pt x="170" y="-70" on="0"/>
        <pt x="106" y="-54" on="0"/>
        <pt x="56" y="-54" on="1"/>
        <pt x="56" y="0" on="1"/>
        <pt x="537" y="0" on="1"/>
        <pt x="537" y="-54" on="1"/>
        <pt x="488" y="-54" on="0"/>
        <pt x="424" y="-70" on="0"/>
        <pt x="387" y="-99" on="0"/>
        <pt x="373" y="-140" on="0"/>
        <pt x="373" y="-164" on="1"/>
        <pt x="373" y="-1346" on="1"/>
        <pt x="904" y="-1346" on="1"/>
        <pt x="904" y="-164" on="1"/>
        <pt x="904" y="-140" on="0"/>
        <pt x="890" y="-100" on="0"/>
        <pt x="854" y="-70" on="0"/>
        <pt x="790" y="-54" on="0"/>
        <pt x="740" y="-54" on="1"/>
        <pt x="740" y="0" on="1"/>
        <pt x="1221" y="0" on="1"/>
        <pt x="1221" y="-54" on="1"/>
        <pt x="1172" y="-54" on="0"/>
        <pt x="1108" y="-70" on="0"/>
        <pt x="1071" y="-99" on="0"/>
        <pt x="1057" y="-140" on="0"/>
        <pt x="1057" y="-164" on="1"/>
        <pt x="1057" y="-1236" on="1"/>
        <pt x="1057" y="-1260" on="0"/>
        <pt x="1071" y="-1300" on="0"/>
        <pt x="1107" y="-1330" on="0"/>
        <pt x="1171" y="-1346" on="0"/>
        <pt x="1221" y="-1346" on="1"/>
        <pt x="1221" y="-1400" on="1"/>
      </contour>
    </TTGlyph>
    <TTGlyph name="coproducttext" xMin="56" yMin="-1000" xMax="887" yMax="0">
      <contour>
        <pt x="687" y="-119" on="1"/>
        <pt x="687" y="-108" on="0"/>
        <pt x="684" y="-80" on="0"/>
        <pt x="664" y="-56" on="0"/>
        <pt x="623" y="-40" on="0"/>
        <pt x="584" y="-40" on="1"/>
        <pt x="584" y="0" on="1"/>
        <pt x="887" y="0" on="1"/>
        <pt x="887" y="-40" on="1"/>
        <pt x="848" y="-40" on="0"/>
        <pt x="807" y="-56" on="0"/>
        <pt x="787" y="-80" on="0"/>
        <pt x="784" y="-108" on="0"/>
        <pt x="784" y="-119" on="1"/>
        <pt x="784" y="-881" on="1"/>
        <pt x="784" y="-892" on="0"/>
        <pt x="787" y="-920" on="0"/>
        <pt x="807" y="-944" on="0"/>
        <pt x="848" y="-960" on="0"/>
        <pt x="887" y="-960" on="1"/>
        <pt x="887" y="-1000" on="1"/>
        <pt x="56" y="-1000" on="1"/>
        <pt x="56" y="-960" on="1"/>
        <pt x="95" y="-960" on="0"/>
        <pt x="136" y="-944" on="0"/>
        <pt x="156" y="-920" on="0"/>
        <pt x="159" y="-892" on="0"/>
        <pt x="159" y="-881" on="1"/>
        <pt x="159" y="-119" on="1"/>
        <pt x="159" y="-108" on="0"/>
        <pt x="156" y="-80" on="0"/>
        <pt x="136" y="-56" on="0"/>
        <pt x="95" y="-40" on="0"/>
        <pt x="56" y="-40" on="1"/>
        <pt x="56" y="0" on="1"/>
        <pt x="359" y="0" on="1"/>
        <pt x="359" y="-40" on="1"/>
        <pt x="320" y="-40" on="0"/>
        <pt x="279" y="-56" on="0"/>
        <pt x="259" y="-80" on="0"/>
        <pt x="256" y="-108" on="0"/>
        <pt x="256" y="-119" on="1"/>
        <pt x="256" y="-960" on="1"/>
        <pt x="687" y="-960" on="1"/>
      </contour>
    </TTGlyph>
    <TTGlyph name="floorleftBig" xMin="226" yMin="-1759" xMax="509" yMax="40">
      <contour>
        <pt x="226" y="40" on="1"/>
        <pt x="273" y="40" on="1"/>
        <pt x="273" y="-1712" on="1"/>
        <pt x="509" y="-1712" on="1"/>
        <pt x="509" y="-1759" on="1"/>
        <pt x="226" y="-1759" on="1"/>
      </contour>
    </TTGlyph>
    <TTGlyph name="floorleftBigg" xMin="275" yMin="-2959" xMax="627" yMax="40">
      <contour>
        <pt x="275" y="40" on="1"/>
        <pt x="337" y="40" on="1"/>
        <pt x="337" y="-2897" on="1"/>
        <pt x="627" y="-2897" on="1"/>
        <pt x="627" y="-2959" on="1"/>
        <pt x="275" y="-2959" on="1"/>
      </contour>
    </TTGlyph>
    <TTGlyph name="floorleftbig" xMin="202" yMin="-1159" xMax="449" yMax="40">
      <contour>
        <pt x="202" y="40" on="1"/>
        <pt x="242" y="40" on="1"/>
        <pt x="242" y="-1119" on="1"/>
        <pt x="449" y="-1119" on="1"/>
        <pt x="449" y="-1159" on="1"/>
        <pt x="202" y="-1159" on="1"/>
      </contour>
    </TTGlyph>
    <TTGlyph name="floorleftbigg" xMin="250" yMin="-2359" xMax="568" yMax="40">
      <contour>
        <pt x="250" y="40" on="1"/>
        <pt x="305" y="40" on="1"/>
        <pt x="305" y="-2304" on="1"/>
        <pt x="568" y="-2304" on="1"/>
        <pt x="568" y="-2359" on="1"/>
        <pt x="250" y="-2359" on="1"/>
      </contour>
    </TTGlyph>
    <TTGlyph name="floorrightBig" xMin="18" yMin="-1759" xMax="301" yMax="40">
      <contour>
        <pt x="254" y="40" on="1"/>
        <pt x="301" y="40" on="1"/>
        <pt x="301" y="-1759" on="1"/>
        <pt x="18" y="-1759" on="1"/>
        <pt x="18" y="-1712" on="1"/>
        <pt x="254" y="-1712" on="1"/>
      </contour>
    </TTGlyph>
    <TTGlyph name="floorrightBigg" xMin="11" yMin="-2959" xMax="363" yMax="40">
      <contour>
        <pt x="301" y="40" on="1"/>
        <pt x="363" y="40" on="1"/>
        <pt x="363" y="-2959" on="1"/>
        <pt x="11" y="-2959" on="1"/>
        <pt x="11" y="-2897" on="1"/>
        <pt x="301" y="-2897" on="1"/>
      </contour>
    </TTGlyph>
    <TTGlyph name="floorrightbig" xMin="22" yMin="-1159" xMax="269" yMax="40">
      <contour>
        <pt x="22" y="-1159" on="1"/>
        <pt x="22" y="-1119" on="1"/>
        <pt x="229" y="-1119" on="1"/>
        <pt x="229" y="40" on="1"/>
        <pt x="269" y="40" on="1"/>
        <pt x="269" y="-1159" on="1"/>
      </contour>
    </TTGlyph>
    <TTGlyph name="floorrightbigg" xMin="14" yMin="-2359" xMax="332" yMax="40">
      <contour>
        <pt x="277" y="40" on="1"/>
        <pt x="332" y="40" on="1"/>
        <pt x="332" y="-2359" on="1"/>
        <pt x="14" y="-2359" on="1"/>
        <pt x="14" y="-2304" on="1"/>
        <pt x="277" y="-2304" on="1"/>
      </contour>
    </TTGlyph>
    <TTGlyph name="hatwide" xMin="-5" yMin="562" xMax="561" yMax="744">
      <contour>
        <pt x="6" y="562" on="1"/>
        <pt x="-5" y="584" on="1"/>
        <pt x="278" y="744" on="1"/>
        <pt x="561" y="584" on="1"/>
        <pt x="549" y="562" on="1"/>
        <pt x="277" y="685" on="1"/>
      </contour>
    </TTGlyph>
    <TTGlyph name="hatwider" xMin="-4" yMin="575" xMax="1003" yMax="772">
      <contour>
        <pt x="4" y="575" on="1"/>
        <pt x="-4" y="599" on="1"/>
        <pt x="500" y="772" on="1"/>
        <pt x="1003" y="599" on="1"/>
        <pt x="995" y="575" on="1"/>
        <pt x="499" y="713" on="1"/>
      </contour>
    </TTGlyph>
    <TTGlyph name="hatwidest" xMin="-3" yMin="575" xMax="1446" yMax="772">
      <contour>
        <pt x="722" y="713" on="1"/>
        <pt x="3" y="575" on="1"/>
        <pt x="-3" y="599" on="1"/>
        <pt x="721" y="772" on="1"/>
        <pt x="1446" y="599" on="1"/>
        <pt x="1440" y="575" on="1"/>
      </contour>
    </TTGlyph>
    <TTGlyph name="integraldisplay" xMin="56" yMin="-2222" xMax="943" yMax="0">
      <contour>
        <pt x="104" y="-2177" on="1"/>
        <pt x="104" y="-2177" on="0"/>
        <pt x="113" y="-2184" on="0"/>
        <pt x="129" y="-2193" on="0"/>
        <pt x="152" y="-2200" on="0"/>
        <pt x="165" y="-2200" on="1"/>
        <pt x="185" y="-2200" on="0"/>
        <pt x="220" y="-2171" on="0"/>
        <pt x="249" y="-2126" on="0"/>
        <pt x="273" y="-2068" on="0"/>
        <pt x="292" y="-2010" on="0"/>
        <pt x="305" y="-1957" on="0"/>
        <pt x="310" y="-1939" on="1"/>
        <pt x="335" y="-1834" on="0"/>
        <pt x="378" y="-1595" on="0"/>
        <pt x="398" y="-1480" on="1"/>
        <pt x="426" y="-1317" on="0"/>
        <pt x="483" y="-1018" on="0"/>
        <pt x="538" y="-760" on="0"/>
        <pt x="587" y="-550" on="0"/>
        <pt x="624" y="-400" on="0"/>
        <pt x="646" y="-316" on="0"/>
        <pt x="647" y="-313" on="1"/>
        <pt x="689" y="-159" on="0"/>
        <pt x="777" y="0" on="0"/>
        <pt x="834" y="0" on="1"/>
        <pt x="855" y="0" on="0"/>
        <pt x="894" y="-14" on="0"/>
        <pt x="924" y="-39" on="0"/>
        <pt x="943" y="-73" on="0"/>
        <pt x="943" y="-93" on="1"/>
        <pt x="943" y="-119" on="0"/>
        <pt x="912" y="-143" on="0"/>
        <pt x="894" y="-143" on="1"/>
        <pt x="877" y="-143" on="0"/>
        <pt x="846" y="-119" on="0"/>
        <pt x="846" y="-94" on="1"/>
        <pt x="846" y="-75" on="0"/>
        <pt x="871" y="-47" on="0"/>
        <pt x="896" y="-45" on="1"/>
        <pt x="893" y="-42" on="0"/>
        <pt x="859" y="-22" on="0"/>
        <pt x="836" y="-22" on="1"/>
        <pt x="821" y="-22" on="0"/>
        <pt x="795" y="-64" on="0"/>
        <pt x="772" y="-121" on="0"/>
        <pt x="756" y="-182" on="0"/>
        <pt x="751" y="-200" on="1"/>
        <pt x="738" y="-248" on="0"/>
        <pt x="712" y="-370" on="0"/>
        <pt x="685" y="-509" on="0"/>
        <pt x="657" y="-662" on="0"/>
        <pt x="643" y="-742" on="1"/>
        <pt x="602" y="-984" on="0"/>
        <pt x="505" y="-1460" on="0"/>
        <pt x="447" y="-1698" on="1"/>
        <pt x="420" y="-1807" on="0"/>
        <pt x="369" y="-1998" on="0"/>
        <pt x="306" y="-2140" on="0"/>
        <pt x="224" y="-2222" on="0"/>
        <pt x="167" y="-2222" on="1"/>
        <pt x="144" y="-2222" on="0"/>
        <pt x="104" y="-2207" on="0"/>
        <pt x="74" y="-2182" on="0"/>
        <pt x="56" y="-2148" on="0"/>
        <pt x="56" y="-2129" on="1"/>
        <pt x="56" y="-2103" on="0"/>
        <pt x="87" y="-2079" on="0"/>
        <pt x="105" y="-2079" on="1"/>
        <pt x="122" y="-2079" on="0"/>
        <pt x="153" y="-2103" on="0"/>
        <pt x="153" y="-2128" on="1"/>
        <pt x="153" y="-2147" on="0"/>
        <pt x="128" y="-2175" on="0"/>
      </contour>
    </TTGlyph>
    <TTGlyph name="integraltext" xMin="56" yMin="-1111" xMax="609" yMax="0">
      <contour>
        <pt x="291" y="-631" on="1"/>
        <pt x="293" y="-601" on="0"/>
        <pt x="302" y="-517" on="0"/>
        <pt x="312" y="-424" on="0"/>
        <pt x="324" y="-330" on="0"/>
        <pt x="335" y="-248" on="0"/>
        <pt x="345" y="-187" on="0"/>
        <pt x="348" y="-173" on="1"/>
        <pt x="354" y="-145" on="0"/>
        <pt x="376" y="-83" on="0"/>
        <pt x="412" y="-33" on="0"/>
        <pt x="463" y="0" on="0"/>
        <pt x="499" y="0" on="1"/>
        <pt x="522" y="0" on="0"/>
        <pt x="562" y="-12" on="0"/>
        <pt x="592" y="-35" on="0"/>
        <pt x="609" y="-65" on="0"/>
        <pt x="609" y="-83" on="1"/>
        <pt x="609" y="-106" on="0"/>
        <pt x="582" y="-126" on="0"/>
        <pt x="567" y="-126" on="1"/>
        <pt x="553" y="-126" on="0"/>
        <pt x="526" y="-106" on="0"/>
        <pt x="526" y="-84" on="1"/>
        <pt x="526" y="-73" on="0"/>
        <pt x="541" y="-46" on="0"/>
        <pt x="563" y="-43" on="1"/>
        <pt x="546" y="-29" on="0"/>
        <pt x="508" y="-22" on="0"/>
        <pt x="500" y="-22" on="1"/>
        <pt x="483" y="-22" on="0"/>
        <pt x="454" y="-36" on="0"/>
        <pt x="430" y="-79" on="0"/>
        <pt x="412" y="-162" on="0"/>
        <pt x="407" y="-231" on="1"/>
        <pt x="388" y="-480" on="1"/>
        <pt x="386" y="-508" on="0"/>
        <pt x="378" y="-589" on="0"/>
        <pt x="367" y="-682" on="0"/>
        <pt x="355" y="-777" on="0"/>
        <pt x="344" y="-859" on="0"/>
        <pt x="334" y="-921" on="0"/>
        <pt x="331" y="-934" on="1"/>
        <pt x="323" y="-968" on="0"/>
        <pt x="296" y="-1032" on="0"/>
        <pt x="256" y="-1081" on="0"/>
        <pt x="202" y="-1111" on="0"/>
        <pt x="166" y="-1111" on="1"/>
        <pt x="144" y="-1111" on="0"/>
        <pt x="104" y="-1099" on="0"/>
        <pt x="74" y="-1076" on="0"/>
        <pt x="56" y="-1046" on="0"/>
        <pt x="56" y="-1028" on="1"/>
        <pt x="56" y="-1005" on="0"/>
        <pt x="83" y="-985" on="0"/>
        <pt x="98" y="-985" on="1"/>
        <pt x="112" y="-985" on="0"/>
        <pt x="139" y="-1005" on="0"/>
        <pt x="139" y="-1027" on="1"/>
        <pt x="139" y="-1038" on="0"/>
        <pt x="124" y="-1065" on="0"/>
        <pt x="102" y="-1068" on="1"/>
        <pt x="118" y="-1082" on="0"/>
        <pt x="156" y="-1089" on="0"/>
        <pt x="166" y="-1089" on="1"/>
        <pt x="187" y="-1089" on="0"/>
        <pt x="222" y="-1070" on="0"/>
        <pt x="249" y="-1022" on="0"/>
        <pt x="267" y="-942" on="0"/>
        <pt x="272" y="-880" on="1"/>
      </contour>
    </TTGlyph>
    <TTGlyph name="intersectiondisplay" xMin="56" yMin="-1400" xMax="1054" yMax="0">
      <contour>
        <pt x="971" y="-482" on="1"/>
        <pt x="971" y="-397" on="0"/>
        <pt x="904" y="-250" on="0"/>
        <pt x="790" y="-144" on="0"/>
        <pt x="639" y="-83" on="0"/>
        <pt x="555" y="-83" on="1"/>
        <pt x="471" y="-83" on="0"/>
        <pt x="320" y="-143" on="0"/>
        <pt x="206" y="-250" on="0"/>
        <pt x="139" y="-396" on="0"/>
        <pt x="139" y="-482" on="1"/>
        <pt x="139" y="-1345" on="1"/>
        <pt x="139" y="-1350" on="0"/>
        <pt x="138" y="-1369" on="0"/>
        <pt x="130" y="-1387" on="0"/>
        <pt x="113" y="-1400" on="0"/>
        <pt x="97" y="-1400" on="1"/>
        <pt x="82" y="-1400" on="0"/>
        <pt x="65" y="-1386" on="0"/>
        <pt x="57" y="-1368" on="0"/>
        <pt x="56" y="-1350" on="0"/>
        <pt x="56" y="-1345" on="1"/>
        <pt x="56" y="-477" on="1"/>
        <pt x="56" y="-381" on="0"/>
        <pt x="133" y="-207" on="0"/>
        <pt x="268" y="-77" on="0"/>
        <pt x="450" y="0" on="0"/>
        <pt x="555" y="0" on="1"/>
        <pt x="660" y="0" on="0"/>
        <pt x="842" y="-77" on="0"/>
        <pt x="977" y="-207" on="0"/>
        <pt x="1054" y="-381" on="0"/>
        <pt x="1054" y="-477" on="1"/>
        <pt x="1054" y="-1345" on="1"/>
        <pt x="1054" y="-1350" on="0"/>
        <pt x="1053" y="-1369" on="0"/>
        <pt x="1045" y="-1387" on="0"/>
        <pt x="1028" y="-1400" on="0"/>
        <pt x="1012" y="-1400" on="1"/>
        <pt x="997" y="-1400" on="0"/>
        <pt x="980" y="-1386" on="0"/>
        <pt x="972" y="-1368" on="0"/>
        <pt x="971" y="-1350" on="0"/>
        <pt x="971" y="-1345" on="1"/>
      </contour>
    </TTGlyph>
    <TTGlyph name="intersectiontext" xMin="56" yMin="-1000" xMax="776" yMax="0">
      <contour>
        <pt x="707" y="-349" on="1"/>
        <pt x="707" y="-285" on="0"/>
        <pt x="658" y="-182" on="0"/>
        <pt x="577" y="-109" on="0"/>
        <pt x="472" y="-69" on="0"/>
        <pt x="416" y="-69" on="1"/>
        <pt x="360" y="-69" on="0"/>
        <pt x="255" y="-109" on="0"/>
        <pt x="174" y="-182" on="0"/>
        <pt x="125" y="-286" on="0"/>
        <pt x="125" y="-349" on="1"/>
        <pt x="125" y="-952" on="1"/>
        <pt x="125" y="-958" on="0"/>
        <pt x="124" y="-974" on="0"/>
        <pt x="117" y="-989" on="0"/>
        <pt x="103" y="-1000" on="0"/>
        <pt x="90" y="-1000" on="1"/>
        <pt x="77" y="-1000" on="0"/>
        <pt x="63" y="-989" on="0"/>
        <pt x="57" y="-974" on="0"/>
        <pt x="56" y="-957" on="0"/>
        <pt x="56" y="-952" on="1"/>
        <pt x="56" y="-345" on="1"/>
        <pt x="56" y="-272" on="0"/>
        <pt x="114" y="-146" on="0"/>
        <pt x="212" y="-53" on="0"/>
        <pt x="343" y="0" on="0"/>
        <pt x="416" y="0" on="1"/>
        <pt x="489" y="0" on="0"/>
        <pt x="620" y="-53" on="0"/>
        <pt x="718" y="-146" on="0"/>
        <pt x="776" y="-272" on="0"/>
        <pt x="776" y="-345" on="1"/>
        <pt x="776" y="-952" on="1"/>
        <pt x="776" y="-958" on="0"/>
        <pt x="775" y="-974" on="0"/>
        <pt x="768" y="-989" on="0"/>
        <pt x="754" y="-1000" on="0"/>
        <pt x="741" y="-1000" on="1"/>
        <pt x="728" y="-1000" on="0"/>
        <pt x="714" y="-989" on="0"/>
        <pt x="708" y="-974" on="0"/>
        <pt x="707" y="-957" on="0"/>
        <pt x="707" y="-952" on="1"/>
      </contour>
    </TTGlyph>
    <TTGlyph name="logicalanddisplay" xMin="56" yMin="-1400" xMax="1054" yMax="0">
      <contour>
        <pt x="555" y="-168" on="1"/>
        <pt x="139" y="-1364" on="1"/>
        <pt x="135" y="-1374" on="0"/>
        <pt x="120" y="-1400" on="0"/>
        <pt x="98" y="-1400" on="1"/>
        <pt x="81" y="-1400" on="0"/>
        <pt x="56" y="-1376" on="0"/>
        <pt x="56" y="-1358" on="1"/>
        <pt x="56" y="-1354" on="0"/>
        <pt x="57" y="-1347" on="0"/>
        <pt x="62" y="-1335" on="1"/>
        <pt x="513" y="-37" on="1"/>
        <pt x="516" y="-27" on="0"/>
        <pt x="533" y="0" on="0"/>
        <pt x="555" y="0" on="1"/>
        <pt x="567" y="0" on="0"/>
        <pt x="588" y="-12" on="0"/>
        <pt x="593" y="-23" on="1"/>
        <pt x="1048" y="-1335" on="1"/>
        <pt x="1053" y="-1347" on="0"/>
        <pt x="1054" y="-1354" on="0"/>
        <pt x="1054" y="-1358" on="1"/>
        <pt x="1054" y="-1375" on="0"/>
        <pt x="1030" y="-1400" on="0"/>
        <pt x="1012" y="-1400" on="1"/>
        <pt x="990" y="-1400" on="0"/>
        <pt x="974" y="-1373" on="0"/>
        <pt x="970" y="-1362" on="1"/>
      </contour>
    </TTGlyph>
    <TTGlyph name="logicalandtext" xMin="56" yMin="-1000" xMax="776" yMax="0">
      <contour>
        <pt x="416" y="-139" on="1"/>
        <pt x="126" y="-970" on="1"/>
        <pt x="116" y="-1000" on="0"/>
        <pt x="90" y="-1000" on="1"/>
        <pt x="77" y="-1000" on="0"/>
        <pt x="56" y="-981" on="0"/>
        <pt x="56" y="-965" on="1"/>
        <pt x="56" y="-964" on="0"/>
        <pt x="57" y="-955" on="0"/>
        <pt x="61" y="-944" on="1"/>
        <pt x="381" y="-32" on="1"/>
        <pt x="385" y="-21" on="0"/>
        <pt x="398" y="0" on="0"/>
        <pt x="416" y="0" on="1"/>
        <pt x="435" y="0" on="0"/>
        <pt x="448" y="-22" on="0"/>
        <pt x="452" y="-33" on="1"/>
        <pt x="771" y="-944" on="1"/>
        <pt x="775" y="-955" on="0"/>
        <pt x="776" y="-964" on="0"/>
        <pt x="776" y="-965" on="1"/>
        <pt x="776" y="-981" on="0"/>
        <pt x="755" y="-1000" on="0"/>
        <pt x="742" y="-1000" on="1"/>
        <pt x="723" y="-1000" on="0"/>
        <pt x="710" y="-978" on="0"/>
        <pt x="705" y="-965" on="1"/>
      </contour>
    </TTGlyph>
    <TTGlyph name="logicalordisplay" xMin="56" yMin="-1400" xMax="1054" yMax="0">
      <contour>
        <pt x="62" y="-65" on="1"/>
        <pt x="57" y="-53" on="0"/>
        <pt x="56" y="-46" on="0"/>
        <pt x="56" y="-42" on="1"/>
        <pt x="56" y="-25" on="0"/>
        <pt x="80" y="0" on="0"/>
        <pt x="98" y="0" on="1"/>
        <pt x="120" y="0" on="0"/>
        <pt x="136" y="-27" on="0"/>
        <pt x="140" y="-38" on="1"/>
        <pt x="555" y="-1232" on="1"/>
        <pt x="971" y="-36" on="1"/>
        <pt x="975" y="-26" on="0"/>
        <pt x="990" y="0" on="0"/>
        <pt x="1012" y="0" on="1"/>
        <pt x="1029" y="0" on="0"/>
        <pt x="1054" y="-24" on="0"/>
        <pt x="1054" y="-42" on="1"/>
        <pt x="1054" y="-46" on="0"/>
        <pt x="1053" y="-53" on="0"/>
        <pt x="1048" y="-65" on="1"/>
        <pt x="597" y="-1363" on="1"/>
        <pt x="593" y="-1374" on="0"/>
        <pt x="577" y="-1400" on="0"/>
        <pt x="555" y="-1400" on="1"/>
        <pt x="533" y="-1400" on="0"/>
        <pt x="516" y="-1373" on="0"/>
        <pt x="513" y="-1363" on="1"/>
      </contour>
    </TTGlyph>
    <TTGlyph name="logicalortext" xMin="56" yMin="-1000" xMax="776" yMax="0">
      <contour>
        <pt x="61" y="-56" on="1"/>
        <pt x="57" y="-45" on="0"/>
        <pt x="56" y="-37" on="0"/>
        <pt x="56" y="-35" on="1"/>
        <pt x="56" y="-19" on="0"/>
        <pt x="77" y="0" on="0"/>
        <pt x="90" y="0" on="1"/>
        <pt x="109" y="0" on="0"/>
        <pt x="122" y="-22" on="0"/>
        <pt x="127" y="-35" on="1"/>
        <pt x="416" y="-861" on="1"/>
        <pt x="706" y="-30" on="1"/>
        <pt x="717" y="0" on="0"/>
        <pt x="742" y="0" on="1"/>
        <pt x="755" y="0" on="0"/>
        <pt x="776" y="-19" on="0"/>
        <pt x="776" y="-35" on="1"/>
        <pt x="776" y="-36" on="0"/>
        <pt x="775" y="-45" on="0"/>
        <pt x="771" y="-56" on="1"/>
        <pt x="451" y="-968" on="1"/>
        <pt x="447" y="-979" on="0"/>
        <pt x="434" y="-1000" on="0"/>
        <pt x="416" y="-1000" on="1"/>
        <pt x="399" y="-1000" on="0"/>
        <pt x="384" y="-980" on="0"/>
        <pt x="379" y="-966" on="1"/>
      </contour>
    </TTGlyph>
    <TTGlyph name="parenleftBig" xMin="180" yMin="-1759" xMax="560" yMax="40">
      <contour>
        <pt x="476" y="-1712" on="1"/>
        <pt x="470" y="-1707" on="0"/>
        <pt x="452" y="-1686" on="0"/>
        <pt x="444" y="-1677" on="1"/>
        <pt x="444" y="-1677" on="0"/>
        <pt x="432" y="-1662" on="0"/>
        <pt x="413" y="-1639" on="0"/>
        <pt x="390" y="-1611" on="0"/>
        <pt x="380" y="-1596" on="1"/>
        <pt x="321" y="-1509" on="0"/>
        <pt x="244" y="-1324" on="0"/>
        <pt x="198" y="-1135" on="0"/>
        <pt x="180" y="-948" on="0"/>
        <pt x="180" y="-859" on="1"/>
        <pt x="180" y="-734" on="0"/>
        <pt x="214" y="-500" on="0"/>
        <pt x="246" y="-400" on="1"/>
        <pt x="272" y="-321" on="0"/>
        <pt x="336" y="-189" on="0"/>
        <pt x="407" y="-82" on="0"/>
        <pt x="481" y="1" on="0"/>
        <pt x="517" y="32" on="1"/>
        <pt x="524" y="38" on="0"/>
        <pt x="531" y="40" on="0"/>
        <pt x="541" y="40" on="1"/>
        <pt x="550" y="40" on="0"/>
        <pt x="560" y="38" on="0"/>
        <pt x="560" y="30" on="1"/>
        <pt x="560" y="25" on="0"/>
        <pt x="557" y="22" on="1"/>
        <pt x="491" y="-44" on="0"/>
        <pt x="381" y="-212" on="0"/>
        <pt x="301" y="-426" on="0"/>
        <pt x="256" y="-694" on="0"/>
        <pt x="256" y="-860" on="1"/>
        <pt x="256" y="-981" on="0"/>
        <pt x="284" y="-1220" on="0"/>
        <pt x="353" y="-1446" on="0"/>
        <pt x="468" y="-1652" on="0"/>
        <pt x="556" y="-1740" on="1"/>
        <pt x="558" y="-1742" on="0"/>
        <pt x="560" y="-1746" on="0"/>
        <pt x="560" y="-1749" on="1"/>
        <pt x="560" y="-1756" on="0"/>
        <pt x="551" y="-1759" on="0"/>
        <pt x="549" y="-1759" on="1"/>
        <pt x="527" y="-1759" on="1"/>
        <pt x="526" y="-1759" on="0"/>
        <pt x="517" y="-1749" on="0"/>
        <pt x="515" y="-1748" on="1"/>
      </contour>
    </TTGlyph>
    <TTGlyph name="parenleftBigg" xMin="236" yMin="-2959" xMax="757" yMax="40">
      <contour>
        <pt x="757" y="-2949" on="1"/>
        <pt x="757" y="-2957" on="0"/>
        <pt x="746" y="-2959" on="0"/>
        <pt x="735" y="-2959" on="1"/>
        <pt x="722" y="-2959" on="0"/>
        <pt x="715" y="-2956" on="0"/>
        <pt x="708" y="-2950" on="1"/>
        <pt x="568" y="-2803" on="0"/>
        <pt x="385" y="-2447" on="0"/>
        <pt x="278" y="-2060" on="0"/>
        <pt x="236" y="-1656" on="0"/>
        <pt x="236" y="-1459" on="1"/>
        <pt x="236" y="-1289" on="0"/>
        <pt x="267" y="-938" on="0"/>
        <pt x="344" y="-597" on="0"/>
        <pt x="475" y="-274" on="0"/>
        <pt x="575" y="-133" on="1"/>
        <pt x="634" y="-50" on="0"/>
        <pt x="715" y="37" on="0"/>
        <pt x="716" y="38" on="1"/>
        <pt x="718" y="40" on="0"/>
        <pt x="724" y="40" on="0"/>
        <pt x="735" y="40" on="1"/>
        <pt x="746" y="40" on="0"/>
        <pt x="757" y="38" on="0"/>
        <pt x="757" y="30" on="1"/>
        <pt x="757" y="27" on="0"/>
        <pt x="755" y="23" on="0"/>
        <pt x="753" y="21" on="1"/>
        <pt x="686" y="-60" on="0"/>
        <pt x="574" y="-236" on="0"/>
        <pt x="530" y="-332" on="1"/>
        <pt x="475" y="-455" on="0"/>
        <pt x="399" y="-718" on="0"/>
        <pt x="353" y="-1000" on="0"/>
        <pt x="333" y="-1300" on="0"/>
        <pt x="333" y="-1460" on="1"/>
        <pt x="333" y="-1621" on="0"/>
        <pt x="353" y="-1917" on="0"/>
        <pt x="397" y="-2190" on="0"/>
        <pt x="467" y="-2439" on="0"/>
        <pt x="516" y="-2554" on="1"/>
        <pt x="561" y="-2659" on="0"/>
        <pt x="679" y="-2849" on="0"/>
        <pt x="751" y="-2937" on="1"/>
        <pt x="756" y="-2942" on="0"/>
        <pt x="757" y="-2947" on="0"/>
      </contour>
    </TTGlyph>
    <TTGlyph name="parenleftbig" xMin="152" yMin="-1159" xMax="413" yMax="40">
      <contour>
        <pt x="413" y="-1149" on="1"/>
        <pt x="413" y="-1157" on="0"/>
        <pt x="404" y="-1159" on="0"/>
        <pt x="401" y="-1159" on="1"/>
        <pt x="394" y="-1159" on="0"/>
        <pt x="366" y="-1135" on="0"/>
        <pt x="337" y="-1104" on="0"/>
        <pt x="312" y="-1076" on="0"/>
        <pt x="308" y="-1071" on="1"/>
        <pt x="259" y="-1008" on="0"/>
        <pt x="198" y="-872" on="0"/>
        <pt x="164" y="-738" on="0"/>
        <pt x="152" y="-612" on="0"/>
        <pt x="152" y="-559" on="1"/>
        <pt x="152" y="-391" on="0"/>
        <pt x="242" y="-126" on="0"/>
        <pt x="319" y="-35" on="1"/>
        <pt x="324" y="-29" on="0"/>
        <pt x="347" y="-5" on="0"/>
        <pt x="372" y="21" on="0"/>
        <pt x="395" y="40" on="0"/>
        <pt x="401" y="40" on="1"/>
        <pt x="404" y="40" on="0"/>
        <pt x="413" y="38" on="0"/>
        <pt x="413" y="30" on="1"/>
        <pt x="413" y="28" on="0"/>
        <pt x="411" y="24" on="0"/>
        <pt x="404" y="17" on="1"/>
        <pt x="313" y="-81" on="0"/>
        <pt x="221" y="-362" on="0"/>
        <pt x="221" y="-560" on="1"/>
        <pt x="221" y="-639" on="0"/>
        <pt x="238" y="-795" on="0"/>
        <pt x="280" y="-944" on="0"/>
        <pt x="353" y="-1081" on="0"/>
        <pt x="409" y="-1140" on="1"/>
        <pt x="411" y="-1142" on="0"/>
        <pt x="413" y="-1146" on="0"/>
      </contour>
    </TTGlyph>
    <TTGlyph name="parenleftbigg" xMin="208" yMin="-2359" xMax="700" yMax="40">
      <contour>
        <pt x="700" y="-2349" on="1"/>
        <pt x="700" y="-2357" on="0"/>
        <pt x="690" y="-2359" on="0"/>
        <pt x="679" y="-2359" on="1"/>
        <pt x="668" y="-2359" on="0"/>
        <pt x="660" y="-2356" on="0"/>
        <pt x="651" y="-2347" on="1"/>
        <pt x="527" y="-2238" on="0"/>
        <pt x="358" y="-1959" on="0"/>
        <pt x="254" y="-1647" on="0"/>
        <pt x="208" y="-1318" on="0"/>
        <pt x="208" y="-1159" on="1"/>
        <pt x="208" y="-1001" on="0"/>
        <pt x="251" y="-677" on="0"/>
        <pt x="353" y="-370" on="0"/>
        <pt x="522" y="-89" on="0"/>
        <pt x="648" y="25" on="1"/>
        <pt x="659" y="36" on="0"/>
        <pt x="668" y="40" on="0"/>
        <pt x="679" y="40" on="1"/>
        <pt x="690" y="40" on="0"/>
        <pt x="700" y="38" on="0"/>
        <pt x="700" y="30" on="1"/>
        <pt x="700" y="25" on="0"/>
        <pt x="697" y="22" on="1"/>
        <pt x="681" y="6" on="0"/>
        <pt x="635" y="-42" on="0"/>
        <pt x="581" y="-108" on="0"/>
        <pt x="522" y="-193" on="0"/>
        <pt x="492" y="-246" on="1"/>
        <pt x="430" y="-358" on="0"/>
        <pt x="352" y="-596" on="0"/>
        <pt x="307" y="-832" on="0"/>
        <pt x="291" y="-1059" on="0"/>
        <pt x="291" y="-1160" on="1"/>
        <pt x="291" y="-1451" on="0"/>
        <pt x="404" y="-1933" on="0"/>
        <pt x="525" y="-2128" on="1"/>
        <pt x="576" y="-2209" on="0"/>
        <pt x="668" y="-2312" on="0"/>
        <pt x="696" y="-2340" on="1"/>
        <pt x="698" y="-2342" on="0"/>
        <pt x="700" y="-2346" on="0"/>
      </contour>
    </TTGlyph>
    <TTGlyph name="parenleftbt" xMin="291" yMin="-1759" xMax="842" yMax="50">
      <contour>
        <pt x="374" y="50" on="1"/>
        <pt x="391" y="50" on="0"/>
        <pt x="402" y="47" on="0"/>
        <pt x="402" y="36" on="1"/>
        <pt x="402" y="-247" on="0"/>
        <pt x="444" y="-741" on="0"/>
        <pt x="545" y="-1178" on="0"/>
        <pt x="711" y="-1563" on="0"/>
        <pt x="836" y="-1736" on="1"/>
        <pt x="841" y="-1743" on="0"/>
        <pt x="842" y="-1747" on="0"/>
        <pt x="842" y="-1749" on="1"/>
        <pt x="842" y="-1757" on="0"/>
        <pt x="831" y="-1759" on="0"/>
        <pt x="819" y="-1759" on="1"/>
        <pt x="807" y="-1759" on="0"/>
        <pt x="802" y="-1758" on="0"/>
        <pt x="800" y="-1757" on="1"/>
        <pt x="797" y="-1755" on="0"/>
        <pt x="788" y="-1746" on="0"/>
        <pt x="777" y="-1732" on="1"/>
        <pt x="630" y="-1551" on="0"/>
        <pt x="442" y="-1134" on="0"/>
        <pt x="333" y="-688" on="0"/>
        <pt x="291" y="-226" on="0"/>
        <pt x="291" y="0" on="1"/>
        <pt x="291" y="39" on="1"/>
        <pt x="292" y="47" on="0"/>
        <pt x="303" y="50" on="0"/>
        <pt x="319" y="50" on="1"/>
      </contour>
    </TTGlyph>
    <TTGlyph name="parenleftex" xMin="291" yMin="-610" xMax="402" yMax="10">
      <contour>
        <pt x="402" y="-583" on="1"/>
        <pt x="402" y="-603" on="0"/>
        <pt x="394" y="-610" on="0"/>
        <pt x="374" y="-610" on="1"/>
        <pt x="319" y="-610" on="1"/>
        <pt x="299" y="-610" on="0"/>
        <pt x="291" y="-603" on="0"/>
        <pt x="291" y="-583" on="1"/>
        <pt x="291" y="-17" on="1"/>
        <pt x="291" y="3" on="0"/>
        <pt x="299" y="10" on="0"/>
        <pt x="319" y="10" on="1"/>
        <pt x="374" y="10" on="1"/>
        <pt x="394" y="10" on="0"/>
        <pt x="402" y="3" on="0"/>
        <pt x="402" y="-17" on="1"/>
      </contour>
    </TTGlyph>
    <TTGlyph name="parenlefttp" xMin="291" yMin="-1770" xMax="842" yMax="39">
      <contour>
        <pt x="319" y="-1770" on="1"/>
        <pt x="303" y="-1770" on="0"/>
        <pt x="292" y="-1767" on="0"/>
        <pt x="291" y="-1759" on="1"/>
        <pt x="291" y="-1720" on="1"/>
        <pt x="291" y="-1542" on="0"/>
        <pt x="317" y="-1178" on="0"/>
        <pt x="380" y="-820" on="0"/>
        <pt x="486" y="-474" on="0"/>
        <pt x="567" y="-313" on="1"/>
        <pt x="605" y="-238" on="0"/>
        <pt x="686" y="-110" on="0"/>
        <pt x="753" y="-17" on="0"/>
        <pt x="798" y="36" on="0"/>
        <pt x="799" y="37" on="1"/>
        <pt x="801" y="39" on="0"/>
        <pt x="807" y="39" on="0"/>
        <pt x="819" y="39" on="1"/>
        <pt x="831" y="39" on="0"/>
        <pt x="842" y="37" on="0"/>
        <pt x="842" y="29" on="1"/>
        <pt x="842" y="27" on="0"/>
        <pt x="840" y="23" on="0"/>
        <pt x="835" y="16" on="1"/>
        <pt x="704" y="-167" on="0"/>
        <pt x="536" y="-570" on="0"/>
        <pt x="440" y="-1011" on="0"/>
        <pt x="403" y="-1493" on="0"/>
        <pt x="402" y="-1756" on="1"/>
        <pt x="402" y="-1767" on="0"/>
        <pt x="391" y="-1770" on="0"/>
        <pt x="374" y="-1770" on="1"/>
      </contour>
    </TTGlyph>
    <TTGlyph name="parenrightBig" xMin="36" yMin="-1759" xMax="416" yMax="40">
      <contour>
        <pt x="416" y="-859" on="1"/>
        <pt x="416" y="-978" on="0"/>
        <pt x="381" y="-1226" on="0"/>
        <pt x="302" y="-1460" on="0"/>
        <pt x="173" y="-1670" on="0"/>
        <pt x="79" y="-1751" on="1"/>
        <pt x="72" y="-1757" on="0"/>
        <pt x="65" y="-1759" on="0"/>
        <pt x="55" y="-1759" on="1"/>
        <pt x="47" y="-1759" on="0"/>
        <pt x="36" y="-1757" on="0"/>
        <pt x="36" y="-1749" on="1"/>
        <pt x="36" y="-1745" on="0"/>
        <pt x="40" y="-1741" on="1"/>
        <pt x="108" y="-1672" on="0"/>
        <pt x="218" y="-1502" on="0"/>
        <pt x="297" y="-1287" on="0"/>
        <pt x="340" y="-1022" on="0"/>
        <pt x="340" y="-859" on="1"/>
        <pt x="340" y="-737" on="0"/>
        <pt x="312" y="-499" on="0"/>
        <pt x="244" y="-275" on="0"/>
        <pt x="129" y="-70" on="0"/>
        <pt x="42" y="20" on="1"/>
        <pt x="40" y="22" on="0"/>
        <pt x="36" y="27" on="0"/>
        <pt x="36" y="30" on="1"/>
        <pt x="36" y="38" on="0"/>
        <pt x="47" y="40" on="0"/>
        <pt x="55" y="40" on="1"/>
        <pt x="65" y="40" on="0"/>
        <pt x="72" y="39" on="0"/>
        <pt x="77" y="34" on="1"/>
        <pt x="171" y="-48" on="0"/>
        <pt x="301" y="-257" on="0"/>
        <pt x="381" y="-491" on="0"/>
        <pt x="416" y="-738" on="0"/>
      </contour>
    </TTGlyph>
    <TTGlyph name="parenrightBigg" xMin="34" yMin="-2959" xMax="555" yMax="40">
      <contour>
        <pt x="555" y="-1460" on="1"/>
        <pt x="555" y="-1630" on="0"/>
        <pt x="524" y="-1981" on="0"/>
        <pt x="447" y="-2322" on="0"/>
        <pt x="316" y="-2645" on="0"/>
        <pt x="216" y="-2786" on="1"/>
        <pt x="157" y="-2869" on="0"/>
        <pt x="76" y="-2956" on="0"/>
        <pt x="75" y="-2957" on="1"/>
        <pt x="73" y="-2959" on="0"/>
        <pt x="67" y="-2959" on="0"/>
        <pt x="56" y="-2959" on="1"/>
        <pt x="45" y="-2959" on="0"/>
        <pt x="34" y="-2957" on="0"/>
        <pt x="34" y="-2949" on="1"/>
        <pt x="34" y="-2947" on="0"/>
        <pt x="37" y="-2942" on="0"/>
        <pt x="38" y="-2940" on="1"/>
        <pt x="105" y="-2859" on="0"/>
        <pt x="217" y="-2683" on="0"/>
        <pt x="261" y="-2587" on="1"/>
        <pt x="317" y="-2464" on="0"/>
        <pt x="392" y="-2201" on="0"/>
        <pt x="438" y="-1919" on="0"/>
        <pt x="458" y="-1619" on="0"/>
        <pt x="458" y="-1459" on="1"/>
        <pt x="458" y="-1137" on="0"/>
        <pt x="373" y="-595" on="0"/>
        <pt x="275" y="-365" on="1"/>
        <pt x="230" y="-260" on="0"/>
        <pt x="112" y="-70" on="0"/>
        <pt x="40" y="18" on="1"/>
        <pt x="38" y="20" on="0"/>
        <pt x="34" y="27" on="0"/>
        <pt x="34" y="30" on="1"/>
        <pt x="34" y="38" on="0"/>
        <pt x="45" y="40" on="0"/>
        <pt x="56" y="40" on="1"/>
        <pt x="69" y="40" on="0"/>
        <pt x="76" y="37" on="0"/>
        <pt x="83" y="31" on="1"/>
        <pt x="177" y="-67" on="0"/>
        <pt x="319" y="-292" on="0"/>
        <pt x="424" y="-536" on="0"/>
        <pt x="494" y="-795" on="0"/>
        <pt x="537" y="-1061" on="0"/>
        <pt x="555" y="-1329" on="0"/>
      </contour>
    </TTGlyph>
    <TTGlyph name="parenrightbig" xMin="44" yMin="-1159" xMax="305" yMax="40">
      <contour>
        <pt x="305" y="-560" on="1"/>
        <pt x="305" y="-728" on="0"/>
        <pt x="215" y="-993" on="0"/>
        <pt x="138" y="-1084" on="1"/>
        <pt x="134" y="-1089" on="0"/>
        <pt x="111" y="-1114" on="0"/>
        <pt x="85" y="-1140" on="0"/>
        <pt x="62" y="-1159" on="0"/>
        <pt x="56" y="-1159" on="1"/>
        <pt x="52" y="-1159" on="0"/>
        <pt x="44" y="-1155" on="0"/>
        <pt x="44" y="-1149" on="1"/>
        <pt x="44" y="-1147" on="0"/>
        <pt x="46" y="-1143" on="0"/>
        <pt x="53" y="-1136" on="1"/>
        <pt x="108" y="-1076" on="0"/>
        <pt x="179" y="-940" on="0"/>
        <pt x="220" y="-793" on="0"/>
        <pt x="236" y="-638" on="0"/>
        <pt x="236" y="-559" on="1"/>
        <pt x="236" y="-480" on="0"/>
        <pt x="219" y="-324" on="0"/>
        <pt x="177" y="-176" on="0"/>
        <pt x="105" y="-40" on="0"/>
        <pt x="50" y="20" on="1"/>
        <pt x="44" y="25" on="0"/>
        <pt x="44" y="30" on="1"/>
        <pt x="44" y="36" on="0"/>
        <pt x="52" y="40" on="0"/>
        <pt x="56" y="40" on="1"/>
        <pt x="63" y="40" on="0"/>
        <pt x="91" y="16" on="0"/>
        <pt x="120" y="-15" on="0"/>
        <pt x="145" y="-44" on="0"/>
        <pt x="149" y="-48" on="1"/>
        <pt x="198" y="-111" on="0"/>
        <pt x="259" y="-247" on="0"/>
        <pt x="293" y="-381" on="0"/>
        <pt x="305" y="-507" on="0"/>
      </contour>
    </TTGlyph>
    <TTGlyph name="parenrightbigg" xMin="35" yMin="-2359" xMax="527" yMax="40">
      <contour>
        <pt x="527" y="-1160" on="1"/>
        <pt x="527" y="-1318" on="0"/>
        <pt x="484" y="-1642" on="0"/>
        <pt x="382" y="-1949" on="0"/>
        <pt x="213" y="-2230" on="0"/>
        <pt x="87" y="-2344" on="1"/>
        <pt x="76" y="-2355" on="0"/>
        <pt x="67" y="-2359" on="0"/>
        <pt x="56" y="-2359" on="1"/>
        <pt x="47" y="-2359" on="0"/>
        <pt x="35" y="-2357" on="0"/>
        <pt x="35" y="-2349" on="1"/>
        <pt x="35" y="-2346" on="0"/>
        <pt x="39" y="-2340" on="1"/>
        <pt x="55" y="-2324" on="0"/>
        <pt x="100" y="-2277" on="0"/>
        <pt x="154" y="-2211" on="0"/>
        <pt x="213" y="-2126" on="0"/>
        <pt x="243" y="-2073" on="1"/>
        <pt x="305" y="-1961" on="0"/>
        <pt x="383" y="-1723" on="0"/>
        <pt x="428" y="-1487" on="0"/>
        <pt x="444" y="-1260" on="0"/>
        <pt x="444" y="-1159" on="1"/>
        <pt x="444" y="-868" on="0"/>
        <pt x="331" y="-386" on="0"/>
        <pt x="210" y="-191" on="1"/>
        <pt x="159" y="-110" on="0"/>
        <pt x="67" y="-7" on="0"/>
        <pt x="41" y="20" on="1"/>
        <pt x="39" y="22" on="0"/>
        <pt x="35" y="27" on="0"/>
        <pt x="35" y="30" on="1"/>
        <pt x="35" y="38" on="0"/>
        <pt x="47" y="40" on="0"/>
        <pt x="56" y="40" on="1"/>
        <pt x="67" y="40" on="0"/>
        <pt x="75" y="37" on="0"/>
        <pt x="84" y="28" on="1"/>
        <pt x="208" y="-81" on="0"/>
        <pt x="377" y="-360" on="0"/>
        <pt x="481" y="-672" on="0"/>
        <pt x="527" y="-1001" on="0"/>
      </contour>
    </TTGlyph>
    <TTGlyph name="parenrightbt" xMin="32" yMin="-1759" xMax="583" yMax="50">
      <contour>
        <pt x="583" y="0" on="1"/>
        <pt x="583" y="-179" on="0"/>
        <pt x="557" y="-542" on="0"/>
        <pt x="494" y="-900" on="0"/>
        <pt x="388" y="-1246" on="0"/>
        <pt x="307" y="-1407" on="1"/>
        <pt x="269" y="-1482" on="0"/>
        <pt x="188" y="-1610" on="0"/>
        <pt x="121" y="-1703" on="0"/>
        <pt x="77" y="-1756" on="0"/>
        <pt x="75" y="-1757" on="1"/>
        <pt x="73" y="-1759" on="0"/>
        <pt x="67" y="-1759" on="0"/>
        <pt x="55" y="-1759" on="1"/>
        <pt x="44" y="-1759" on="0"/>
        <pt x="32" y="-1757" on="0"/>
        <pt x="32" y="-1749" on="1"/>
        <pt x="32" y="-1747" on="0"/>
        <pt x="34" y="-1743" on="0"/>
        <pt x="39" y="-1736" on="1"/>
        <pt x="179" y="-1540" on="0"/>
        <pt x="349" y="-1112" on="0"/>
        <pt x="442" y="-662" on="0"/>
        <pt x="472" y="-197" on="0"/>
        <pt x="472" y="36" on="1"/>
        <pt x="472" y="47" on="0"/>
        <pt x="483" y="50" on="0"/>
        <pt x="500" y="50" on="1"/>
        <pt x="555" y="50" on="1"/>
        <pt x="571" y="50" on="0"/>
        <pt x="582" y="47" on="0"/>
        <pt x="583" y="39" on="1"/>
      </contour>
    </TTGlyph>
    <TTGlyph name="parenrightex" xMin="472" yMin="-610" xMax="583" yMax="10">
      <contour>
        <pt x="583" y="-583" on="1"/>
        <pt x="583" y="-603" on="0"/>
        <pt x="575" y="-610" on="0"/>
        <pt x="555" y="-610" on="1"/>
        <pt x="500" y="-610" on="1"/>
        <pt x="480" y="-610" on="0"/>
        <pt x="472" y="-603" on="0"/>
        <pt x="472" y="-583" on="1"/>
        <pt x="472" y="-17" on="1"/>
        <pt x="472" y="3" on="0"/>
        <pt x="480" y="10" on="0"/>
        <pt x="500" y="10" on="1"/>
        <pt x="555" y="10" on="1"/>
        <pt x="575" y="10" on="0"/>
        <pt x="583" y="3" on="0"/>
        <pt x="583" y="-17" on="1"/>
      </contour>
    </TTGlyph>
    <TTGlyph name="parenrighttp" xMin="32" yMin="-1770" xMax="583" yMax="39">
      <contour>
        <pt x="583" y="-1759" on="1"/>
        <pt x="582" y="-1767" on="0"/>
        <pt x="571" y="-1770" on="0"/>
        <pt x="555" y="-1770" on="1"/>
        <pt x="500" y="-1770" on="1"/>
        <pt x="483" y="-1770" on="0"/>
        <pt x="472" y="-1767" on="0"/>
        <pt x="472" y="-1756" on="1"/>
        <pt x="472" y="-1502" on="0"/>
        <pt x="436" y="-1024" on="0"/>
        <pt x="341" y="-581" on="0"/>
        <pt x="176" y="-175" on="0"/>
        <pt x="45" y="7" on="1"/>
        <pt x="35" y="21" on="0"/>
        <pt x="32" y="27" on="0"/>
        <pt x="32" y="29" on="1"/>
        <pt x="32" y="37" on="0"/>
        <pt x="44" y="39" on="0"/>
        <pt x="55" y="39" on="1"/>
        <pt x="67" y="39" on="0"/>
        <pt x="72" y="38" on="0"/>
        <pt x="74" y="37" on="1"/>
        <pt x="77" y="35" on="0"/>
        <pt x="86" y="26" on="0"/>
        <pt x="97" y="12" on="1"/>
        <pt x="244" y="-169" on="0"/>
        <pt x="432" y="-586" on="0"/>
        <pt x="541" y="-1032" on="0"/>
        <pt x="583" y="-1494" on="0"/>
        <pt x="583" y="-1720" on="1"/>
      </contour>
    </TTGlyph>
    <TTGlyph name="productdisplay" xMin="56" yMin="-1400" xMax="1221" yMax="0">
      <contour>
        <pt x="740" y="-1400" on="1"/>
        <pt x="740" y="-1346" on="1"/>
        <pt x="790" y="-1346" on="0"/>
        <pt x="853" y="-1330" on="0"/>
        <pt x="890" y="-1301" on="0"/>
        <pt x="904" y="-1260" on="0"/>
        <pt x="904" y="-1236" on="1"/>
        <pt x="904" y="-54" on="1"/>
        <pt x="373" y="-54" on="1"/>
        <pt x="373" y="-1236" on="1"/>
        <pt x="373" y="-1260" on="0"/>
        <pt x="387" y="-1300" on="0"/>
        <pt x="423" y="-1330" on="0"/>
        <pt x="487" y="-1346" on="0"/>
        <pt x="537" y="-1346" on="1"/>
        <pt x="537" y="-1400" on="1"/>
        <pt x="56" y="-1400" on="1"/>
        <pt x="56" y="-1346" on="1"/>
        <pt x="106" y="-1346" on="0"/>
        <pt x="169" y="-1330" on="0"/>
        <pt x="206" y="-1301" on="0"/>
        <pt x="220" y="-1260" on="0"/>
        <pt x="220" y="-1236" on="1"/>
        <pt x="220" y="-164" on="1"/>
        <pt x="220" y="-140" on="0"/>
        <pt x="206" y="-100" on="0"/>
        <pt x="170" y="-70" on="0"/>
        <pt x="106" y="-54" on="0"/>
        <pt x="56" y="-54" on="1"/>
        <pt x="56" y="0" on="1"/>
        <pt x="1221" y="0" on="1"/>
        <pt x="1221" y="-54" on="1"/>
        <pt x="1172" y="-54" on="0"/>
        <pt x="1108" y="-70" on="0"/>
        <pt x="1071" y="-99" on="0"/>
        <pt x="1057" y="-140" on="0"/>
        <pt x="1057" y="-164" on="1"/>
        <pt x="1057" y="-1236" on="1"/>
        <pt x="1057" y="-1260" on="0"/>
        <pt x="1071" y="-1300" on="0"/>
        <pt x="1107" y="-1330" on="0"/>
        <pt x="1171" y="-1346" on="0"/>
        <pt x="1221" y="-1346" on="1"/>
        <pt x="1221" y="-1400" on="1"/>
      </contour>
    </TTGlyph>
    <TTGlyph name="producttext" xMin="56" yMin="-1000" xMax="887" yMax="0">
      <contour>
        <pt x="56" y="-1000" on="1"/>
        <pt x="56" y="-960" on="1"/>
        <pt x="95" y="-960" on="0"/>
        <pt x="136" y="-944" on="0"/>
        <pt x="156" y="-920" on="0"/>
        <pt x="159" y="-892" on="0"/>
        <pt x="159" y="-881" on="1"/>
        <pt x="159" y="-119" on="1"/>
        <pt x="159" y="-108" on="0"/>
        <pt x="156" y="-80" on="0"/>
        <pt x="136" y="-56" on="0"/>
        <pt x="95" y="-40" on="0"/>
        <pt x="56" y="-40" on="1"/>
        <pt x="56" y="0" on="1"/>
        <pt x="887" y="0" on="1"/>
        <pt x="887" y="-40" on="1"/>
        <pt x="848" y="-40" on="0"/>
        <pt x="807" y="-56" on="0"/>
        <pt x="787" y="-80" on="0"/>
        <pt x="784" y="-108" on="0"/>
        <pt x="784" y="-119" on="1"/>
        <pt x="784" y="-881" on="1"/>
        <pt x="784" y="-892" on="0"/>
        <pt x="787" y="-920" on="0"/>
        <pt x="807" y="-944" on="0"/>
        <pt x="848" y="-960" on="0"/>
        <pt x="887" y="-960" on="1"/>
        <pt x="887" y="-1000" on="1"/>
        <pt x="584" y="-1000" on="1"/>
        <pt x="584" y="-960" on="1"/>
        <pt x="623" y="-960" on="0"/>
        <pt x="664" y="-944" on="0"/>
        <pt x="684" y="-920" on="0"/>
        <pt x="687" y="-892" on="0"/>
        <pt x="687" y="-881" on="1"/>
        <pt x="687" y="-40" on="1"/>
        <pt x="256" y="-40" on="1"/>
        <pt x="256" y="-881" on="1"/>
        <pt x="256" y="-892" on="0"/>
        <pt x="259" y="-920" on="0"/>
        <pt x="279" y="-944" on="0"/>
        <pt x="320" y="-960" on="0"/>
        <pt x="359" y="-960" on="1"/>
        <pt x="359" y="-1000" on="1"/>
      </contour>
    </TTGlyph>
    <TTGlyph name="radical" xMin="73" yMin="-960" xMax="853" yMax="40">
      <contour>
        <pt x="389" y="-855" on="1"/>
        <pt x="812" y="21" on="1"/>
        <pt x="817" y="30" on="0"/>
        <pt x="824" y="40" on="0"/>
        <pt x="833" y="40" on="1"/>
        <pt x="842" y="40" on="0"/>
        <pt x="853" y="28" on="0"/>
        <pt x="853" y="20" on="1"/>
        <pt x="853" y="16" on="0"/>
        <pt x="851" y="11" on="0"/>
        <pt x="847" y="3" on="1"/>
        <pt x="391" y="-941" on="1"/>
        <pt x="386" y="-952" on="0"/>
        <pt x="378" y="-960" on="0"/>
        <pt x="366" y="-960" on="1"/>
        <pt x="358" y="-960" on="0"/>
        <pt x="352" y="-956" on="0"/>
        <pt x="347" y="-945" on="1"/>
        <pt x="149" y="-510" on="1"/>
        <pt x="97" y="-549" on="1"/>
        <pt x="90" y="-555" on="0"/>
        <pt x="85" y="-557" on="0"/>
        <pt x="83" y="-557" on="1"/>
        <pt x="73" y="-557" on="0"/>
        <pt x="73" y="-546" on="1"/>
        <pt x="73" y="-543" on="0"/>
        <pt x="77" y="-539" on="0"/>
        <pt x="85" y="-532" on="1"/>
        <pt x="184" y="-457" on="1"/>
        <pt x="191" y="-451" on="0"/>
        <pt x="196" y="-449" on="0"/>
        <pt x="198" y="-449" on="1"/>
        <pt x="203" y="-449" on="0"/>
        <pt x="208" y="-457" on="0"/>
        <pt x="211" y="-463" on="1"/>
      </contour>
    </TTGlyph>
    <TTGlyph name="radicalBig" xMin="110" yMin="-1760" xMax="1020" yMax="40">
      <contour>
        <pt x="977" y="14" on="1"/>
        <pt x="980" y="24" on="0"/>
        <pt x="989" y="40" on="0"/>
        <pt x="1000" y="40" on="1"/>
        <pt x="1009" y="40" on="0"/>
        <pt x="1020" y="28" on="0"/>
        <pt x="1020" y="20" on="1"/>
        <pt x="1020" y="19" on="0"/>
        <pt x="1019" y="11" on="0"/>
        <pt x="1015" y="0" on="1"/>
        <pt x="466" y="-1736" on="1"/>
        <pt x="463" y="-1745" on="0"/>
        <pt x="458" y="-1755" on="0"/>
        <pt x="450" y="-1759" on="0"/>
        <pt x="436" y="-1760" on="0"/>
        <pt x="424" y="-1760" on="1"/>
        <pt x="194" y="-958" on="1"/>
        <pt x="126" y="-1038" on="1"/>
        <pt x="110" y="-1023" on="1"/>
        <pt x="249" y="-860" on="1"/>
        <pt x="464" y="-1610" on="1"/>
      </contour>
    </TTGlyph>
    <TTGlyph name="radicalBigg" xMin="111" yMin="-2960" xMax="1020" yMax="40">
      <contour>
        <pt x="465" y="-2715" on="1"/>
        <pt x="466" y="-2715" on="1"/>
        <pt x="978" y="10" on="1"/>
        <pt x="980" y="23" on="0"/>
        <pt x="988" y="40" on="0"/>
        <pt x="1000" y="40" on="1"/>
        <pt x="1009" y="40" on="0"/>
        <pt x="1020" y="28" on="0"/>
        <pt x="1020" y="20" on="1"/>
        <pt x="466" y="-2934" on="1"/>
        <pt x="464" y="-2944" on="0"/>
        <pt x="459" y="-2954" on="0"/>
        <pt x="450" y="-2959" on="0"/>
        <pt x="436" y="-2960" on="0"/>
        <pt x="424" y="-2960" on="1"/>
        <pt x="193" y="-1617" on="1"/>
        <pt x="125" y="-1749" on="1"/>
        <pt x="124" y="-1748" on="0"/>
        <pt x="111" y="-1736" on="0"/>
        <pt x="111" y="-1733" on="1"/>
        <pt x="111" y="-1732" on="0"/>
        <pt x="113" y="-1728" on="0"/>
        <pt x="117" y="-1720" on="1"/>
        <pt x="249" y="-1460" on="1"/>
      </contour>
    </TTGlyph>
    <TTGlyph name="radicalbig" xMin="110" yMin="-1160" xMax="1020" yMax="40">
      <contour>
        <pt x="196" y="-629" on="1"/>
        <pt x="125" y="-683" on="1"/>
        <pt x="110" y="-667" on="1"/>
        <pt x="249" y="-560" on="1"/>
        <pt x="462" y="-1056" on="1"/>
        <pt x="978" y="20" on="1"/>
        <pt x="982" y="28" on="0"/>
        <pt x="990" y="40" on="0"/>
        <pt x="1000" y="40" on="1"/>
        <pt x="1009" y="40" on="0"/>
        <pt x="1020" y="28" on="0"/>
        <pt x="1020" y="20" on="1"/>
        <pt x="1020" y="18" on="0"/>
        <pt x="1018" y="12" on="0"/>
        <pt x="1013" y="2" on="1"/>
        <pt x="466" y="-1140" on="1"/>
        <pt x="459" y="-1154" on="0"/>
        <pt x="447" y="-1160" on="0"/>
        <pt x="424" y="-1160" on="1"/>
      </contour>
    </TTGlyph>
    <TTGlyph name="radicalbigg" xMin="111" yMin="-2360" xMax="1020" yMax="40">
      <contour>
        <pt x="978" y="13" on="1"/>
        <pt x="980" y="24" on="0"/>
        <pt x="988" y="40" on="0"/>
        <pt x="1000" y="40" on="1"/>
        <pt x="1009" y="40" on="0"/>
        <pt x="1020" y="28" on="0"/>
        <pt x="1020" y="20" on="1"/>
        <pt x="1020" y="16" on="0"/>
        <pt x="1018" y="4" on="0"/>
        <pt x="1016" y="-1" on="1"/>
        <pt x="466" y="-2334" on="1"/>
        <pt x="464" y="-2344" on="0"/>
        <pt x="459" y="-2354" on="0"/>
        <pt x="451" y="-2359" on="0"/>
        <pt x="436" y="-2360" on="0"/>
        <pt x="424" y="-2360" on="1"/>
        <pt x="193" y="-1287" on="1"/>
        <pt x="125" y="-1394" on="1"/>
        <pt x="124" y="-1393" on="0"/>
        <pt x="111" y="-1381" on="0"/>
        <pt x="111" y="-1378" on="1"/>
        <pt x="111" y="-1377" on="0"/>
        <pt x="113" y="-1373" on="0"/>
        <pt x="118" y="-1366" on="1"/>
        <pt x="249" y="-1160" on="1"/>
        <pt x="465" y="-2162" on="1"/>
        <pt x="466" y="-2162" on="1"/>
      </contour>
    </TTGlyph>
    <TTGlyph name="radicalbt" xMin="111" yMin="-1800" xMax="742" yMax="20">
      <contour>
        <pt x="209" y="-305" on="1"/>
        <pt x="126" y="-467" on="1"/>
        <pt x="111" y="-451" on="1"/>
        <pt x="250" y="-178" on="1"/>
        <pt x="701" y="-1545" on="1"/>
        <pt x="702" y="-1545" on="1"/>
        <pt x="702" y="-15" on="1"/>
        <pt x="702" y="-2" on="0"/>
        <pt x="707" y="20" on="0"/>
        <pt x="722" y="20" on="1"/>
        <pt x="737" y="20" on="0"/>
        <pt x="742" y="-2" on="0"/>
        <pt x="742" y="-15" on="1"/>
        <pt x="742" y="-1764" on="1"/>
        <pt x="742" y="-1775" on="0"/>
        <pt x="740" y="-1789" on="0"/>
        <pt x="732" y="-1797" on="0"/>
        <pt x="716" y="-1800" on="0"/>
        <pt x="702" y="-1800" on="1"/>
      </contour>
    </TTGlyph>
    <TTGlyph name="radicaltp" xMin="702" yMin="-580" xMax="1076" yMax="40">
      <contour>
        <pt x="1041" y="40" on="1"/>
        <pt x="1054" y="40" on="0"/>
        <pt x="1076" y="35" on="0"/>
        <pt x="1076" y="20" on="1"/>
        <pt x="1076" y="5" on="0"/>
        <pt x="1054" y="0" on="0"/>
        <pt x="1041" y="0" on="1"/>
        <pt x="742" y="0" on="1"/>
        <pt x="742" y="-545" on="1"/>
        <pt x="742" y="-558" on="0"/>
        <pt x="737" y="-580" on="0"/>
        <pt x="722" y="-580" on="1"/>
        <pt x="707" y="-580" on="0"/>
        <pt x="702" y="-558" on="0"/>
        <pt x="702" y="-545" on="1"/>
        <pt x="702" y="4" on="1"/>
        <pt x="702" y="29" on="0"/>
        <pt x="714" y="40" on="0"/>
        <pt x="738" y="40" on="1"/>
      </contour>
    </TTGlyph>
    <TTGlyph name="radicalvertex" xMin="702" yMin="-620" xMax="742" yMax="20">
      <contour>
        <pt x="702" y="-15" on="1"/>
        <pt x="702" y="-2" on="0"/>
        <pt x="707" y="20" on="0"/>
        <pt x="722" y="20" on="1"/>
        <pt x="737" y="20" on="0"/>
        <pt x="742" y="-2" on="0"/>
        <pt x="742" y="-15" on="1"/>
        <pt x="742" y="-585" on="1"/>
        <pt x="742" y="-598" on="0"/>
        <pt x="737" y="-620" on="0"/>
        <pt x="722" y="-620" on="1"/>
        <pt x="707" y="-620" on="0"/>
        <pt x="702" y="-598" on="0"/>
        <pt x="702" y="-585" on="1"/>
      </contour>
    </TTGlyph>
    <TTGlyph name="slashBig" xMin="56" yMin="-1759" xMax="754" yMax="40">
      <contour>
        <pt x="704" y="14" on="1"/>
        <pt x="709" y="26" on="0"/>
        <pt x="718" y="40" on="0"/>
        <pt x="730" y="40" on="1"/>
        <pt x="740" y="40" on="0"/>
        <pt x="754" y="27" on="0"/>
        <pt x="754" y="16" on="1"/>
        <pt x="754" y="11" on="0"/>
        <pt x="751" y="1" on="0"/>
        <pt x="749" y="-4" on="1"/>
        <pt x="106" y="-1733" on="1"/>
        <pt x="101" y="-1745" on="0"/>
        <pt x="92" y="-1759" on="0"/>
        <pt x="80" y="-1759" on="1"/>
        <pt x="70" y="-1759" on="0"/>
        <pt x="56" y="-1746" on="0"/>
        <pt x="56" y="-1735" on="1"/>
        <pt x="56" y="-1730" on="0"/>
        <pt x="59" y="-1720" on="0"/>
        <pt x="61" y="-1715" on="1"/>
      </contour>
    </TTGlyph>
    <TTGlyph name="slashBigg" xMin="56" yMin="-2959" xMax="1221" yMax="40">
      <contour>
        <pt x="1158" y="11" on="1"/>
        <pt x="1161" y="19" on="0"/>
        <pt x="1175" y="40" on="0"/>
        <pt x="1190" y="40" on="1"/>
        <pt x="1204" y="40" on="0"/>
        <pt x="1221" y="21" on="0"/>
        <pt x="1221" y="10" on="1"/>
        <pt x="1221" y="4" on="0"/>
        <pt x="1217" y="-8" on="0"/>
        <pt x="1215" y="-13" on="1"/>
        <pt x="119" y="-2930" on="1"/>
        <pt x="116" y="-2938" on="0"/>
        <pt x="102" y="-2959" on="0"/>
        <pt x="87" y="-2959" on="1"/>
        <pt x="73" y="-2959" on="0"/>
        <pt x="56" y="-2940" on="0"/>
        <pt x="56" y="-2929" on="1"/>
        <pt x="56" y="-2923" on="0"/>
        <pt x="60" y="-2911" on="0"/>
        <pt x="62" y="-2906" on="1"/>
      </contour>
    </TTGlyph>
    <TTGlyph name="slashbig" xMin="56" yMin="-1159" xMax="521" yMax="40">
      <contour>
        <pt x="476" y="15" on="1"/>
        <pt x="481" y="27" on="0"/>
        <pt x="488" y="40" on="0"/>
        <pt x="499" y="40" on="1"/>
        <pt x="511" y="40" on="0"/>
        <pt x="521" y="24" on="0"/>
        <pt x="521" y="19" on="1"/>
        <pt x="521" y="17" on="0"/>
        <pt x="520" y="10" on="0"/>
        <pt x="515" y="-2" on="1"/>
        <pt x="101" y="-1134" on="1"/>
        <pt x="96" y="-1146" on="0"/>
        <pt x="89" y="-1159" on="0"/>
        <pt x="78" y="-1159" on="1"/>
        <pt x="66" y="-1159" on="0"/>
        <pt x="56" y="-1143" on="0"/>
        <pt x="56" y="-1138" on="1"/>
        <pt x="56" y="-1136" on="0"/>
        <pt x="57" y="-1129" on="0"/>
        <pt x="62" y="-1117" on="1"/>
      </contour>
    </TTGlyph>
    <TTGlyph name="slashbigg" xMin="56" yMin="-2359" xMax="987" yMax="40">
      <contour>
        <pt x="931" y="14" on="1"/>
        <pt x="935" y="24" on="0"/>
        <pt x="947" y="40" on="0"/>
        <pt x="960" y="40" on="1"/>
        <pt x="971" y="40" on="0"/>
        <pt x="987" y="24" on="0"/>
        <pt x="987" y="13" on="1"/>
        <pt x="987" y="11" on="0"/>
        <pt x="986" y="5" on="0"/>
        <pt x="981" y="-6" on="1"/>
        <pt x="112" y="-2333" on="1"/>
        <pt x="108" y="-2343" on="0"/>
        <pt x="96" y="-2359" on="0"/>
        <pt x="83" y="-2359" on="1"/>
        <pt x="72" y="-2359" on="0"/>
        <pt x="56" y="-2343" on="0"/>
        <pt x="56" y="-2332" on="1"/>
        <pt x="56" y="-2330" on="0"/>
        <pt x="57" y="-2324" on="0"/>
        <pt x="62" y="-2313" on="1"/>
      </contour>
    </TTGlyph>
    <TTGlyph name="summationdisplay" xMin="56" yMin="-1400" xMax="1387" yMax="0">
      <contour>
        <pt x="84" y="-1400" on="1"/>
        <pt x="70" y="-1400" on="0"/>
        <pt x="57" y="-1397" on="0"/>
        <pt x="57" y="-1389" on="1"/>
        <pt x="57" y="-1388" on="0"/>
        <pt x="59" y="-1380" on="0"/>
        <pt x="67" y="-1371" on="1"/>
        <pt x="585" y="-764" on="1"/>
        <pt x="56" y="-40" on="1"/>
        <pt x="56" y="-32" on="0"/>
        <pt x="56" y="-9" on="0"/>
        <pt x="57" y="-7" on="1"/>
        <pt x="59" y="-2" on="0"/>
        <pt x="67" y="0" on="0"/>
        <pt x="84" y="0" on="1"/>
        <pt x="1266" y="0" on="1"/>
        <pt x="1387" y="-281" on="1"/>
        <pt x="1362" y="-281" on="1"/>
        <pt x="1349" y="-251" on="0"/>
        <pt x="1313" y="-203" on="0"/>
        <pt x="1277" y="-168" on="0"/>
        <pt x="1244" y="-145" on="0"/>
        <pt x="1235" y="-139" on="1"/>
        <pt x="1175" y="-101" on="0"/>
        <pt x="1056" y="-70" on="0"/>
        <pt x="1015" y="-64" on="1"/>
        <pt x="1008" y="-62" on="0"/>
        <pt x="882" y="-48" on="0"/>
        <pt x="781" y="-48" on="1"/>
        <pt x="233" y="-48" on="1"/>
        <pt x="699" y="-685" on="1"/>
        <pt x="704" y="-693" on="0"/>
        <pt x="706" y="-698" on="0"/>
        <pt x="706" y="-700" on="1"/>
        <pt x="706" y="-706" on="0"/>
        <pt x="697" y="-716" on="1"/>
        <pt x="188" y="-1313" on="1"/>
        <pt x="791" y="-1313" on="1"/>
        <pt x="863" y="-1313" on="0"/>
        <pt x="972" y="-1305" on="0"/>
        <pt x="1049" y="-1294" on="0"/>
        <pt x="1094" y="-1284" on="0"/>
        <pt x="1102" y="-1282" on="1"/>
        <pt x="1145" y="-1271" on="0"/>
        <pt x="1226" y="-1234" on="0"/>
        <pt x="1295" y="-1183" on="0"/>
        <pt x="1347" y="-1119" on="0"/>
        <pt x="1362" y="-1080" on="1"/>
        <pt x="1387" y="-1080" on="1"/>
        <pt x="1266" y="-1400" on="1"/>
      </contour>
    </TTGlyph>
    <TTGlyph name="summationtext" xMin="56" yMin="-1000" xMax="999" yMax="0">
      <contour>
        <pt x="56" y="-32" on="1"/>
        <pt x="56" y="-9" on="0"/>
        <pt x="64" y="0" on="0"/>
        <pt x="84" y="0" on="1"/>
        <pt x="913" y="0" on="1"/>
        <pt x="999" y="-234" on="1"/>
        <pt x="974" y="-234" on="1"/>
        <pt x="948" y="-164" on="0"/>
        <pt x="844" y="-86" on="0"/>
        <pt x="723" y="-48" on="0"/>
        <pt x="603" y="-40" on="0"/>
        <pt x="560" y="-40" on="1"/>
        <pt x="164" y="-40" on="1"/>
        <pt x="489" y="-486" on="1"/>
        <pt x="494" y="-493" on="0"/>
        <pt x="496" y="-497" on="0"/>
        <pt x="496" y="-500" on="1"/>
        <pt x="496" y="-504" on="0"/>
        <pt x="487" y="-516" on="1"/>
        <pt x="140" y="-945" on="1"/>
        <pt x="565" y="-945" on="1"/>
        <pt x="620" y="-945" on="0"/>
        <pt x="702" y="-937" on="0"/>
        <pt x="758" y="-927" on="0"/>
        <pt x="791" y="-918" on="0"/>
        <pt x="797" y="-916" on="1"/>
        <pt x="861" y="-894" on="0"/>
        <pt x="955" y="-808" on="0"/>
        <pt x="974" y="-751" on="1"/>
        <pt x="999" y="-751" on="1"/>
        <pt x="913" y="-1000" on="1"/>
        <pt x="84" y="-1000" on="1"/>
        <pt x="70" y="-1000" on="0"/>
        <pt x="57" y="-997" on="0"/>
        <pt x="57" y="-989" on="1"/>
        <pt x="57" y="-986" on="0"/>
        <pt x="60" y="-981" on="0"/>
        <pt x="66" y="-973" on="1"/>
        <pt x="421" y="-534" on="1"/>
      </contour>
    </TTGlyph>
    <TTGlyph name="tildewide" xMin="0" yMin="608" xMax="555" yMax="722">
      <contour>
        <pt x="555" y="705" on="1"/>
        <pt x="501" y="661" on="1"/>
        <pt x="489" y="651" on="0"/>
        <pt x="457" y="632" on="0"/>
        <pt x="423" y="617" on="0"/>
        <pt x="387" y="608" on="0"/>
        <pt x="371" y="608" on="1"/>
        <pt x="341" y="608" on="0"/>
        <pt x="293" y="629" on="0"/>
        <pt x="271" y="642" on="1"/>
        <pt x="245" y="657" on="0"/>
        <pt x="197" y="679" on="0"/>
        <pt x="167" y="679" on="1"/>
        <pt x="129" y="679" on="0"/>
        <pt x="51" y="639" on="0"/>
        <pt x="14" y="608" on="1"/>
        <pt x="0" y="625" on="1"/>
        <pt x="54" y="669" on="1"/>
        <pt x="66" y="679" on="0"/>
        <pt x="98" y="698" on="0"/>
        <pt x="133" y="713" on="0"/>
        <pt x="168" y="722" on="0"/>
        <pt x="184" y="722" on="1"/>
        <pt x="214" y="722" on="0"/>
        <pt x="262" y="701" on="0"/>
        <pt x="284" y="688" on="1"/>
        <pt x="310" y="673" on="0"/>
        <pt x="358" y="651" on="0"/>
        <pt x="388" y="651" on="1"/>
        <pt x="426" y="651" on="0"/>
        <pt x="504" y="691" on="0"/>
        <pt x="541" y="722" on="1"/>
      </contour>
    </TTGlyph>
    <TTGlyph name="tildewider" xMin="0" yMin="624" xMax="999" yMax="750">
      <contour>
        <pt x="999" y="730" on="1"/>
        <pt x="960" y="711" on="0"/>
        <pt x="878" y="673" on="0"/>
        <pt x="793" y="643" on="0"/>
        <pt x="706" y="624" on="0"/>
        <pt x="662" y="624" on="1"/>
        <pt x="610" y="624" on="0"/>
        <pt x="532" y="649" on="0"/>
        <pt x="496" y="664" on="1"/>
        <pt x="470" y="675" on="0"/>
        <pt x="426" y="693" on="0"/>
        <pt x="383" y="705" on="0"/>
        <pt x="337" y="712" on="0"/>
        <pt x="310" y="712" on="1"/>
        <pt x="262" y="712" on="0"/>
        <pt x="164" y="688" on="0"/>
        <pt x="81" y="658" on="0"/>
        <pt x="20" y="629" on="0"/>
        <pt x="10" y="624" on="1"/>
        <pt x="0" y="644" on="1"/>
        <pt x="39" y="663" on="0"/>
        <pt x="121" y="701" on="0"/>
        <pt x="206" y="731" on="0"/>
        <pt x="293" y="750" on="0"/>
        <pt x="337" y="750" on="1"/>
        <pt x="389" y="750" on="0"/>
        <pt x="467" y="725" on="0"/>
        <pt x="503" y="710" on="1"/>
        <pt x="529" y="699" on="0"/>
        <pt x="573" y="681" on="0"/>
        <pt x="616" y="669" on="0"/>
        <pt x="662" y="662" on="0"/>
        <pt x="689" y="662" on="1"/>
        <pt x="737" y="662" on="0"/>
        <pt x="835" y="686" on="0"/>
        <pt x="918" y="716" on="0"/>
        <pt x="979" y="745" on="0"/>
        <pt x="989" y="750" on="1"/>
      </contour>
    </TTGlyph>
    <TTGlyph name="tildewidest" xMin="0" yMin="623" xMax="1443" yMax="750">
      <contour>
        <pt x="1443" y="729" on="1"/>
        <pt x="1341" y="696" on="1"/>
        <pt x="1301" y="683" on="0"/>
        <pt x="1205" y="657" on="0"/>
        <pt x="1104" y="636" on="0"/>
        <pt x="1001" y="623" on="0"/>
        <pt x="953" y="623" on="1"/>
        <pt x="919" y="623" on="0"/>
        <pt x="857" y="630" on="0"/>
        <pt x="805" y="639" on="0"/>
        <pt x="765" y="650" on="0"/>
        <pt x="753" y="654" on="1"/>
        <pt x="652" y="687" on="1"/>
        <pt x="649" y="688" on="0"/>
        <pt x="618" y="697" on="0"/>
        <pt x="566" y="708" on="0"/>
        <pt x="497" y="716" on="0"/>
        <pt x="458" y="716" on="1"/>
        <pt x="397" y="716" on="0"/>
        <pt x="275" y="698" on="0"/>
        <pt x="159" y="670" on="0"/>
        <pt x="52" y="638" on="0"/>
        <pt x="7" y="623" on="1"/>
        <pt x="0" y="644" on="1"/>
        <pt x="102" y="677" on="1"/>
        <pt x="143" y="690" on="0"/>
        <pt x="238" y="716" on="0"/>
        <pt x="339" y="737" on="0"/>
        <pt x="442" y="750" on="0"/>
        <pt x="490" y="750" on="1"/>
        <pt x="524" y="750" on="0"/>
        <pt x="586" y="743" on="0"/>
        <pt x="638" y="734" on="0"/>
        <pt x="678" y="723" on="0"/>
        <pt x="690" y="719" on="1"/>
        <pt x="791" y="686" on="1"/>
        <pt x="794" y="685" on="0"/>
        <pt x="825" y="676" on="0"/>
        <pt x="877" y="666" on="0"/>
        <pt x="946" y="657" on="0"/>
        <pt x="985" y="657" on="1"/>
        <pt x="1046" y="657" on="0"/>
        <pt x="1168" y="675" on="0"/>
        <pt x="1284" y="703" on="0"/>
        <pt x="1391" y="735" on="0"/>
        <pt x="1436" y="750" on="1"/>
      </contour>
    </TTGlyph>
    <TTGlyph name="uni0394" xMin="47" yMin="0" xMax="785" yMax="716">
      <contour>
        <pt x="780" y="20" on="1"/>
        <pt x="784" y="13" on="0"/>
        <pt x="785" y="9" on="0"/>
        <pt x="785" y="8" on="1"/>
        <pt x="785" y="2" on="0"/>
        <pt x="775" y="0" on="0"/>
        <pt x="763" y="0" on="1"/>
        <pt x="69" y="0" on="1"/>
        <pt x="57" y="0" on="0"/>
        <pt x="47" y="2" on="0"/>
        <pt x="47" y="8" on="1"/>
        <pt x="47" y="9" on="0"/>
        <pt x="48" y="13" on="0"/>
        <pt x="52" y="20" on="1"/>
        <pt x="390" y="698" on="1"/>
        <pt x="395" y="708" on="0"/>
        <pt x="403" y="716" on="0"/>
        <pt x="416" y="716" on="1"/>
        <pt x="429" y="716" on="0"/>
        <pt x="437" y="708" on="0"/>
        <pt x="442" y="698" on="1"/>
      </contour>
      <contour>
        <pt x="114" y="76" on="1"/>
        <pt x="653" y="76" on="1"/>
        <pt x="384" y="616" on="1"/>
      </contour>
    </TTGlyph>
    <TTGlyph name="uni03A9" xMin="44" yMin="0" xMax="677" yMax="705">
      <contour>
        <pt x="644" y="0" on="1"/>
        <pt x="485" y="0" on="1"/>
        <pt x="468" y="0" on="0"/>
        <pt x="459" y="5" on="0"/>
        <pt x="459" y="21" on="1"/>
        <pt x="459" y="47" on="0"/>
        <pt x="469" y="104" on="0"/>
        <pt x="484" y="159" on="0"/>
        <pt x="500" y="206" on="0"/>
        <pt x="506" y="222" on="1"/>
        <pt x="528" y="284" on="0"/>
        <pt x="562" y="398" on="0"/>
        <pt x="562" y="455" on="1"/>
        <pt x="562" y="514" on="0"/>
        <pt x="526" y="599" on="0"/>
        <pt x="468" y="656" on="0"/>
        <pt x="396" y="683" on="0"/>
        <pt x="360" y="683" on="1"/>
        <pt x="326" y="683" on="0"/>
        <pt x="255" y="657" on="0"/>
        <pt x="196" y="601" on="0"/>
        <pt x="159" y="515" on="0"/>
        <pt x="159" y="455" on="1"/>
        <pt x="159" y="398" on="0"/>
        <pt x="192" y="287" on="0"/>
        <pt x="208" y="243" on="1"/>
        <pt x="217" y="219" on="0"/>
        <pt x="236" y="163" on="0"/>
        <pt x="252" y="105" on="0"/>
        <pt x="262" y="47" on="0"/>
        <pt x="262" y="21" on="1"/>
        <pt x="262" y="5" on="0"/>
        <pt x="254" y="0" on="0"/>
        <pt x="237" y="0" on="1"/>
        <pt x="77" y="0" on="1"/>
        <pt x="44" y="162" on="1"/>
        <pt x="69" y="162" on="1"/>
        <pt x="73" y="143" on="0"/>
        <pt x="81" y="105" on="0"/>
        <pt x="87" y="88" on="1"/>
        <pt x="89" y="82" on="0"/>
        <pt x="94" y="74" on="0"/>
        <pt x="107" y="68" on="0"/>
        <pt x="131" y="65" on="0"/>
        <pt x="153" y="65" on="1"/>
        <pt x="233" y="65" on="1"/>
        <pt x="223" y="107" on="0"/>
        <pt x="177" y="185" on="0"/>
        <pt x="144" y="235" on="1"/>
        <pt x="109" y="288" on="0"/>
        <pt x="56" y="395" on="0"/>
        <pt x="56" y="454" on="1"/>
        <pt x="56" y="505" on="0"/>
        <pt x="103" y="597" on="0"/>
        <pt x="185" y="665" on="0"/>
        <pt x="297" y="705" on="0"/>
        <pt x="361" y="705" on="1"/>
        <pt x="424" y="705" on="0"/>
        <pt x="535" y="666" on="0"/>
        <pt x="618" y="598" on="0"/>
        <pt x="665" y="506" on="0"/>
        <pt x="665" y="454" on="1"/>
        <pt x="665" y="395" on="0"/>
        <pt x="612" y="288" on="0"/>
        <pt x="577" y="235" on="1"/>
        <pt x="543" y="185" on="0"/>
        <pt x="498" y="107" on="0"/>
        <pt x="488" y="65" on="1"/>
        <pt x="568" y="65" on="1"/>
        <pt x="590" y="65" on="0"/>
        <pt x="614" y="68" on="0"/>
        <pt x="627" y="74" on="0"/>
        <pt x="632" y="83" on="0"/>
        <pt x="634" y="89" on="1"/>
        <pt x="641" y="107" on="0"/>
        <pt x="648" y="142" on="0"/>
        <pt x="652" y="162" on="1"/>
        <pt x="677" y="162" on="1"/>
      </contour>
    </TTGlyph>
    <TTGlyph name="uniondisplay" xMin="56" yMin="-1400" xMax="1054" yMax="0">
      <contour>
        <pt x="971" y="-55" on="1"/>
        <pt x="971" y="-50" on="0"/>
        <pt x="972" y="-31" on="0"/>
        <pt x="980" y="-13" on="0"/>
        <pt x="997" y="0" on="0"/>
        <pt x="1013" y="0" on="1"/>
        <pt x="1028" y="0" on="0"/>
        <pt x="1045" y="-14" on="0"/>
        <pt x="1053" y="-32" on="0"/>
        <pt x="1054" y="-50" on="0"/>
        <pt x="1054" y="-55" on="1"/>
        <pt x="1054" y="-923" on="1"/>
        <pt x="1054" y="-1019" on="0"/>
        <pt x="977" y="-1193" on="0"/>
        <pt x="842" y="-1323" on="0"/>
        <pt x="660" y="-1400" on="0"/>
        <pt x="555" y="-1400" on="1"/>
        <pt x="450" y="-1400" on="0"/>
        <pt x="268" y="-1323" on="0"/>
        <pt x="133" y="-1193" on="0"/>
        <pt x="56" y="-1019" on="0"/>
        <pt x="56" y="-923" on="1"/>
        <pt x="56" y="-55" on="1"/>
        <pt x="56" y="-50" on="0"/>
        <pt x="57" y="-31" on="0"/>
        <pt x="65" y="-13" on="0"/>
        <pt x="82" y="0" on="0"/>
        <pt x="98" y="0" on="1"/>
        <pt x="113" y="0" on="0"/>
        <pt x="130" y="-14" on="0"/>
        <pt x="138" y="-32" on="0"/>
        <pt x="139" y="-50" on="0"/>
        <pt x="139" y="-55" on="1"/>
        <pt x="139" y="-918" on="1"/>
        <pt x="139" y="-1004" on="0"/>
        <pt x="206" y="-1150" on="0"/>
        <pt x="320" y="-1256" on="0"/>
        <pt x="471" y="-1317" on="0"/>
        <pt x="555" y="-1317" on="1"/>
        <pt x="639" y="-1317" on="0"/>
        <pt x="790" y="-1257" on="0"/>
        <pt x="904" y="-1150" on="0"/>
        <pt x="971" y="-1004" on="0"/>
        <pt x="971" y="-918" on="1"/>
      </contour>
    </TTGlyph>
    <TTGlyph name="unionmultidisplay" xMin="56" yMin="-1400" xMax="1054" yMax="0">
      <contour>
        <pt x="971" y="-55" on="1"/>
        <pt x="971" y="-50" on="0"/>
        <pt x="972" y="-31" on="0"/>
        <pt x="980" y="-13" on="0"/>
        <pt x="997" y="0" on="0"/>
        <pt x="1013" y="0" on="1"/>
        <pt x="1028" y="0" on="0"/>
        <pt x="1045" y="-14" on="0"/>
        <pt x="1053" y="-32" on="0"/>
        <pt x="1054" y="-50" on="0"/>
        <pt x="1054" y="-55" on="1"/>
        <pt x="1054" y="-923" on="1"/>
        <pt x="1054" y="-1019" on="0"/>
        <pt x="977" y="-1193" on="0"/>
        <pt x="842" y="-1323" on="0"/>
        <pt x="660" y="-1400" on="0"/>
        <pt x="555" y="-1400" on="1"/>
        <pt x="450" y="-1400" on="0"/>
        <pt x="268" y="-1323" on="0"/>
        <pt x="133" y="-1193" on="0"/>
        <pt x="56" y="-1019" on="0"/>
        <pt x="56" y="-923" on="1"/>
        <pt x="56" y="-55" on="1"/>
        <pt x="56" y="-50" on="0"/>
        <pt x="57" y="-31" on="0"/>
        <pt x="65" y="-13" on="0"/>
        <pt x="82" y="0" on="0"/>
        <pt x="98" y="0" on="1"/>
        <pt x="113" y="0" on="0"/>
        <pt x="130" y="-14" on="0"/>
        <pt x="138" y="-32" on="0"/>
        <pt x="139" y="-50" on="0"/>
        <pt x="139" y="-55" on="1"/>
        <pt x="139" y="-918" on="1"/>
        <pt x="139" y="-1004" on="0"/>
        <pt x="206" y="-1150" on="0"/>
        <pt x="320" y="-1256" on="0"/>
        <pt x="471" y="-1317" on="0"/>
        <pt x="555" y="-1317" on="1"/>
        <pt x="639" y="-1317" on="0"/>
        <pt x="790" y="-1257" on="0"/>
        <pt x="904" y="-1150" on="0"/>
        <pt x="971" y="-1004" on="0"/>
        <pt x="971" y="-918" on="1"/>
      </contour>
      <contour>
        <pt x="597" y="-702" on="1"/>
        <pt x="597" y="-934" on="1"/>
        <pt x="597" y="-940" on="0"/>
        <pt x="596" y="-960" on="0"/>
        <pt x="588" y="-979" on="0"/>
        <pt x="571" y="-993" on="0"/>
        <pt x="555" y="-993" on="1"/>
        <pt x="540" y="-993" on="0"/>
        <pt x="523" y="-980" on="0"/>
        <pt x="515" y="-963" on="0"/>
        <pt x="514" y="-946" on="0"/>
        <pt x="514" y="-941" on="1"/>
        <pt x="514" y="-702" on="1"/>
        <pt x="277" y="-702" on="1"/>
        <pt x="272" y="-702" on="0"/>
        <pt x="254" y="-701" on="0"/>
        <pt x="236" y="-693" on="0"/>
        <pt x="222" y="-676" on="0"/>
        <pt x="222" y="-660" on="1"/>
        <pt x="222" y="-645" on="0"/>
        <pt x="236" y="-628" on="0"/>
        <pt x="254" y="-620" on="0"/>
        <pt x="272" y="-619" on="0"/>
        <pt x="277" y="-619" on="1"/>
        <pt x="514" y="-619" on="1"/>
        <pt x="514" y="-380" on="1"/>
        <pt x="514" y="-366" on="0"/>
        <pt x="516" y="-351" on="0"/>
        <pt x="523" y="-343" on="1"/>
        <pt x="528" y="-337" on="0"/>
        <pt x="544" y="-327" on="0"/>
        <pt x="555" y="-327" on="1"/>
        <pt x="571" y="-327" on="0"/>
        <pt x="588" y="-341" on="0"/>
        <pt x="596" y="-361" on="0"/>
        <pt x="597" y="-380" on="0"/>
        <pt x="597" y="-386" on="1"/>
        <pt x="597" y="-619" on="1"/>
        <pt x="833" y="-619" on="1"/>
        <pt x="838" y="-619" on="0"/>
        <pt x="856" y="-620" on="0"/>
        <pt x="874" y="-628" on="0"/>
        <pt x="888" y="-645" on="0"/>
        <pt x="888" y="-660" on="1"/>
        <pt x="888" y="-676" on="0"/>
        <pt x="874" y="-693" on="0"/>
        <pt x="856" y="-701" on="0"/>
        <pt x="838" y="-702" on="0"/>
        <pt x="833" y="-702" on="1"/>
      </contour>
    </TTGlyph>
    <TTGlyph name="unionmultitext" xMin="56" yMin="-1000" xMax="776" yMax="0">
      <contour>
        <pt x="707" y="-48" on="1"/>
        <pt x="707" y="-42" on="0"/>
        <pt x="708" y="-26" on="0"/>
        <pt x="715" y="-11" on="0"/>
        <pt x="729" y="0" on="0"/>
        <pt x="742" y="0" on="1"/>
        <pt x="755" y="0" on="0"/>
        <pt x="769" y="-11" on="0"/>
        <pt x="775" y="-26" on="0"/>
        <pt x="776" y="-43" on="0"/>
        <pt x="776" y="-48" on="1"/>
        <pt x="776" y="-655" on="1"/>
        <pt x="776" y="-728" on="0"/>
        <pt x="718" y="-854" on="0"/>
        <pt x="620" y="-947" on="0"/>
        <pt x="489" y="-1000" on="0"/>
        <pt x="416" y="-1000" on="1"/>
        <pt x="343" y="-1000" on="0"/>
        <pt x="212" y="-947" on="0"/>
        <pt x="114" y="-854" on="0"/>
        <pt x="56" y="-728" on="0"/>
        <pt x="56" y="-655" on="1"/>
        <pt x="56" y="-48" on="1"/>
        <pt x="56" y="-42" on="0"/>
        <pt x="57" y="-26" on="0"/>
        <pt x="64" y="-11" on="0"/>
        <pt x="78" y="0" on="0"/>
        <pt x="91" y="0" on="1"/>
        <pt x="104" y="0" on="0"/>
        <pt x="118" y="-11" on="0"/>
        <pt x="124" y="-26" on="0"/>
        <pt x="125" y="-43" on="0"/>
        <pt x="125" y="-48" on="1"/>
        <pt x="125" y="-651" on="1"/>
        <pt x="125" y="-715" on="0"/>
        <pt x="174" y="-818" on="0"/>
        <pt x="255" y="-891" on="0"/>
        <pt x="360" y="-931" on="0"/>
        <pt x="416" y="-931" on="1"/>
        <pt x="472" y="-931" on="0"/>
        <pt x="577" y="-891" on="0"/>
        <pt x="658" y="-818" on="0"/>
        <pt x="707" y="-714" on="0"/>
        <pt x="707" y="-651" on="1"/>
      </contour>
      <contour>
        <pt x="451" y="-507" on="1"/>
        <pt x="451" y="-642" on="1"/>
        <pt x="451" y="-648" on="0"/>
        <pt x="450" y="-666" on="0"/>
        <pt x="443" y="-683" on="0"/>
        <pt x="429" y="-694" on="0"/>
        <pt x="416" y="-694" on="1"/>
        <pt x="403" y="-694" on="0"/>
        <pt x="389" y="-684" on="0"/>
        <pt x="383" y="-669" on="0"/>
        <pt x="382" y="-653" on="0"/>
        <pt x="382" y="-648" on="1"/>
        <pt x="382" y="-507" on="1"/>
        <pt x="246" y="-507" on="1"/>
        <pt x="240" y="-507" on="0"/>
        <pt x="222" y="-506" on="0"/>
        <pt x="205" y="-499" on="0"/>
        <pt x="194" y="-485" on="0"/>
        <pt x="194" y="-472" on="1"/>
        <pt x="194" y="-459" on="0"/>
        <pt x="205" y="-445" on="0"/>
        <pt x="220" y="-439" on="0"/>
        <pt x="236" y="-438" on="0"/>
        <pt x="241" y="-438" on="1"/>
        <pt x="382" y="-438" on="1"/>
        <pt x="382" y="-297" on="1"/>
        <pt x="382" y="-292" on="0"/>
        <pt x="383" y="-276" on="0"/>
        <pt x="389" y="-261" on="0"/>
        <pt x="403" y="-250" on="0"/>
        <pt x="416" y="-250" on="1"/>
        <pt x="429" y="-250" on="0"/>
        <pt x="443" y="-262" on="0"/>
        <pt x="450" y="-278" on="0"/>
        <pt x="451" y="-296" on="0"/>
        <pt x="451" y="-303" on="1"/>
        <pt x="451" y="-438" on="1"/>
        <pt x="591" y="-438" on="1"/>
        <pt x="596" y="-438" on="0"/>
        <pt x="612" y="-439" on="0"/>
        <pt x="627" y="-445" on="0"/>
        <pt x="638" y="-459" on="0"/>
        <pt x="638" y="-472" on="1"/>
        <pt x="638" y="-485" on="0"/>
        <pt x="627" y="-499" on="0"/>
        <pt x="610" y="-506" on="0"/>
        <pt x="592" y="-507" on="0"/>
        <pt x="586" y="-507" on="1"/>
      </contour>
    </TTGlyph>
    <TTGlyph name="unionsqdisplay" xMin="56" yMin="-1400" xMax="1054" yMax="0">
      <contour>
        <pt x="971" y="-55" on="1"/>
        <pt x="971" y="-50" on="0"/>
        <pt x="972" y="-31" on="0"/>
        <pt x="980" y="-13" on="0"/>
        <pt x="997" y="0" on="0"/>
        <pt x="1013" y="0" on="1"/>
        <pt x="1028" y="0" on="0"/>
        <pt x="1045" y="-14" on="0"/>
        <pt x="1053" y="-32" on="0"/>
        <pt x="1054" y="-50" on="0"/>
        <pt x="1054" y="-55" on="1"/>
        <pt x="1054" y="-1345" on="1"/>
        <pt x="1054" y="-1377" on="0"/>
        <pt x="1030" y="-1400" on="0"/>
        <pt x="999" y="-1400" on="1"/>
        <pt x="111" y="-1400" on="1"/>
        <pt x="74" y="-1400" on="0"/>
        <pt x="56" y="-1370" on="0"/>
        <pt x="56" y="-1345" on="1"/>
        <pt x="56" y="-55" on="1"/>
        <pt x="56" y="-50" on="0"/>
        <pt x="57" y="-31" on="0"/>
        <pt x="65" y="-13" on="0"/>
        <pt x="82" y="0" on="0"/>
        <pt x="98" y="0" on="1"/>
        <pt x="113" y="0" on="0"/>
        <pt x="130" y="-14" on="0"/>
        <pt x="138" y="-32" on="0"/>
        <pt x="139" y="-50" on="0"/>
        <pt x="139" y="-55" on="1"/>
        <pt x="139" y="-1317" on="1"/>
        <pt x="971" y="-1317" on="1"/>
      </contour>
    </TTGlyph>
    <TTGlyph name="unionsqtext" xMin="56" yMin="-1000" xMax="776" yMax="0">
      <contour>
        <pt x="105" y="-1000" on="1"/>
        <pt x="76" y="-1000" on="0"/>
        <pt x="56" y="-980" on="0"/>
        <pt x="56" y="-951" on="1"/>
        <pt x="56" y="-48" on="1"/>
        <pt x="56" y="-42" on="0"/>
        <pt x="57" y="-26" on="0"/>
        <pt x="64" y="-11" on="0"/>
        <pt x="78" y="0" on="0"/>
        <pt x="91" y="0" on="1"/>
        <pt x="104" y="0" on="0"/>
        <pt x="118" y="-11" on="0"/>
        <pt x="124" y="-26" on="0"/>
        <pt x="125" y="-43" on="0"/>
        <pt x="125" y="-48" on="1"/>
        <pt x="125" y="-931" on="1"/>
        <pt x="707" y="-931" on="1"/>
        <pt x="707" y="-48" on="1"/>
        <pt x="707" y="-42" on="0"/>
        <pt x="708" y="-26" on="0"/>
        <pt x="715" y="-11" on="0"/>
        <pt x="729" y="0" on="0"/>
        <pt x="742" y="0" on="1"/>
        <pt x="755" y="0" on="0"/>
        <pt x="769" y="-11" on="0"/>
        <pt x="775" y="-26" on="0"/>
        <pt x="776" y="-43" on="0"/>
        <pt x="776" y="-48" on="1"/>
        <pt x="776" y="-951" on="1"/>
        <pt x="776" y="-979" on="0"/>
        <pt x="759" y="-1000" on="0"/>
        <pt x="727" y="-1000" on="1"/>
      </contour>
    </TTGlyph>
    <TTGlyph name="uniontext" xMin="56" yMin="-1000" xMax="776" yMax="0">
      <contour>
        <pt x="707" y="-48" on="1"/>
        <pt x="707" y="-42" on="0"/>
        <pt x="708" y="-26" on="0"/>
        <pt x="715" y="-11" on="0"/>
        <pt x="729" y="0" on="0"/>
        <pt x="742" y="0" on="1"/>
        <pt x="755" y="0" on="0"/>
        <pt x="769" y="-11" on="0"/>
        <pt x="775" y="-26" on="0"/>
        <pt x="776" y="-43" on="0"/>
        <pt x="776" y="-48" on="1"/>
        <pt x="776" y="-655" on="1"/>
        <pt x="776" y="-728" on="0"/>
        <pt x="718" y="-854" on="0"/>
        <pt x="620" y="-947" on="0"/>
        <pt x="489" y="-1000" on="0"/>
        <pt x="416" y="-1000" on="1"/>
        <pt x="343" y="-1000" on="0"/>
        <pt x="212" y="-947" on="0"/>
        <pt x="114" y="-854" on="0"/>
        <pt x="56" y="-728" on="0"/>
        <pt x="56" y="-655" on="1"/>
        <pt x="56" y="-48" on="1"/>
        <pt x="56" y="-42" on="0"/>
        <pt x="57" y="-26" on="0"/>
        <pt x="64" y="-11" on="0"/>
        <pt x="78" y="0" on="0"/>
        <pt x="91" y="0" on="1"/>
        <pt x="104" y="0" on="0"/>
        <pt x="118" y="-11" on="0"/>
        <pt x="124" y="-26" on="0"/>
        <pt x="125" y="-43" on="0"/>
        <pt x="125" y="-48" on="1"/>
        <pt x="125" y="-651" on="1"/>
        <pt x="125" y="-715" on="0"/>
        <pt x="174" y="-818" on="0"/>
        <pt x="255" y="-891" on="0"/>
        <pt x="360" y="-931" on="0"/>
        <pt x="416" y="-931" on="1"/>
        <pt x="472" y="-931" on="0"/>
        <pt x="577" y="-891" on="0"/>
        <pt x="658" y="-818" on="0"/>
        <pt x="707" y="-714" on="0"/>
        <pt x="707" y="-651" on="1"/>
      </contour>
    </TTGlyph>
    <TTGlyph name="vextenddouble" xMin="145" yMin="-621" xMax="410" yMax="21">
      <contour>
        <pt x="145" y="-16" on="1"/>
        <pt x="145" y="-3" on="0"/>
        <pt x="150" y="21" on="0"/>
        <pt x="167" y="21" on="1"/>
        <pt x="183" y="21" on="0"/>
        <pt x="188" y="-4" on="0"/>
        <pt x="188" y="-16" on="1"/>
        <pt x="188" y="-584" on="1"/>
        <pt x="188" y="-597" on="0"/>
        <pt x="183" y="-621" on="0"/>
        <pt x="166" y="-621" on="1"/>
        <pt x="150" y="-621" on="0"/>
        <pt x="145" y="-596" on="0"/>
        <pt x="145" y="-584" on="1"/>
      </contour>
      <contour>
        <pt x="367" y="-16" on="1"/>
        <pt x="367" y="-3" on="0"/>
        <pt x="372" y="21" on="0"/>
        <pt x="389" y="21" on="1"/>
        <pt x="405" y="21" on="0"/>
        <pt x="410" y="-4" on="0"/>
        <pt x="410" y="-16" on="1"/>
        <pt x="410" y="-584" on="1"/>
        <pt x="410" y="-597" on="0"/>
        <pt x="405" y="-621" on="0"/>
        <pt x="388" y="-621" on="1"/>
        <pt x="372" y="-621" on="0"/>
        <pt x="367" y="-596" on="0"/>
        <pt x="367" y="-584" on="1"/>
      </contour>
    </TTGlyph>
    <TTGlyph name="vextendsingle" xMin="145" yMin="-621" xMax="188" yMax="21">
      <contour>
        <pt x="145" y="-16" on="1"/>
        <pt x="145" y="-3" on="0"/>
        <pt x="150" y="21" on="0"/>
        <pt x="167" y="21" on="1"/>
        <pt x="183" y="21" on="0"/>
        <pt x="188" y="-4" on="0"/>
        <pt x="188" y="-16" on="1"/>
        <pt x="188" y="-584" on="1"/>
        <pt x="188" y="-597" on="0"/>
        <pt x="183" y="-621" on="0"/>
        <pt x="166" y="-621" on="1"/>
        <pt x="150" y="-621" on="0"/>
        <pt x="145" y="-596" on="0"/>
        <pt x="145" y="-584" on="1"/>
      </contour>
    </TTGlyph>
</ttFont>
